%TF.GenerationSoftware,KiCad,Pcbnew,8.0.8*%
%TF.CreationDate,2025-02-10T14:02:50+00:00*%
%TF.ProjectId,stm32c071devboard,73746d33-3263-4303-9731-646576626f61,rev?*%
%TF.SameCoordinates,Original*%
%TF.FileFunction,Copper,L1,Top*%
%TF.FilePolarity,Positive*%
%FSLAX46Y46*%
G04 Gerber Fmt 4.6, Leading zero omitted, Abs format (unit mm)*
G04 Created by KiCad (PCBNEW 8.0.8) date 2025-02-10 14:02:50*
%MOMM*%
%LPD*%
G01*
G04 APERTURE LIST*
G04 Aperture macros list*
%AMRoundRect*
0 Rectangle with rounded corners*
0 $1 Rounding radius*
0 $2 $3 $4 $5 $6 $7 $8 $9 X,Y pos of 4 corners*
0 Add a 4 corners polygon primitive as box body*
4,1,4,$2,$3,$4,$5,$6,$7,$8,$9,$2,$3,0*
0 Add four circle primitives for the rounded corners*
1,1,$1+$1,$2,$3*
1,1,$1+$1,$4,$5*
1,1,$1+$1,$6,$7*
1,1,$1+$1,$8,$9*
0 Add four rect primitives between the rounded corners*
20,1,$1+$1,$2,$3,$4,$5,0*
20,1,$1+$1,$4,$5,$6,$7,0*
20,1,$1+$1,$6,$7,$8,$9,0*
20,1,$1+$1,$8,$9,$2,$3,0*%
%AMFreePoly0*
4,1,14,0.230680,0.111820,0.364320,-0.021820,0.377500,-0.053640,0.377500,-0.080000,0.364320,-0.111820,0.332500,-0.125000,-0.332500,-0.125000,-0.364320,-0.111820,-0.377500,-0.080000,-0.377500,0.080000,-0.364320,0.111820,-0.332500,0.125000,0.198860,0.125000,0.230680,0.111820,0.230680,0.111820,$1*%
%AMFreePoly1*
4,1,14,0.364320,0.111820,0.377500,0.080000,0.377500,0.053640,0.364320,0.021820,0.230680,-0.111820,0.198860,-0.125000,-0.332500,-0.125000,-0.364320,-0.111820,-0.377500,-0.080000,-0.377500,0.080000,-0.364320,0.111820,-0.332500,0.125000,0.332500,0.125000,0.364320,0.111820,0.364320,0.111820,$1*%
%AMFreePoly2*
4,1,14,0.111820,0.364320,0.125000,0.332500,0.125000,-0.332500,0.111820,-0.364320,0.080000,-0.377500,-0.080000,-0.377500,-0.111820,-0.364320,-0.125000,-0.332500,-0.125000,0.198860,-0.111820,0.230680,0.021820,0.364320,0.053640,0.377500,0.080000,0.377500,0.111820,0.364320,0.111820,0.364320,$1*%
%AMFreePoly3*
4,1,14,-0.021820,0.364320,0.111820,0.230680,0.125000,0.198860,0.125000,-0.332500,0.111820,-0.364320,0.080000,-0.377500,-0.080000,-0.377500,-0.111820,-0.364320,-0.125000,-0.332500,-0.125000,0.332500,-0.111820,0.364320,-0.080000,0.377500,-0.053640,0.377500,-0.021820,0.364320,-0.021820,0.364320,$1*%
%AMFreePoly4*
4,1,14,0.364320,0.111820,0.377500,0.080000,0.377500,-0.080000,0.364320,-0.111820,0.332500,-0.125000,-0.198860,-0.125000,-0.230680,-0.111820,-0.364320,0.021820,-0.377500,0.053640,-0.377500,0.080000,-0.364320,0.111820,-0.332500,0.125000,0.332500,0.125000,0.364320,0.111820,0.364320,0.111820,$1*%
%AMFreePoly5*
4,1,14,0.364320,0.111820,0.377500,0.080000,0.377500,-0.080000,0.364320,-0.111820,0.332500,-0.125000,-0.332500,-0.125000,-0.364320,-0.111820,-0.377500,-0.080000,-0.377500,-0.053640,-0.364320,-0.021820,-0.230680,0.111820,-0.198860,0.125000,0.332500,0.125000,0.364320,0.111820,0.364320,0.111820,$1*%
%AMFreePoly6*
4,1,14,0.111820,0.364320,0.125000,0.332500,0.125000,-0.198860,0.111820,-0.230680,-0.021820,-0.364320,-0.053640,-0.377500,-0.080000,-0.377500,-0.111820,-0.364320,-0.125000,-0.332500,-0.125000,0.332500,-0.111820,0.364320,-0.080000,0.377500,0.080000,0.377500,0.111820,0.364320,0.111820,0.364320,$1*%
%AMFreePoly7*
4,1,14,0.111820,0.364320,0.125000,0.332500,0.125000,-0.332500,0.111820,-0.364320,0.080000,-0.377500,0.053640,-0.377500,0.021820,-0.364320,-0.111820,-0.230680,-0.125000,-0.198860,-0.125000,0.332500,-0.111820,0.364320,-0.080000,0.377500,0.080000,0.377500,0.111820,0.364320,0.111820,0.364320,$1*%
G04 Aperture macros list end*
%TA.AperFunction,SMDPad,CuDef*%
%ADD10RoundRect,0.140000X0.170000X-0.140000X0.170000X0.140000X-0.170000X0.140000X-0.170000X-0.140000X0*%
%TD*%
%TA.AperFunction,SMDPad,CuDef*%
%ADD11RoundRect,0.250000X0.475000X-0.250000X0.475000X0.250000X-0.475000X0.250000X-0.475000X-0.250000X0*%
%TD*%
%TA.AperFunction,SMDPad,CuDef*%
%ADD12FreePoly0,180.000000*%
%TD*%
%TA.AperFunction,SMDPad,CuDef*%
%ADD13RoundRect,0.062500X0.375000X0.062500X-0.375000X0.062500X-0.375000X-0.062500X0.375000X-0.062500X0*%
%TD*%
%TA.AperFunction,SMDPad,CuDef*%
%ADD14FreePoly1,180.000000*%
%TD*%
%TA.AperFunction,SMDPad,CuDef*%
%ADD15FreePoly2,180.000000*%
%TD*%
%TA.AperFunction,SMDPad,CuDef*%
%ADD16RoundRect,0.062500X0.062500X0.375000X-0.062500X0.375000X-0.062500X-0.375000X0.062500X-0.375000X0*%
%TD*%
%TA.AperFunction,SMDPad,CuDef*%
%ADD17FreePoly3,180.000000*%
%TD*%
%TA.AperFunction,SMDPad,CuDef*%
%ADD18FreePoly4,180.000000*%
%TD*%
%TA.AperFunction,SMDPad,CuDef*%
%ADD19FreePoly5,180.000000*%
%TD*%
%TA.AperFunction,SMDPad,CuDef*%
%ADD20FreePoly6,180.000000*%
%TD*%
%TA.AperFunction,SMDPad,CuDef*%
%ADD21FreePoly7,180.000000*%
%TD*%
%TA.AperFunction,SMDPad,CuDef*%
%ADD22RoundRect,0.135000X0.185000X-0.135000X0.185000X0.135000X-0.185000X0.135000X-0.185000X-0.135000X0*%
%TD*%
%TA.AperFunction,SMDPad,CuDef*%
%ADD23R,1.145000X0.600000*%
%TD*%
%TA.AperFunction,SMDPad,CuDef*%
%ADD24R,1.240000X0.300000*%
%TD*%
%TA.AperFunction,HeatsinkPad*%
%ADD25O,2.100000X1.000000*%
%TD*%
%TA.AperFunction,HeatsinkPad*%
%ADD26O,1.800000X1.000000*%
%TD*%
%TA.AperFunction,SMDPad,CuDef*%
%ADD27RoundRect,0.135000X-0.185000X0.135000X-0.185000X-0.135000X0.185000X-0.135000X0.185000X0.135000X0*%
%TD*%
%TA.AperFunction,ComponentPad*%
%ADD28O,0.860000X0.770000*%
%TD*%
%TA.AperFunction,SMDPad,CuDef*%
%ADD29RoundRect,0.250000X-0.250000X-0.475000X0.250000X-0.475000X0.250000X0.475000X-0.250000X0.475000X0*%
%TD*%
%TA.AperFunction,SMDPad,CuDef*%
%ADD30RoundRect,0.135000X0.135000X0.185000X-0.135000X0.185000X-0.135000X-0.185000X0.135000X-0.185000X0*%
%TD*%
%TA.AperFunction,ComponentPad*%
%ADD31R,1.700000X1.700000*%
%TD*%
%TA.AperFunction,ComponentPad*%
%ADD32O,1.700000X1.700000*%
%TD*%
%TA.AperFunction,SMDPad,CuDef*%
%ADD33RoundRect,0.140000X-0.170000X0.140000X-0.170000X-0.140000X0.170000X-0.140000X0.170000X0.140000X0*%
%TD*%
%TA.AperFunction,SMDPad,CuDef*%
%ADD34RoundRect,0.150000X0.512500X0.150000X-0.512500X0.150000X-0.512500X-0.150000X0.512500X-0.150000X0*%
%TD*%
%TA.AperFunction,SMDPad,CuDef*%
%ADD35RoundRect,0.218750X0.256250X-0.218750X0.256250X0.218750X-0.256250X0.218750X-0.256250X-0.218750X0*%
%TD*%
%TA.AperFunction,SMDPad,CuDef*%
%ADD36RoundRect,0.175000X-0.325000X0.175000X-0.325000X-0.175000X0.325000X-0.175000X0.325000X0.175000X0*%
%TD*%
%TA.AperFunction,SMDPad,CuDef*%
%ADD37RoundRect,0.150000X-0.150000X0.200000X-0.150000X-0.200000X0.150000X-0.200000X0.150000X0.200000X0*%
%TD*%
%TA.AperFunction,ComponentPad*%
%ADD38R,0.850000X0.850000*%
%TD*%
%TA.AperFunction,SMDPad,CuDef*%
%ADD39RoundRect,0.250000X-0.475000X0.250000X-0.475000X-0.250000X0.475000X-0.250000X0.475000X0.250000X0*%
%TD*%
%TA.AperFunction,ViaPad*%
%ADD40C,0.700000*%
%TD*%
%TA.AperFunction,Conductor*%
%ADD41C,0.500000*%
%TD*%
%TA.AperFunction,Conductor*%
%ADD42C,0.300000*%
%TD*%
%TA.AperFunction,Conductor*%
%ADD43C,0.200000*%
%TD*%
G04 APERTURE END LIST*
D10*
%TO.P,C2,1*%
%TO.N,+3V3*%
X101854000Y-66012000D03*
%TO.P,C2,2*%
%TO.N,GND*%
X101854000Y-65052000D03*
%TD*%
D11*
%TO.P,C5,1*%
%TO.N,+3V3*%
X103660000Y-66924000D03*
%TO.P,C5,2*%
%TO.N,GND*%
X103660000Y-65024000D03*
%TD*%
D12*
%TO.P,U1,1,PC14*%
%TO.N,PC14*%
X100295500Y-66500000D03*
D13*
%TO.P,U1,2,PC15*%
%TO.N,PC15*%
X100235500Y-66000000D03*
%TO.P,U1,3,VDD*%
%TO.N,+3V3*%
X100235500Y-65500000D03*
%TO.P,U1,4,VSS*%
%TO.N,GND*%
X100235500Y-65000000D03*
%TO.P,U1,5,PF2*%
%TO.N,NRST*%
X100235500Y-64500000D03*
%TO.P,U1,6,PA0*%
%TO.N,Net-(J4-Pin_3)*%
X100235500Y-64000000D03*
D14*
%TO.P,U1,7,PA1*%
%TO.N,Net-(J4-Pin_4)*%
X100295500Y-63500000D03*
D15*
%TO.P,U1,8,PA2*%
%TO.N,Net-(J4-Pin_5)*%
X99798000Y-63002500D03*
D16*
%TO.P,U1,9,PA3*%
%TO.N,Net-(J4-Pin_6)*%
X99298000Y-63062500D03*
%TO.P,U1,10,PA4*%
%TO.N,Net-(J4-Pin_7)*%
X98798000Y-63062500D03*
%TO.P,U1,11,PA5*%
%TO.N,Net-(J4-Pin_8)*%
X98298000Y-63062500D03*
%TO.P,U1,12,PA6*%
%TO.N,Net-(J4-Pin_9)*%
X97798000Y-63062500D03*
%TO.P,U1,13,PA7*%
%TO.N,Net-(J4-Pin_10)*%
X97298000Y-63062500D03*
D17*
%TO.P,U1,14,PB0*%
%TO.N,PB0*%
X96798000Y-63002500D03*
D18*
%TO.P,U1,15,PB1*%
%TO.N,PB1*%
X96300500Y-63500000D03*
D13*
%TO.P,U1,16,PA8*%
%TO.N,Net-(J4-Pin_13)*%
X96360500Y-64000000D03*
%TO.P,U1,17,VDDIO2*%
%TO.N,+3V3*%
X96360500Y-64500000D03*
%TO.P,U1,18,PA11*%
%TO.N,USB_DM-*%
X96360500Y-65000000D03*
%TO.P,U1,19,PA12*%
%TO.N,USB_DM+*%
X96360500Y-65500000D03*
%TO.P,U1,20,PA13*%
%TO.N,BOOT0*%
X96360500Y-66000000D03*
D19*
%TO.P,U1,21,PA14*%
%TO.N,PA13*%
X96300500Y-66500000D03*
D20*
%TO.P,U1,22,PA15*%
%TO.N,PA15*%
X96798000Y-66997500D03*
D16*
%TO.P,U1,23,PB3*%
%TO.N,Net-(J2-Pin_5)*%
X97298000Y-66937500D03*
%TO.P,U1,24,PB4*%
%TO.N,Net-(J2-Pin_6)*%
X97798000Y-66937500D03*
%TO.P,U1,25,PB5*%
%TO.N,Net-(J2-Pin_7)*%
X98298000Y-66937500D03*
%TO.P,U1,26,PB6*%
%TO.N,Net-(J2-Pin_8)*%
X98798000Y-66937500D03*
%TO.P,U1,27,PB7*%
%TO.N,Net-(J2-Pin_9)*%
X99298000Y-66937500D03*
D21*
%TO.P,U1,28,PB8*%
%TO.N,Net-(J2-Pin_10)*%
X99798000Y-66997500D03*
%TD*%
D22*
%TO.P,R3,1*%
%TO.N,Net-(J1-CC1)*%
X88500000Y-63758000D03*
%TO.P,R3,2*%
%TO.N,GND*%
X88500000Y-62738000D03*
%TD*%
D23*
%TO.P,J1,A1,GND*%
%TO.N,GND*%
X86422500Y-61800000D03*
%TO.P,J1,A4,VBUS*%
%TO.N,/VBUS*%
X86422500Y-62600000D03*
D24*
%TO.P,J1,A5,CC1*%
%TO.N,Net-(J1-CC1)*%
X86375000Y-63750000D03*
%TO.P,J1,A6,D+*%
%TO.N,USB_DM+*%
X86375000Y-64750000D03*
%TO.P,J1,A7,D-*%
%TO.N,USB_DM-*%
X86375000Y-65250000D03*
%TO.P,J1,A8,SBU1*%
%TO.N,unconnected-(J1-SBU1-PadA8)*%
X86375000Y-66250000D03*
D23*
%TO.P,J1,A9,VBUS*%
%TO.N,/VBUS*%
X86422500Y-67400000D03*
%TO.P,J1,A12,GND*%
%TO.N,GND*%
X86422500Y-68200000D03*
%TO.P,J1,B1,GND*%
X86422500Y-68200000D03*
%TO.P,J1,B4,VBUS*%
%TO.N,/VBUS*%
X86422500Y-67400000D03*
D24*
%TO.P,J1,B5,CC2*%
%TO.N,Net-(J1-CC2)*%
X86375000Y-66750000D03*
%TO.P,J1,B6,D+*%
%TO.N,USB_DM+*%
X86375000Y-65750000D03*
%TO.P,J1,B7,D-*%
%TO.N,USB_DM-*%
X86375000Y-64250000D03*
%TO.P,J1,B8,SBU2*%
%TO.N,unconnected-(J1-SBU2-PadB8)*%
X86375000Y-63250000D03*
D23*
%TO.P,J1,B9,VBUS*%
%TO.N,/VBUS*%
X86422500Y-62600000D03*
%TO.P,J1,B12,GND*%
%TO.N,GND*%
X86422500Y-61800000D03*
D25*
%TO.P,J1,S1,SHIELD*%
X85775000Y-60680000D03*
D26*
X81575000Y-60680000D03*
D25*
X85775000Y-69320000D03*
D26*
X81575000Y-69320000D03*
%TD*%
D27*
%TO.P,R7,1*%
%TO.N,BOOT0*%
X90678000Y-68832000D03*
%TO.P,R7,2*%
%TO.N,GND*%
X90678000Y-69852000D03*
%TD*%
D28*
%TO.P,J5,1,Pin_1*%
%TO.N,+3V3*%
X93091000Y-67437000D03*
%TO.P,J5,2,Pin_2*%
%TO.N,BOOT0*%
X93091000Y-68437000D03*
%TD*%
D29*
%TO.P,C3,1*%
%TO.N,+3V3*%
X108204000Y-67818000D03*
%TO.P,C3,2*%
%TO.N,GND*%
X110104000Y-67818000D03*
%TD*%
D30*
%TO.P,R1,1*%
%TO.N,Net-(D1-K)*%
X113510000Y-69342000D03*
%TO.P,R1,2*%
%TO.N,LED*%
X112490000Y-69342000D03*
%TD*%
D31*
%TO.P,J2,1,Pin_1*%
%TO.N,GND*%
X82804000Y-72644000D03*
D32*
%TO.P,J2,2,Pin_2*%
%TO.N,BOOT0*%
X85344000Y-72644000D03*
%TO.P,J2,3,Pin_3*%
%TO.N,PA13*%
X87884000Y-72644000D03*
%TO.P,J2,4,Pin_4*%
%TO.N,PA15*%
X90424000Y-72644000D03*
%TO.P,J2,5,Pin_5*%
%TO.N,Net-(J2-Pin_5)*%
X92964000Y-72644000D03*
%TO.P,J2,6,Pin_6*%
%TO.N,Net-(J2-Pin_6)*%
X95504000Y-72644000D03*
%TO.P,J2,7,Pin_7*%
%TO.N,Net-(J2-Pin_7)*%
X98044000Y-72644000D03*
%TO.P,J2,8,Pin_8*%
%TO.N,Net-(J2-Pin_8)*%
X100584000Y-72644000D03*
%TO.P,J2,9,Pin_9*%
%TO.N,Net-(J2-Pin_9)*%
X103124000Y-72644000D03*
%TO.P,J2,10,Pin_10*%
%TO.N,Net-(J2-Pin_10)*%
X105664000Y-72644000D03*
%TO.P,J2,11,Pin_11*%
%TO.N,PC14*%
X108204000Y-72644000D03*
%TO.P,J2,12,Pin_12*%
%TO.N,PC15*%
X110744000Y-72644000D03*
%TO.P,J2,13,Pin_13*%
%TO.N,LED*%
X113284000Y-72644000D03*
%TO.P,J2,14,Pin_14*%
%TO.N,+3V3*%
X115824000Y-72644000D03*
%TD*%
D31*
%TO.P,J4,1,Pin_1*%
%TO.N,+3V3*%
X115824000Y-57500000D03*
D32*
%TO.P,J4,2,Pin_2*%
%TO.N,NRST*%
X113284000Y-57500000D03*
%TO.P,J4,3,Pin_3*%
%TO.N,Net-(J4-Pin_3)*%
X110744000Y-57500000D03*
%TO.P,J4,4,Pin_4*%
%TO.N,Net-(J4-Pin_4)*%
X108204000Y-57500000D03*
%TO.P,J4,5,Pin_5*%
%TO.N,Net-(J4-Pin_5)*%
X105664000Y-57500000D03*
%TO.P,J4,6,Pin_6*%
%TO.N,Net-(J4-Pin_6)*%
X103124000Y-57500000D03*
%TO.P,J4,7,Pin_7*%
%TO.N,Net-(J4-Pin_7)*%
X100584000Y-57500000D03*
%TO.P,J4,8,Pin_8*%
%TO.N,Net-(J4-Pin_8)*%
X98044000Y-57500000D03*
%TO.P,J4,9,Pin_9*%
%TO.N,Net-(J4-Pin_9)*%
X95504000Y-57500000D03*
%TO.P,J4,10,Pin_10*%
%TO.N,Net-(J4-Pin_10)*%
X92964000Y-57500000D03*
%TO.P,J4,11,Pin_11*%
%TO.N,PB0*%
X90424000Y-57500000D03*
%TO.P,J4,12,Pin_12*%
%TO.N,PB1*%
X87884000Y-57500000D03*
%TO.P,J4,13,Pin_13*%
%TO.N,Net-(J4-Pin_13)*%
X85344000Y-57500000D03*
%TO.P,J4,14,Pin_14*%
%TO.N,GND*%
X82804000Y-57500000D03*
%TD*%
D33*
%TO.P,C7,1*%
%TO.N,Net-(U3-NR)*%
X106172000Y-65842000D03*
%TO.P,C7,2*%
%TO.N,GND*%
X106172000Y-66802000D03*
%TD*%
D27*
%TO.P,R4,1*%
%TO.N,USB_DM+*%
X90678000Y-66800000D03*
%TO.P,R4,2*%
%TO.N,+3V3*%
X90678000Y-67820000D03*
%TD*%
D34*
%TO.P,U3,1,IN*%
%TO.N,/VBUS*%
X110500000Y-65718000D03*
%TO.P,U3,2,GND*%
%TO.N,GND*%
X110500000Y-64768000D03*
%TO.P,U3,3,EN*%
%TO.N,/VBUS*%
X110500000Y-63818000D03*
%TO.P,U3,4,NR*%
%TO.N,Net-(U3-NR)*%
X108225000Y-63818000D03*
%TO.P,U3,5,OUT*%
%TO.N,+3V3*%
X108225000Y-65718000D03*
%TD*%
D35*
%TO.P,D1,1,K*%
%TO.N,Net-(D1-K)*%
X115500000Y-69325000D03*
%TO.P,D1,2,A*%
%TO.N,+3V3*%
X115500000Y-67750000D03*
%TD*%
D36*
%TO.P,D2,1,A*%
%TO.N,GND*%
X92460000Y-63246000D03*
D37*
%TO.P,D2,2,K*%
%TO.N,/VBUS*%
X90760000Y-63246000D03*
%TO.P,D2,3,K*%
%TO.N,USB_DM+*%
X90760000Y-65246000D03*
%TO.P,D2,4,K*%
%TO.N,USB_DM-*%
X92660000Y-65246000D03*
%TD*%
D30*
%TO.P,R6,1*%
%TO.N,+3V3*%
X109982000Y-62230000D03*
%TO.P,R6,2*%
%TO.N,NRST*%
X108962000Y-62230000D03*
%TD*%
D33*
%TO.P,C6,1*%
%TO.N,NRST*%
X106172000Y-63556000D03*
%TO.P,C6,2*%
%TO.N,GND*%
X106172000Y-64516000D03*
%TD*%
D38*
%TO.P,J3,1,Pin_1*%
%TO.N,/VBUS*%
X115570000Y-61214000D03*
%TD*%
D35*
%TO.P,D3,1,K*%
%TO.N,Net-(D3-K)*%
X115500000Y-65825000D03*
%TO.P,D3,2,A*%
%TO.N,+3V3*%
X115500000Y-64250000D03*
%TD*%
D27*
%TO.P,R2,1*%
%TO.N,Net-(J1-CC2)*%
X88500000Y-66798000D03*
%TO.P,R2,2*%
%TO.N,GND*%
X88500000Y-67818000D03*
%TD*%
D10*
%TO.P,C4,1*%
%TO.N,+3V3*%
X94742000Y-64460000D03*
%TO.P,C4,2*%
%TO.N,GND*%
X94742000Y-63500000D03*
%TD*%
D30*
%TO.P,R5,1*%
%TO.N,Net-(D3-K)*%
X113500000Y-66548000D03*
%TO.P,R5,2*%
%TO.N,GND*%
X112480000Y-66548000D03*
%TD*%
D39*
%TO.P,C1,1*%
%TO.N,/VBUS*%
X112975000Y-62850000D03*
%TO.P,C1,2*%
%TO.N,GND*%
X112975000Y-64750000D03*
%TD*%
D40*
%TO.N,GND*%
X105156000Y-66802000D03*
X89408000Y-67818000D03*
X89410000Y-69843000D03*
X111506000Y-66802000D03*
X92456000Y-64262000D03*
X98806000Y-64516000D03*
X89662000Y-63246000D03*
X105156000Y-64516000D03*
X94234000Y-62992000D03*
X111506000Y-67818000D03*
%TO.N,+3V3*%
X101932620Y-66977380D03*
%TO.N,/VBUS*%
X110998000Y-62484000D03*
X91186000Y-62230000D03*
%TD*%
D41*
%TO.N,GND*%
X106172000Y-64516000D02*
X105156000Y-64516000D01*
X112957000Y-64768000D02*
X112975000Y-64750000D01*
X88500000Y-67818000D02*
X89408000Y-67818000D01*
X86422500Y-61800000D02*
X86422500Y-61327500D01*
X110104000Y-67818000D02*
X109387500Y-67101500D01*
D42*
X100235500Y-65000000D02*
X99290000Y-65000000D01*
D41*
X106172000Y-66802000D02*
X105156000Y-66802000D01*
X111760000Y-66548000D02*
X111506000Y-66802000D01*
X89408000Y-69850000D02*
X89410000Y-69848000D01*
X86422500Y-61327500D02*
X85775000Y-60680000D01*
X109387500Y-65160634D02*
X109780134Y-64768000D01*
X86375000Y-68200000D02*
X87798553Y-68200000D01*
X92460000Y-64258000D02*
X92456000Y-64262000D01*
X88180553Y-67818000D02*
X88900000Y-67818000D01*
X89410000Y-69848000D02*
X89410000Y-69843000D01*
X89410000Y-69852000D02*
X89408000Y-69850000D01*
D42*
X101802000Y-65000000D02*
X101854000Y-65052000D01*
D41*
X112480000Y-66548000D02*
X111760000Y-66548000D01*
D42*
X103632000Y-65052000D02*
X103660000Y-65024000D01*
D41*
X109387500Y-67101500D02*
X109387500Y-65160634D01*
D42*
X103350000Y-65052000D02*
X103378000Y-65024000D01*
X94742000Y-63500000D02*
X94234000Y-62992000D01*
D41*
X88500000Y-62738000D02*
X89154000Y-62738000D01*
X110500000Y-64768000D02*
X112957000Y-64768000D01*
X87798553Y-68200000D02*
X88180553Y-67818000D01*
X92460000Y-63246000D02*
X92460000Y-64258000D01*
X90678000Y-69852000D02*
X89410000Y-69852000D01*
X89154000Y-62738000D02*
X89662000Y-63246000D01*
X101854000Y-65052000D02*
X103632000Y-65052000D01*
D42*
X100235500Y-65000000D02*
X101802000Y-65000000D01*
D41*
X109780134Y-64768000D02*
X110500000Y-64768000D01*
D42*
X99290000Y-65000000D02*
X98806000Y-64516000D01*
D41*
X110104000Y-67818000D02*
X111506000Y-67818000D01*
%TO.N,+3V3*%
X115500000Y-67750000D02*
X112930944Y-67750000D01*
X115500000Y-67750000D02*
X116450000Y-66800000D01*
D42*
X94782000Y-64500000D02*
X96360500Y-64500000D01*
D41*
X116840000Y-62910000D02*
X116840000Y-60198000D01*
X109379000Y-68993000D02*
X108204000Y-67818000D01*
D42*
X103660000Y-66924000D02*
X103754000Y-66924000D01*
D41*
X115500000Y-67750000D02*
X116674000Y-68924000D01*
D42*
X90678000Y-67820000D02*
X91311000Y-67820000D01*
D41*
X112930944Y-67750000D02*
X111687944Y-68993000D01*
X109337500Y-64220684D02*
X109337500Y-63194499D01*
D42*
X97520000Y-64500000D02*
X98520000Y-65500000D01*
D41*
X109337500Y-63194499D02*
X109982000Y-62549999D01*
X108225000Y-67797000D02*
X108204000Y-67818000D01*
D42*
X94742000Y-64460000D02*
X94782000Y-64500000D01*
X98520000Y-65500000D02*
X100235500Y-65500000D01*
X91311000Y-67820000D02*
X91694000Y-67437000D01*
X101544001Y-66012000D02*
X101854000Y-66012000D01*
D41*
X115824000Y-71501000D02*
X115824000Y-72644000D01*
X116450000Y-65200000D02*
X115500000Y-64250000D01*
D42*
X91694000Y-67437000D02*
X93091000Y-67437000D01*
D41*
X111687944Y-68993000D02*
X109379000Y-68993000D01*
X109982000Y-62549999D02*
X109982000Y-62230000D01*
X108225000Y-65718000D02*
X108225000Y-65333184D01*
X108204000Y-67818000D02*
X104554000Y-67818000D01*
X104554000Y-67818000D02*
X103660000Y-66924000D01*
D42*
X100235500Y-65500000D02*
X101032001Y-65500000D01*
X103606620Y-66977380D02*
X103660000Y-66924000D01*
X101032001Y-65500000D02*
X101544001Y-66012000D01*
D41*
X116674000Y-70651000D02*
X115824000Y-71501000D01*
X101854000Y-66012000D02*
X102748000Y-66012000D01*
D42*
X101932620Y-66977380D02*
X103606620Y-66977380D01*
D41*
X115500000Y-64250000D02*
X116840000Y-62910000D01*
X108225000Y-65333184D02*
X109337500Y-64220684D01*
X116450000Y-66800000D02*
X116450000Y-65200000D01*
X116840000Y-60198000D02*
X115824000Y-59182000D01*
X102748000Y-66012000D02*
X103660000Y-66924000D01*
X115824000Y-59182000D02*
X115824000Y-57500000D01*
X116674000Y-68924000D02*
X116674000Y-70651000D01*
X108225000Y-65718000D02*
X108225000Y-67797000D01*
D42*
X96360500Y-64500000D02*
X97520000Y-64500000D01*
%TO.N,USB_DM+*%
X86375000Y-65750000D02*
X85405000Y-65750000D01*
X90760000Y-66718000D02*
X90678000Y-66800000D01*
X95129953Y-65786000D02*
X94742000Y-65786000D01*
X93021262Y-65946000D02*
X92162894Y-65946000D01*
X93181262Y-65786000D02*
X93021262Y-65946000D01*
X85405000Y-64750000D02*
X86375000Y-64750000D01*
X89694000Y-65246000D02*
X90760000Y-65246000D01*
X90792000Y-65278000D02*
X90760000Y-65246000D01*
X95415953Y-65500000D02*
X95129953Y-65786000D01*
X90760000Y-65246000D02*
X90760000Y-66718000D01*
X91494894Y-65278000D02*
X90792000Y-65278000D01*
X96360500Y-65500000D02*
X95415953Y-65500000D01*
X86375000Y-65750000D02*
X89190000Y-65750000D01*
X85405000Y-65750000D02*
X85405000Y-64750000D01*
X94742000Y-65786000D02*
X93181262Y-65786000D01*
X89190000Y-65750000D02*
X89694000Y-65246000D01*
X92162894Y-65946000D02*
X91494894Y-65278000D01*
%TO.N,USB_DM-*%
X87630000Y-65250000D02*
X86375000Y-65250000D01*
X88982894Y-65250000D02*
X87630000Y-65250000D01*
X94962846Y-65246000D02*
X92660000Y-65246000D01*
X92170000Y-65246000D02*
X91440000Y-64516000D01*
X91440000Y-64516000D02*
X89716894Y-64516000D01*
X87884000Y-64789000D02*
X87884000Y-64996000D01*
X89716894Y-64516000D02*
X88982894Y-65250000D01*
X95208846Y-65000000D02*
X94962846Y-65246000D01*
X96360500Y-65000000D02*
X95208846Y-65000000D01*
X87884000Y-64996000D02*
X87630000Y-65250000D01*
X87345000Y-64250000D02*
X87884000Y-64789000D01*
X92660000Y-65246000D02*
X92170000Y-65246000D01*
X86375000Y-64250000D02*
X87345000Y-64250000D01*
%TO.N,Net-(D1-K)*%
X115483000Y-69342000D02*
X115500000Y-69325000D01*
X113510000Y-69342000D02*
X115483000Y-69342000D01*
%TO.N,Net-(J1-CC2)*%
X88430000Y-66750000D02*
X88500000Y-66680000D01*
X88452000Y-66750000D02*
X88500000Y-66798000D01*
X86375000Y-66750000D02*
X88452000Y-66750000D01*
%TO.N,Net-(J1-CC1)*%
X88492000Y-63750000D02*
X88500000Y-63758000D01*
X86375000Y-63750000D02*
X88492000Y-63750000D01*
%TO.N,Net-(J4-Pin_3)*%
X102454048Y-62484000D02*
X106172000Y-62484000D01*
X108458000Y-60198000D02*
X109728000Y-60198000D01*
X106172000Y-62484000D02*
X108458000Y-60198000D01*
X109728000Y-60198000D02*
X110744000Y-59182000D01*
X110744000Y-59182000D02*
X110744000Y-57500000D01*
X100235500Y-64000000D02*
X100938048Y-64000000D01*
X100938048Y-64000000D02*
X102454048Y-62484000D01*
%TO.N,PC15*%
X100235500Y-66000000D02*
X100780216Y-66000000D01*
X105672000Y-69096000D02*
X106172000Y-69596000D01*
X110744000Y-70866000D02*
X110744000Y-72644000D01*
X109474000Y-69596000D02*
X110744000Y-70866000D01*
X101033000Y-66252784D02*
X101033000Y-67124000D01*
X101033000Y-67124000D02*
X103005000Y-69096000D01*
X100780216Y-66000000D02*
X101033000Y-66252784D01*
X106172000Y-69596000D02*
X109474000Y-69596000D01*
X103005000Y-69096000D02*
X105672000Y-69096000D01*
%TO.N,PA15*%
X96798000Y-67794000D02*
X93599000Y-70993000D01*
X90424000Y-71882000D02*
X90424000Y-72644000D01*
X91313000Y-70993000D02*
X90424000Y-71882000D01*
X93599000Y-70993000D02*
X91313000Y-70993000D01*
X96798000Y-66997500D02*
X96798000Y-67794000D01*
%TO.N,PA13*%
X93391894Y-70493000D02*
X90670000Y-70493000D01*
X90670000Y-70493000D02*
X90297000Y-70866000D01*
X95933000Y-66500000D02*
X94996000Y-67437000D01*
X90297000Y-70866000D02*
X88265000Y-70866000D01*
X94996000Y-67437000D02*
X94996000Y-68888894D01*
X94996000Y-68888894D02*
X93391894Y-70493000D01*
X96300500Y-66500000D02*
X95933000Y-66500000D01*
X88265000Y-70866000D02*
X87884000Y-71247000D01*
X87884000Y-71247000D02*
X87884000Y-72644000D01*
%TO.N,Net-(J4-Pin_10)*%
X96774000Y-60452000D02*
X93980000Y-60452000D01*
X93980000Y-60452000D02*
X92964000Y-59436000D01*
X97298000Y-60976000D02*
X96774000Y-60452000D01*
X92964000Y-59436000D02*
X92964000Y-57500000D01*
X97298000Y-63062500D02*
X97298000Y-60976000D01*
%TO.N,PC14*%
X100298000Y-66502500D02*
X100298000Y-67278000D01*
X100298000Y-67278000D02*
X102616000Y-69596000D01*
X100295500Y-66500000D02*
X100298000Y-66502500D01*
X105464894Y-69596000D02*
X105964894Y-70096000D01*
X108204000Y-70866000D02*
X108204000Y-72644000D01*
X107434000Y-70096000D02*
X108204000Y-70866000D01*
X105964894Y-70096000D02*
X107434000Y-70096000D01*
X102616000Y-69596000D02*
X105464894Y-69596000D01*
%TO.N,Net-(J4-Pin_5)*%
X103378000Y-61468000D02*
X105664000Y-59182000D01*
X101092000Y-61468000D02*
X103378000Y-61468000D01*
X99798000Y-63002500D02*
X99798000Y-62762000D01*
X105664000Y-59182000D02*
X105664000Y-57500000D01*
X99798000Y-62762000D02*
X101092000Y-61468000D01*
%TO.N,BOOT0*%
X86868000Y-70866000D02*
X88902000Y-68832000D01*
X85979000Y-70866000D02*
X85344000Y-71501000D01*
X96360500Y-66000000D02*
X95623060Y-66000000D01*
X93641000Y-68437000D02*
X93091000Y-68437000D01*
X88902000Y-68832000D02*
X90678000Y-68832000D01*
X94107000Y-67971000D02*
X93641000Y-68437000D01*
X94107000Y-67516060D02*
X94107000Y-67971000D01*
X92696000Y-68832000D02*
X93091000Y-68437000D01*
X95623060Y-66000000D02*
X94107000Y-67516060D01*
X90678000Y-68832000D02*
X92696000Y-68832000D01*
X86868000Y-70866000D02*
X85979000Y-70866000D01*
X85344000Y-71501000D02*
X85344000Y-72644000D01*
%TO.N,Net-(J4-Pin_6)*%
X99298000Y-62517784D02*
X100847784Y-60968000D01*
X99298000Y-63062500D02*
X99298000Y-62517784D01*
X100847784Y-60968000D02*
X101592000Y-60968000D01*
X101592000Y-60968000D02*
X103124000Y-59436000D01*
X103124000Y-59436000D02*
X103124000Y-57500000D01*
%TO.N,Net-(J4-Pin_4)*%
X102054471Y-62176471D02*
X102246941Y-61984000D01*
X100295500Y-63500000D02*
X100730942Y-63500000D01*
X102246941Y-61984000D02*
X105402000Y-61984000D01*
X105402000Y-61984000D02*
X108204000Y-59182000D01*
X100730942Y-63500000D02*
X102054471Y-62176471D01*
X108204000Y-59182000D02*
X108204000Y-57500000D01*
%TO.N,Net-(J4-Pin_7)*%
X98798000Y-63062500D02*
X98798000Y-60968000D01*
X98798000Y-60968000D02*
X100584000Y-59182000D01*
X100584000Y-59182000D02*
X100584000Y-57500000D01*
%TO.N,PB1*%
X96300500Y-63500000D02*
X96298000Y-63497500D01*
X87884000Y-58547000D02*
X87884000Y-57500000D01*
X91694000Y-60198000D02*
X89535000Y-60198000D01*
X92964000Y-61468000D02*
X91694000Y-60198000D01*
X96298000Y-63497500D02*
X96298000Y-62008000D01*
X89535000Y-60198000D02*
X87884000Y-58547000D01*
X96298000Y-62008000D02*
X95758000Y-61468000D01*
X95758000Y-61468000D02*
X92964000Y-61468000D01*
%TO.N,Net-(J4-Pin_13)*%
X86106000Y-59182000D02*
X85344000Y-58420000D01*
X87630000Y-59182000D02*
X86106000Y-59182000D01*
X96360500Y-64000000D02*
X95815784Y-64000000D01*
X85344000Y-58420000D02*
X85344000Y-57500000D01*
X89154000Y-60706000D02*
X87630000Y-59182000D01*
X91440000Y-60706000D02*
X89154000Y-60706000D01*
X92702000Y-61968000D02*
X91440000Y-60706000D01*
X95402000Y-62382000D02*
X94988000Y-61968000D01*
X94988000Y-61968000D02*
X92702000Y-61968000D01*
X95815784Y-64000000D02*
X95402000Y-63586216D01*
X95402000Y-63586216D02*
X95402000Y-62382000D01*
%TO.N,PB0*%
X96266000Y-60960000D02*
X93345000Y-60960000D01*
X93345000Y-60960000D02*
X92075000Y-59690000D01*
X90932000Y-59690000D02*
X90424000Y-59182000D01*
X96798000Y-61492000D02*
X96266000Y-60960000D01*
X92075000Y-59690000D02*
X90932000Y-59690000D01*
X96798000Y-63002500D02*
X96798000Y-61492000D01*
X90424000Y-59182000D02*
X90424000Y-57500000D01*
%TO.N,Net-(J4-Pin_8)*%
X98044000Y-59436000D02*
X98044000Y-57500000D01*
X98298000Y-63062500D02*
X98298000Y-59690000D01*
X98298000Y-59690000D02*
X98044000Y-59436000D01*
%TO.N,NRST*%
X111252000Y-61214000D02*
X113284000Y-59182000D01*
X100235500Y-64500000D02*
X101399154Y-64500000D01*
X108962000Y-61726000D02*
X109474000Y-61214000D01*
X108962000Y-62230000D02*
X108962000Y-61726000D01*
X106624000Y-63556000D02*
X107950000Y-62230000D01*
X102343154Y-63556000D02*
X106172000Y-63556000D01*
X106172000Y-63556000D02*
X106624000Y-63556000D01*
X109474000Y-61214000D02*
X111252000Y-61214000D01*
X101399154Y-64500000D02*
X102343154Y-63556000D01*
X107950000Y-62230000D02*
X108962000Y-62230000D01*
X113284000Y-59182000D02*
X113284000Y-57500000D01*
%TO.N,Net-(J4-Pin_9)*%
X97798000Y-60768893D02*
X96981107Y-59952000D01*
X97798000Y-63062500D02*
X97798000Y-60768893D01*
X96020000Y-59952000D02*
X95504000Y-59436000D01*
X96981107Y-59952000D02*
X96020000Y-59952000D01*
X95504000Y-59436000D02*
X95504000Y-57500000D01*
%TO.N,LED*%
X112490000Y-69564000D02*
X113284000Y-70358000D01*
X113284000Y-70358000D02*
X113284000Y-72644000D01*
X112490000Y-69342000D02*
X112490000Y-69564000D01*
D41*
%TO.N,Net-(D3-K)*%
X114777000Y-66548000D02*
X115500000Y-65825000D01*
X113500000Y-66548000D02*
X114777000Y-66548000D01*
%TO.N,/VBUS*%
X110998000Y-63320000D02*
X110500000Y-63818000D01*
X110500000Y-65718000D02*
X113728878Y-65718000D01*
X90760000Y-63029339D02*
X90760000Y-63246000D01*
X89718661Y-61988000D02*
X90760000Y-63029339D01*
X88098944Y-61988000D02*
X89718661Y-61988000D01*
D43*
X86410000Y-67400000D02*
X86094400Y-67400000D01*
X85622500Y-62800000D02*
X86197500Y-62800000D01*
X86094400Y-67400000D02*
X85894400Y-67200000D01*
D41*
X87486944Y-62600000D02*
X88098944Y-61988000D01*
D43*
X86197500Y-62800000D02*
X86397500Y-62600000D01*
D41*
X110998000Y-62484000D02*
X110998000Y-63320000D01*
X113934000Y-62850000D02*
X115570000Y-61214000D01*
X112007000Y-63818000D02*
X112975000Y-62850000D01*
X112975000Y-62850000D02*
X113934000Y-62850000D01*
D43*
X85615000Y-67200000D02*
X84709000Y-66294000D01*
D41*
X86375000Y-62600000D02*
X87486944Y-62600000D01*
D43*
X84709000Y-63713500D02*
X85622500Y-62800000D01*
D41*
X110500000Y-63818000D02*
X112007000Y-63818000D01*
X90760000Y-62656000D02*
X91186000Y-62230000D01*
X90760000Y-63246000D02*
X90760000Y-62656000D01*
X114150000Y-65296878D02*
X114150000Y-64025000D01*
D43*
X85894400Y-67200000D02*
X85615000Y-67200000D01*
X84709000Y-66294000D02*
X84709000Y-63713500D01*
D41*
X114150000Y-64025000D02*
X112975000Y-62850000D01*
X113728878Y-65718000D02*
X114150000Y-65296878D01*
D42*
%TO.N,Net-(U3-NR)*%
X106201000Y-65842000D02*
X108225000Y-63818000D01*
X106172000Y-65842000D02*
X106201000Y-65842000D01*
%TO.N,Net-(J2-Pin_6)*%
X97798000Y-66937500D02*
X97798000Y-69896893D01*
X95504000Y-72190893D02*
X95504000Y-72644000D01*
X97798000Y-69896893D02*
X95504000Y-72190893D01*
%TO.N,Net-(J2-Pin_8)*%
X98798000Y-66937500D02*
X98798000Y-69080000D01*
X98798000Y-69080000D02*
X100584000Y-70866000D01*
X100584000Y-70866000D02*
X100584000Y-72644000D01*
%TO.N,Net-(J2-Pin_7)*%
X98298000Y-70586600D02*
X98044000Y-70840600D01*
X98298000Y-66937500D02*
X98298000Y-70586600D01*
X98044000Y-70840600D02*
X98044000Y-72644000D01*
%TO.N,Net-(J2-Pin_9)*%
X99298000Y-67802000D02*
X103124000Y-71628000D01*
X103124000Y-71628000D02*
X103124000Y-72644000D01*
X99298000Y-66937500D02*
X99298000Y-67802000D01*
%TO.N,Net-(J2-Pin_10)*%
X99798000Y-66997500D02*
X99798000Y-67540000D01*
X102616000Y-70358000D02*
X105156000Y-70358000D01*
X105664000Y-70866000D02*
X105664000Y-72644000D01*
X105156000Y-70358000D02*
X105664000Y-70866000D01*
X99798000Y-67540000D02*
X102616000Y-70358000D01*
%TO.N,Net-(J2-Pin_5)*%
X97298000Y-68310000D02*
X92964000Y-72644000D01*
X97298000Y-66937500D02*
X97298000Y-68310000D01*
%TD*%
M02*
