%TF.GenerationSoftware,KiCad,Pcbnew,8.0.8*%
%TF.CreationDate,2025-02-15T19:49:46+00:00*%
%TF.ProjectId,stm32c071devboard,73746d33-3263-4303-9731-646576626f61,rev?*%
%TF.SameCoordinates,Original*%
%TF.FileFunction,Soldermask,Top*%
%TF.FilePolarity,Negative*%
%FSLAX46Y46*%
G04 Gerber Fmt 4.6, Leading zero omitted, Abs format (unit mm)*
G04 Created by KiCad (PCBNEW 8.0.8) date 2025-02-15 19:49:46*
%MOMM*%
%LPD*%
G01*
G04 APERTURE LIST*
G04 Aperture macros list*
%AMRoundRect*
0 Rectangle with rounded corners*
0 $1 Rounding radius*
0 $2 $3 $4 $5 $6 $7 $8 $9 X,Y pos of 4 corners*
0 Add a 4 corners polygon primitive as box body*
4,1,4,$2,$3,$4,$5,$6,$7,$8,$9,$2,$3,0*
0 Add four circle primitives for the rounded corners*
1,1,$1+$1,$2,$3*
1,1,$1+$1,$4,$5*
1,1,$1+$1,$6,$7*
1,1,$1+$1,$8,$9*
0 Add four rect primitives between the rounded corners*
20,1,$1+$1,$2,$3,$4,$5,0*
20,1,$1+$1,$4,$5,$6,$7,0*
20,1,$1+$1,$6,$7,$8,$9,0*
20,1,$1+$1,$8,$9,$2,$3,0*%
%AMFreePoly0*
4,1,14,0.230680,0.111820,0.364320,-0.021820,0.377500,-0.053640,0.377500,-0.080000,0.364320,-0.111820,0.332500,-0.125000,-0.332500,-0.125000,-0.364320,-0.111820,-0.377500,-0.080000,-0.377500,0.080000,-0.364320,0.111820,-0.332500,0.125000,0.198860,0.125000,0.230680,0.111820,0.230680,0.111820,$1*%
%AMFreePoly1*
4,1,14,0.364320,0.111820,0.377500,0.080000,0.377500,0.053640,0.364320,0.021820,0.230680,-0.111820,0.198860,-0.125000,-0.332500,-0.125000,-0.364320,-0.111820,-0.377500,-0.080000,-0.377500,0.080000,-0.364320,0.111820,-0.332500,0.125000,0.332500,0.125000,0.364320,0.111820,0.364320,0.111820,$1*%
%AMFreePoly2*
4,1,14,0.111820,0.364320,0.125000,0.332500,0.125000,-0.332500,0.111820,-0.364320,0.080000,-0.377500,-0.080000,-0.377500,-0.111820,-0.364320,-0.125000,-0.332500,-0.125000,0.198860,-0.111820,0.230680,0.021820,0.364320,0.053640,0.377500,0.080000,0.377500,0.111820,0.364320,0.111820,0.364320,$1*%
%AMFreePoly3*
4,1,14,-0.021820,0.364320,0.111820,0.230680,0.125000,0.198860,0.125000,-0.332500,0.111820,-0.364320,0.080000,-0.377500,-0.080000,-0.377500,-0.111820,-0.364320,-0.125000,-0.332500,-0.125000,0.332500,-0.111820,0.364320,-0.080000,0.377500,-0.053640,0.377500,-0.021820,0.364320,-0.021820,0.364320,$1*%
%AMFreePoly4*
4,1,14,0.364320,0.111820,0.377500,0.080000,0.377500,-0.080000,0.364320,-0.111820,0.332500,-0.125000,-0.198860,-0.125000,-0.230680,-0.111820,-0.364320,0.021820,-0.377500,0.053640,-0.377500,0.080000,-0.364320,0.111820,-0.332500,0.125000,0.332500,0.125000,0.364320,0.111820,0.364320,0.111820,$1*%
%AMFreePoly5*
4,1,14,0.364320,0.111820,0.377500,0.080000,0.377500,-0.080000,0.364320,-0.111820,0.332500,-0.125000,-0.332500,-0.125000,-0.364320,-0.111820,-0.377500,-0.080000,-0.377500,-0.053640,-0.364320,-0.021820,-0.230680,0.111820,-0.198860,0.125000,0.332500,0.125000,0.364320,0.111820,0.364320,0.111820,$1*%
%AMFreePoly6*
4,1,14,0.111820,0.364320,0.125000,0.332500,0.125000,-0.198860,0.111820,-0.230680,-0.021820,-0.364320,-0.053640,-0.377500,-0.080000,-0.377500,-0.111820,-0.364320,-0.125000,-0.332500,-0.125000,0.332500,-0.111820,0.364320,-0.080000,0.377500,0.080000,0.377500,0.111820,0.364320,0.111820,0.364320,$1*%
%AMFreePoly7*
4,1,14,0.111820,0.364320,0.125000,0.332500,0.125000,-0.332500,0.111820,-0.364320,0.080000,-0.377500,0.053640,-0.377500,0.021820,-0.364320,-0.111820,-0.230680,-0.125000,-0.198860,-0.125000,0.332500,-0.111820,0.364320,-0.080000,0.377500,0.080000,0.377500,0.111820,0.364320,0.111820,0.364320,$1*%
G04 Aperture macros list end*
%ADD10RoundRect,0.140000X0.170000X-0.140000X0.170000X0.140000X-0.170000X0.140000X-0.170000X-0.140000X0*%
%ADD11RoundRect,0.250000X0.475000X-0.250000X0.475000X0.250000X-0.475000X0.250000X-0.475000X-0.250000X0*%
%ADD12FreePoly0,180.000000*%
%ADD13RoundRect,0.062500X0.375000X0.062500X-0.375000X0.062500X-0.375000X-0.062500X0.375000X-0.062500X0*%
%ADD14FreePoly1,180.000000*%
%ADD15FreePoly2,180.000000*%
%ADD16RoundRect,0.062500X0.062500X0.375000X-0.062500X0.375000X-0.062500X-0.375000X0.062500X-0.375000X0*%
%ADD17FreePoly3,180.000000*%
%ADD18FreePoly4,180.000000*%
%ADD19FreePoly5,180.000000*%
%ADD20FreePoly6,180.000000*%
%ADD21FreePoly7,180.000000*%
%ADD22RoundRect,0.135000X0.185000X-0.135000X0.185000X0.135000X-0.185000X0.135000X-0.185000X-0.135000X0*%
%ADD23C,0.650000*%
%ADD24R,1.145000X0.600000*%
%ADD25R,1.240000X0.300000*%
%ADD26O,2.100000X1.000000*%
%ADD27O,1.800000X1.000000*%
%ADD28RoundRect,0.135000X-0.185000X0.135000X-0.185000X-0.135000X0.185000X-0.135000X0.185000X0.135000X0*%
%ADD29O,0.860000X0.770000*%
%ADD30RoundRect,0.250000X-0.250000X-0.475000X0.250000X-0.475000X0.250000X0.475000X-0.250000X0.475000X0*%
%ADD31RoundRect,0.135000X0.135000X0.185000X-0.135000X0.185000X-0.135000X-0.185000X0.135000X-0.185000X0*%
%ADD32R,1.700000X1.700000*%
%ADD33O,1.700000X1.700000*%
%ADD34RoundRect,0.140000X-0.170000X0.140000X-0.170000X-0.140000X0.170000X-0.140000X0.170000X0.140000X0*%
%ADD35RoundRect,0.135000X-0.135000X-0.185000X0.135000X-0.185000X0.135000X0.185000X-0.135000X0.185000X0*%
%ADD36RoundRect,0.150000X0.512500X0.150000X-0.512500X0.150000X-0.512500X-0.150000X0.512500X-0.150000X0*%
%ADD37RoundRect,0.218750X0.256250X-0.218750X0.256250X0.218750X-0.256250X0.218750X-0.256250X-0.218750X0*%
%ADD38RoundRect,0.175000X-0.325000X0.175000X-0.325000X-0.175000X0.325000X-0.175000X0.325000X0.175000X0*%
%ADD39RoundRect,0.150000X-0.150000X0.200000X-0.150000X-0.200000X0.150000X-0.200000X0.150000X0.200000X0*%
%ADD40R,0.850000X0.850000*%
%ADD41RoundRect,0.250000X-0.475000X0.250000X-0.475000X-0.250000X0.475000X-0.250000X0.475000X0.250000X0*%
G04 APERTURE END LIST*
D10*
%TO.C,C2*%
X101854000Y-66012000D03*
X101854000Y-65052000D03*
%TD*%
D11*
%TO.C,C5*%
X103660000Y-66924000D03*
X103660000Y-65024000D03*
%TD*%
D12*
%TO.C,U1*%
X100295500Y-66500000D03*
D13*
X100235500Y-66000000D03*
X100235500Y-65500000D03*
X100235500Y-65000000D03*
X100235500Y-64500000D03*
X100235500Y-64000000D03*
D14*
X100295500Y-63500000D03*
D15*
X99798000Y-63002500D03*
D16*
X99298000Y-63062500D03*
X98798000Y-63062500D03*
X98298000Y-63062500D03*
X97798000Y-63062500D03*
X97298000Y-63062500D03*
D17*
X96798000Y-63002500D03*
D18*
X96300500Y-63500000D03*
D13*
X96360500Y-64000000D03*
X96360500Y-64500000D03*
X96360500Y-65000000D03*
X96360500Y-65500000D03*
X96360500Y-66000000D03*
D19*
X96300500Y-66500000D03*
D20*
X96798000Y-66997500D03*
D16*
X97298000Y-66937500D03*
X97798000Y-66937500D03*
X98298000Y-66937500D03*
X98798000Y-66937500D03*
X99298000Y-66937500D03*
D21*
X99798000Y-66997500D03*
%TD*%
D22*
%TO.C,R3*%
X88500000Y-63758000D03*
X88500000Y-62738000D03*
%TD*%
D23*
%TO.C,J1*%
X85255000Y-62110000D03*
X85255000Y-67890000D03*
D24*
X86422500Y-61800000D03*
X86422500Y-62600000D03*
D25*
X86375000Y-63750000D03*
X86375000Y-64750000D03*
X86375000Y-65250000D03*
X86375000Y-66250000D03*
D24*
X86422500Y-67400000D03*
X86422500Y-68200000D03*
X86422500Y-68200000D03*
X86422500Y-67400000D03*
D25*
X86375000Y-66750000D03*
X86375000Y-65750000D03*
X86375000Y-64250000D03*
X86375000Y-63250000D03*
D24*
X86422500Y-62600000D03*
X86422500Y-61800000D03*
D26*
X85775000Y-60680000D03*
D27*
X81575000Y-60680000D03*
D26*
X85775000Y-69320000D03*
D27*
X81575000Y-69320000D03*
%TD*%
D28*
%TO.C,R7*%
X91600000Y-68590000D03*
X91600000Y-69610000D03*
%TD*%
D29*
%TO.C,J5*%
X93900000Y-67300000D03*
X93900000Y-68300000D03*
%TD*%
D30*
%TO.C,C3*%
X108204000Y-67818000D03*
X110104000Y-67818000D03*
%TD*%
D31*
%TO.C,R1*%
X113510000Y-69342000D03*
X112490000Y-69342000D03*
%TD*%
D32*
%TO.C,J2*%
X82804000Y-72644000D03*
D33*
X85344000Y-72644000D03*
X87884000Y-72644000D03*
X90424000Y-72644000D03*
X92964000Y-72644000D03*
X95504000Y-72644000D03*
X98044000Y-72644000D03*
X100584000Y-72644000D03*
X103124000Y-72644000D03*
X105664000Y-72644000D03*
X108204000Y-72644000D03*
X110744000Y-72644000D03*
X113284000Y-72644000D03*
X115824000Y-72644000D03*
%TD*%
D32*
%TO.C,J4*%
X115824000Y-57500000D03*
D33*
X113284000Y-57500000D03*
X110744000Y-57500000D03*
X108204000Y-57500000D03*
X105664000Y-57500000D03*
X103124000Y-57500000D03*
X100584000Y-57500000D03*
X98044000Y-57500000D03*
X95504000Y-57500000D03*
X92964000Y-57500000D03*
X90424000Y-57500000D03*
X87884000Y-57500000D03*
X85344000Y-57500000D03*
X82804000Y-57500000D03*
%TD*%
D34*
%TO.C,C7*%
X106172000Y-65842000D03*
X106172000Y-66802000D03*
%TD*%
D35*
%TO.C,R4*%
X90480000Y-66900000D03*
X91500000Y-66900000D03*
%TD*%
D36*
%TO.C,U3*%
X110500000Y-65718000D03*
X110500000Y-64768000D03*
X110500000Y-63818000D03*
X108225000Y-63818000D03*
X108225000Y-65718000D03*
%TD*%
D37*
%TO.C,D1*%
X115500000Y-69325000D03*
X115500000Y-67750000D03*
%TD*%
D38*
%TO.C,D2*%
X92460000Y-63246000D03*
D39*
X90760000Y-63246000D03*
X90760000Y-65246000D03*
X92660000Y-65246000D03*
%TD*%
D31*
%TO.C,R6*%
X109982000Y-62230000D03*
X108962000Y-62230000D03*
%TD*%
D34*
%TO.C,C6*%
X106172000Y-63556000D03*
X106172000Y-64516000D03*
%TD*%
D40*
%TO.C,J3*%
X115570000Y-61214000D03*
%TD*%
D37*
%TO.C,D3*%
X115500000Y-65825000D03*
X115500000Y-64250000D03*
%TD*%
D28*
%TO.C,R2*%
X88500000Y-66798000D03*
X88500000Y-67818000D03*
%TD*%
D10*
%TO.C,C4*%
X94742000Y-64460000D03*
X94742000Y-63500000D03*
%TD*%
D31*
%TO.C,R5*%
X113500000Y-66548000D03*
X112480000Y-66548000D03*
%TD*%
D41*
%TO.C,C1*%
X112975000Y-62850000D03*
X112975000Y-64750000D03*
%TD*%
M02*
