M48
; DRILL file {KiCad 8.0.8} date 2025-02-15T19:49:39+0000
; FORMAT={-:-/ absolute / metric / decimal}
; #@! TF.CreationDate,2025-02-15T19:49:39+00:00
; #@! TF.GenerationSoftware,Kicad,Pcbnew,8.0.8
; #@! TF.FileFunction,Plated,1,2,PTH
FMAT,2
METRIC
; #@! TA.AperFunction,Plated,PTH,ViaDrill
T1C0.300
; #@! TA.AperFunction,Plated,PTH,ComponentDrill
T2C0.500
; #@! TA.AperFunction,Plated,PTH,ComponentDrill
T3C0.600
; #@! TA.AperFunction,Plated,PTH,ComponentDrill
T4C1.000
%
G90
G05
T1
X80.985Y-57.658
X80.985Y-62.738
X80.985Y-65.278
X80.985Y-67.818
X80.985Y-72.898
X83.525Y-60.198
X83.525Y-62.738
X83.525Y-65.278
X83.525Y-67.818
X83.525Y-70.358
X88.138Y-60.96
X89.408Y-67.818
X89.662Y-63.246
X90.5Y-67.9
X91.186Y-62.23
X92.456Y-64.262
X92.6Y-69.6
X94.234Y-62.992
X95.1Y-66.486
X98.806Y-64.516
X101.933Y-66.977
X105.156Y-64.516
X105.156Y-66.802
X110.998Y-62.484
X111.506Y-66.802
X111.506Y-67.818
T2
X93.9Y-67.3
X93.9Y-68.3
X115.57Y-61.214
T4
X82.804Y-57.5
X82.804Y-72.644
X85.344Y-57.5
X85.344Y-72.644
X87.884Y-57.5
X87.884Y-72.644
X90.424Y-57.5
X90.424Y-72.644
X92.964Y-57.5
X92.964Y-72.644
X95.504Y-57.5
X95.504Y-72.644
X98.044Y-57.5
X98.044Y-72.644
X100.584Y-57.5
X100.584Y-72.644
X103.124Y-57.5
X103.124Y-72.644
X105.664Y-57.5
X105.664Y-72.644
X108.204Y-57.5
X108.204Y-72.644
X110.744Y-57.5
X110.744Y-72.644
X113.284Y-57.5
X113.284Y-72.644
X115.824Y-57.5
X115.824Y-72.644
T3
X81.975Y-60.68G85X81.175Y-60.68
G05
X81.975Y-69.32G85X81.175Y-69.32
G05
X86.325Y-60.68G85X85.225Y-60.68
G05
X86.325Y-69.32G85X85.225Y-69.32
G05
M30
