%TF.GenerationSoftware,KiCad,Pcbnew,8.0.8*%
%TF.CreationDate,2025-02-10T14:02:50+00:00*%
%TF.ProjectId,stm32c071devboard,73746d33-3263-4303-9731-646576626f61,rev?*%
%TF.SameCoordinates,Original*%
%TF.FileFunction,Legend,Top*%
%TF.FilePolarity,Positive*%
%FSLAX46Y46*%
G04 Gerber Fmt 4.6, Leading zero omitted, Abs format (unit mm)*
G04 Created by KiCad (PCBNEW 8.0.8) date 2025-02-10 14:02:50*
%MOMM*%
%LPD*%
G01*
G04 APERTURE LIST*
G04 Aperture macros list*
%AMRoundRect*
0 Rectangle with rounded corners*
0 $1 Rounding radius*
0 $2 $3 $4 $5 $6 $7 $8 $9 X,Y pos of 4 corners*
0 Add a 4 corners polygon primitive as box body*
4,1,4,$2,$3,$4,$5,$6,$7,$8,$9,$2,$3,0*
0 Add four circle primitives for the rounded corners*
1,1,$1+$1,$2,$3*
1,1,$1+$1,$4,$5*
1,1,$1+$1,$6,$7*
1,1,$1+$1,$8,$9*
0 Add four rect primitives between the rounded corners*
20,1,$1+$1,$2,$3,$4,$5,0*
20,1,$1+$1,$4,$5,$6,$7,0*
20,1,$1+$1,$6,$7,$8,$9,0*
20,1,$1+$1,$8,$9,$2,$3,0*%
%AMFreePoly0*
4,1,14,0.230680,0.111820,0.364320,-0.021820,0.377500,-0.053640,0.377500,-0.080000,0.364320,-0.111820,0.332500,-0.125000,-0.332500,-0.125000,-0.364320,-0.111820,-0.377500,-0.080000,-0.377500,0.080000,-0.364320,0.111820,-0.332500,0.125000,0.198860,0.125000,0.230680,0.111820,0.230680,0.111820,$1*%
%AMFreePoly1*
4,1,14,0.364320,0.111820,0.377500,0.080000,0.377500,0.053640,0.364320,0.021820,0.230680,-0.111820,0.198860,-0.125000,-0.332500,-0.125000,-0.364320,-0.111820,-0.377500,-0.080000,-0.377500,0.080000,-0.364320,0.111820,-0.332500,0.125000,0.332500,0.125000,0.364320,0.111820,0.364320,0.111820,$1*%
%AMFreePoly2*
4,1,14,0.111820,0.364320,0.125000,0.332500,0.125000,-0.332500,0.111820,-0.364320,0.080000,-0.377500,-0.080000,-0.377500,-0.111820,-0.364320,-0.125000,-0.332500,-0.125000,0.198860,-0.111820,0.230680,0.021820,0.364320,0.053640,0.377500,0.080000,0.377500,0.111820,0.364320,0.111820,0.364320,$1*%
%AMFreePoly3*
4,1,14,-0.021820,0.364320,0.111820,0.230680,0.125000,0.198860,0.125000,-0.332500,0.111820,-0.364320,0.080000,-0.377500,-0.080000,-0.377500,-0.111820,-0.364320,-0.125000,-0.332500,-0.125000,0.332500,-0.111820,0.364320,-0.080000,0.377500,-0.053640,0.377500,-0.021820,0.364320,-0.021820,0.364320,$1*%
%AMFreePoly4*
4,1,14,0.364320,0.111820,0.377500,0.080000,0.377500,-0.080000,0.364320,-0.111820,0.332500,-0.125000,-0.198860,-0.125000,-0.230680,-0.111820,-0.364320,0.021820,-0.377500,0.053640,-0.377500,0.080000,-0.364320,0.111820,-0.332500,0.125000,0.332500,0.125000,0.364320,0.111820,0.364320,0.111820,$1*%
%AMFreePoly5*
4,1,14,0.364320,0.111820,0.377500,0.080000,0.377500,-0.080000,0.364320,-0.111820,0.332500,-0.125000,-0.332500,-0.125000,-0.364320,-0.111820,-0.377500,-0.080000,-0.377500,-0.053640,-0.364320,-0.021820,-0.230680,0.111820,-0.198860,0.125000,0.332500,0.125000,0.364320,0.111820,0.364320,0.111820,$1*%
%AMFreePoly6*
4,1,14,0.111820,0.364320,0.125000,0.332500,0.125000,-0.198860,0.111820,-0.230680,-0.021820,-0.364320,-0.053640,-0.377500,-0.080000,-0.377500,-0.111820,-0.364320,-0.125000,-0.332500,-0.125000,0.332500,-0.111820,0.364320,-0.080000,0.377500,0.080000,0.377500,0.111820,0.364320,0.111820,0.364320,$1*%
%AMFreePoly7*
4,1,14,0.111820,0.364320,0.125000,0.332500,0.125000,-0.332500,0.111820,-0.364320,0.080000,-0.377500,0.053640,-0.377500,0.021820,-0.364320,-0.111820,-0.230680,-0.125000,-0.198860,-0.125000,0.332500,-0.111820,0.364320,-0.080000,0.377500,0.080000,0.377500,0.111820,0.364320,0.111820,0.364320,$1*%
G04 Aperture macros list end*
%ADD10C,0.100000*%
%ADD11C,0.700000*%
%ADD12C,0.200000*%
%ADD13C,0.150000*%
%ADD14C,0.120000*%
%ADD15RoundRect,0.140000X0.170000X-0.140000X0.170000X0.140000X-0.170000X0.140000X-0.170000X-0.140000X0*%
%ADD16RoundRect,0.250000X0.475000X-0.250000X0.475000X0.250000X-0.475000X0.250000X-0.475000X-0.250000X0*%
%ADD17FreePoly0,180.000000*%
%ADD18RoundRect,0.062500X0.375000X0.062500X-0.375000X0.062500X-0.375000X-0.062500X0.375000X-0.062500X0*%
%ADD19FreePoly1,180.000000*%
%ADD20FreePoly2,180.000000*%
%ADD21RoundRect,0.062500X0.062500X0.375000X-0.062500X0.375000X-0.062500X-0.375000X0.062500X-0.375000X0*%
%ADD22FreePoly3,180.000000*%
%ADD23FreePoly4,180.000000*%
%ADD24FreePoly5,180.000000*%
%ADD25FreePoly6,180.000000*%
%ADD26FreePoly7,180.000000*%
%ADD27RoundRect,0.135000X0.185000X-0.135000X0.185000X0.135000X-0.185000X0.135000X-0.185000X-0.135000X0*%
%ADD28C,0.650000*%
%ADD29R,1.145000X0.600000*%
%ADD30R,1.240000X0.300000*%
%ADD31O,2.100000X1.000000*%
%ADD32O,1.800000X1.000000*%
%ADD33RoundRect,0.135000X-0.185000X0.135000X-0.185000X-0.135000X0.185000X-0.135000X0.185000X0.135000X0*%
%ADD34O,0.860000X0.770000*%
%ADD35RoundRect,0.250000X-0.250000X-0.475000X0.250000X-0.475000X0.250000X0.475000X-0.250000X0.475000X0*%
%ADD36RoundRect,0.135000X0.135000X0.185000X-0.135000X0.185000X-0.135000X-0.185000X0.135000X-0.185000X0*%
%ADD37R,1.700000X1.700000*%
%ADD38O,1.700000X1.700000*%
%ADD39RoundRect,0.140000X-0.170000X0.140000X-0.170000X-0.140000X0.170000X-0.140000X0.170000X0.140000X0*%
%ADD40RoundRect,0.150000X0.512500X0.150000X-0.512500X0.150000X-0.512500X-0.150000X0.512500X-0.150000X0*%
%ADD41RoundRect,0.218750X0.256250X-0.218750X0.256250X0.218750X-0.256250X0.218750X-0.256250X-0.218750X0*%
%ADD42RoundRect,0.175000X-0.325000X0.175000X-0.325000X-0.175000X0.325000X-0.175000X0.325000X0.175000X0*%
%ADD43RoundRect,0.150000X-0.150000X0.200000X-0.150000X-0.200000X0.150000X-0.200000X0.150000X0.200000X0*%
%ADD44R,0.850000X0.850000*%
%ADD45RoundRect,0.250000X-0.475000X0.250000X-0.475000X-0.250000X0.475000X-0.250000X0.475000X0.250000X0*%
G04 APERTURE END LIST*
D10*
X95520000Y-68840000D02*
G75*
G02*
X94352454Y-68840000I-583773J0D01*
G01*
X94352454Y-68840000D02*
G75*
G02*
X95520000Y-68840000I583773J0D01*
G01*
X96950000Y-68850000D02*
G75*
G02*
X95782454Y-68850000I-583773J0D01*
G01*
X95782454Y-68850000D02*
G75*
G02*
X96950000Y-68850000I583773J0D01*
G01*
X96980000Y-70310000D02*
G75*
G02*
X95812454Y-70310000I-583773J0D01*
G01*
X95812454Y-70310000D02*
G75*
G02*
X96980000Y-70310000I583773J0D01*
G01*
D11*
X94966227Y-70300000D02*
X96396227Y-70310000D01*
D10*
X95550000Y-70300000D02*
G75*
G02*
X94382454Y-70300000I-583773J0D01*
G01*
X94382454Y-70300000D02*
G75*
G02*
X95550000Y-70300000I583773J0D01*
G01*
D12*
X97869233Y-68643465D02*
X97535900Y-68643465D01*
X97535900Y-69167275D02*
X97535900Y-68167275D01*
X97535900Y-68167275D02*
X98012090Y-68167275D01*
X98869233Y-69167275D02*
X98393043Y-69167275D01*
X98393043Y-69167275D02*
X98393043Y-68167275D01*
X99154948Y-68881560D02*
X99631138Y-68881560D01*
X99059710Y-69167275D02*
X99393043Y-68167275D01*
X99393043Y-68167275D02*
X99726376Y-69167275D01*
X100012091Y-69119656D02*
X100154948Y-69167275D01*
X100154948Y-69167275D02*
X100393043Y-69167275D01*
X100393043Y-69167275D02*
X100488281Y-69119656D01*
X100488281Y-69119656D02*
X100535900Y-69072036D01*
X100535900Y-69072036D02*
X100583519Y-68976798D01*
X100583519Y-68976798D02*
X100583519Y-68881560D01*
X100583519Y-68881560D02*
X100535900Y-68786322D01*
X100535900Y-68786322D02*
X100488281Y-68738703D01*
X100488281Y-68738703D02*
X100393043Y-68691084D01*
X100393043Y-68691084D02*
X100202567Y-68643465D01*
X100202567Y-68643465D02*
X100107329Y-68595846D01*
X100107329Y-68595846D02*
X100059710Y-68548227D01*
X100059710Y-68548227D02*
X100012091Y-68452989D01*
X100012091Y-68452989D02*
X100012091Y-68357751D01*
X100012091Y-68357751D02*
X100059710Y-68262513D01*
X100059710Y-68262513D02*
X100107329Y-68214894D01*
X100107329Y-68214894D02*
X100202567Y-68167275D01*
X100202567Y-68167275D02*
X100440662Y-68167275D01*
X100440662Y-68167275D02*
X100583519Y-68214894D01*
X101012091Y-69167275D02*
X101012091Y-68167275D01*
X101012091Y-68643465D02*
X101583519Y-68643465D01*
X101583519Y-69167275D02*
X101583519Y-68167275D01*
X97869233Y-70253409D02*
X98012090Y-70301028D01*
X98012090Y-70301028D02*
X98059709Y-70348647D01*
X98059709Y-70348647D02*
X98107328Y-70443885D01*
X98107328Y-70443885D02*
X98107328Y-70586742D01*
X98107328Y-70586742D02*
X98059709Y-70681980D01*
X98059709Y-70681980D02*
X98012090Y-70729600D01*
X98012090Y-70729600D02*
X97916852Y-70777219D01*
X97916852Y-70777219D02*
X97535900Y-70777219D01*
X97535900Y-70777219D02*
X97535900Y-69777219D01*
X97535900Y-69777219D02*
X97869233Y-69777219D01*
X97869233Y-69777219D02*
X97964471Y-69824838D01*
X97964471Y-69824838D02*
X98012090Y-69872457D01*
X98012090Y-69872457D02*
X98059709Y-69967695D01*
X98059709Y-69967695D02*
X98059709Y-70062933D01*
X98059709Y-70062933D02*
X98012090Y-70158171D01*
X98012090Y-70158171D02*
X97964471Y-70205790D01*
X97964471Y-70205790D02*
X97869233Y-70253409D01*
X97869233Y-70253409D02*
X97535900Y-70253409D01*
X98726376Y-69777219D02*
X98916852Y-69777219D01*
X98916852Y-69777219D02*
X99012090Y-69824838D01*
X99012090Y-69824838D02*
X99107328Y-69920076D01*
X99107328Y-69920076D02*
X99154947Y-70110552D01*
X99154947Y-70110552D02*
X99154947Y-70443885D01*
X99154947Y-70443885D02*
X99107328Y-70634361D01*
X99107328Y-70634361D02*
X99012090Y-70729600D01*
X99012090Y-70729600D02*
X98916852Y-70777219D01*
X98916852Y-70777219D02*
X98726376Y-70777219D01*
X98726376Y-70777219D02*
X98631138Y-70729600D01*
X98631138Y-70729600D02*
X98535900Y-70634361D01*
X98535900Y-70634361D02*
X98488281Y-70443885D01*
X98488281Y-70443885D02*
X98488281Y-70110552D01*
X98488281Y-70110552D02*
X98535900Y-69920076D01*
X98535900Y-69920076D02*
X98631138Y-69824838D01*
X98631138Y-69824838D02*
X98726376Y-69777219D01*
X99773995Y-69777219D02*
X99964471Y-69777219D01*
X99964471Y-69777219D02*
X100059709Y-69824838D01*
X100059709Y-69824838D02*
X100154947Y-69920076D01*
X100154947Y-69920076D02*
X100202566Y-70110552D01*
X100202566Y-70110552D02*
X100202566Y-70443885D01*
X100202566Y-70443885D02*
X100154947Y-70634361D01*
X100154947Y-70634361D02*
X100059709Y-70729600D01*
X100059709Y-70729600D02*
X99964471Y-70777219D01*
X99964471Y-70777219D02*
X99773995Y-70777219D01*
X99773995Y-70777219D02*
X99678757Y-70729600D01*
X99678757Y-70729600D02*
X99583519Y-70634361D01*
X99583519Y-70634361D02*
X99535900Y-70443885D01*
X99535900Y-70443885D02*
X99535900Y-70110552D01*
X99535900Y-70110552D02*
X99583519Y-69920076D01*
X99583519Y-69920076D02*
X99678757Y-69824838D01*
X99678757Y-69824838D02*
X99773995Y-69777219D01*
X100488281Y-69777219D02*
X101059709Y-69777219D01*
X100773995Y-70777219D02*
X100773995Y-69777219D01*
X101869233Y-70777219D02*
X101393043Y-70777219D01*
X101393043Y-70777219D02*
X101393043Y-69777219D01*
D13*
X101814333Y-64113580D02*
X101766714Y-64161200D01*
X101766714Y-64161200D02*
X101623857Y-64208819D01*
X101623857Y-64208819D02*
X101528619Y-64208819D01*
X101528619Y-64208819D02*
X101385762Y-64161200D01*
X101385762Y-64161200D02*
X101290524Y-64065961D01*
X101290524Y-64065961D02*
X101242905Y-63970723D01*
X101242905Y-63970723D02*
X101195286Y-63780247D01*
X101195286Y-63780247D02*
X101195286Y-63637390D01*
X101195286Y-63637390D02*
X101242905Y-63446914D01*
X101242905Y-63446914D02*
X101290524Y-63351676D01*
X101290524Y-63351676D02*
X101385762Y-63256438D01*
X101385762Y-63256438D02*
X101528619Y-63208819D01*
X101528619Y-63208819D02*
X101623857Y-63208819D01*
X101623857Y-63208819D02*
X101766714Y-63256438D01*
X101766714Y-63256438D02*
X101814333Y-63304057D01*
X102195286Y-63304057D02*
X102242905Y-63256438D01*
X102242905Y-63256438D02*
X102338143Y-63208819D01*
X102338143Y-63208819D02*
X102576238Y-63208819D01*
X102576238Y-63208819D02*
X102671476Y-63256438D01*
X102671476Y-63256438D02*
X102719095Y-63304057D01*
X102719095Y-63304057D02*
X102766714Y-63399295D01*
X102766714Y-63399295D02*
X102766714Y-63494533D01*
X102766714Y-63494533D02*
X102719095Y-63637390D01*
X102719095Y-63637390D02*
X102147667Y-64208819D01*
X102147667Y-64208819D02*
X102766714Y-64208819D01*
X103465333Y-68939580D02*
X103417714Y-68987200D01*
X103417714Y-68987200D02*
X103274857Y-69034819D01*
X103274857Y-69034819D02*
X103179619Y-69034819D01*
X103179619Y-69034819D02*
X103036762Y-68987200D01*
X103036762Y-68987200D02*
X102941524Y-68891961D01*
X102941524Y-68891961D02*
X102893905Y-68796723D01*
X102893905Y-68796723D02*
X102846286Y-68606247D01*
X102846286Y-68606247D02*
X102846286Y-68463390D01*
X102846286Y-68463390D02*
X102893905Y-68272914D01*
X102893905Y-68272914D02*
X102941524Y-68177676D01*
X102941524Y-68177676D02*
X103036762Y-68082438D01*
X103036762Y-68082438D02*
X103179619Y-68034819D01*
X103179619Y-68034819D02*
X103274857Y-68034819D01*
X103274857Y-68034819D02*
X103417714Y-68082438D01*
X103417714Y-68082438D02*
X103465333Y-68130057D01*
X104370095Y-68034819D02*
X103893905Y-68034819D01*
X103893905Y-68034819D02*
X103846286Y-68511009D01*
X103846286Y-68511009D02*
X103893905Y-68463390D01*
X103893905Y-68463390D02*
X103989143Y-68415771D01*
X103989143Y-68415771D02*
X104227238Y-68415771D01*
X104227238Y-68415771D02*
X104322476Y-68463390D01*
X104322476Y-68463390D02*
X104370095Y-68511009D01*
X104370095Y-68511009D02*
X104417714Y-68606247D01*
X104417714Y-68606247D02*
X104417714Y-68844342D01*
X104417714Y-68844342D02*
X104370095Y-68939580D01*
X104370095Y-68939580D02*
X104322476Y-68987200D01*
X104322476Y-68987200D02*
X104227238Y-69034819D01*
X104227238Y-69034819D02*
X103989143Y-69034819D01*
X103989143Y-69034819D02*
X103893905Y-68987200D01*
X103893905Y-68987200D02*
X103846286Y-68939580D01*
X97588095Y-61304819D02*
X97588095Y-62114342D01*
X97588095Y-62114342D02*
X97635714Y-62209580D01*
X97635714Y-62209580D02*
X97683333Y-62257200D01*
X97683333Y-62257200D02*
X97778571Y-62304819D01*
X97778571Y-62304819D02*
X97969047Y-62304819D01*
X97969047Y-62304819D02*
X98064285Y-62257200D01*
X98064285Y-62257200D02*
X98111904Y-62209580D01*
X98111904Y-62209580D02*
X98159523Y-62114342D01*
X98159523Y-62114342D02*
X98159523Y-61304819D01*
X99159523Y-62304819D02*
X98588095Y-62304819D01*
X98873809Y-62304819D02*
X98873809Y-61304819D01*
X98873809Y-61304819D02*
X98778571Y-61447676D01*
X98778571Y-61447676D02*
X98683333Y-61542914D01*
X98683333Y-61542914D02*
X98588095Y-61590533D01*
X88187333Y-65478819D02*
X87854000Y-65002628D01*
X87615905Y-65478819D02*
X87615905Y-64478819D01*
X87615905Y-64478819D02*
X87996857Y-64478819D01*
X87996857Y-64478819D02*
X88092095Y-64526438D01*
X88092095Y-64526438D02*
X88139714Y-64574057D01*
X88139714Y-64574057D02*
X88187333Y-64669295D01*
X88187333Y-64669295D02*
X88187333Y-64812152D01*
X88187333Y-64812152D02*
X88139714Y-64907390D01*
X88139714Y-64907390D02*
X88092095Y-64955009D01*
X88092095Y-64955009D02*
X87996857Y-65002628D01*
X87996857Y-65002628D02*
X87615905Y-65002628D01*
X88520667Y-64478819D02*
X89139714Y-64478819D01*
X89139714Y-64478819D02*
X88806381Y-64859771D01*
X88806381Y-64859771D02*
X88949238Y-64859771D01*
X88949238Y-64859771D02*
X89044476Y-64907390D01*
X89044476Y-64907390D02*
X89092095Y-64955009D01*
X89092095Y-64955009D02*
X89139714Y-65050247D01*
X89139714Y-65050247D02*
X89139714Y-65288342D01*
X89139714Y-65288342D02*
X89092095Y-65383580D01*
X89092095Y-65383580D02*
X89044476Y-65431200D01*
X89044476Y-65431200D02*
X88949238Y-65478819D01*
X88949238Y-65478819D02*
X88663524Y-65478819D01*
X88663524Y-65478819D02*
X88568286Y-65431200D01*
X88568286Y-65431200D02*
X88520667Y-65383580D01*
X87916666Y-60454819D02*
X87916666Y-61169104D01*
X87916666Y-61169104D02*
X87869047Y-61311961D01*
X87869047Y-61311961D02*
X87773809Y-61407200D01*
X87773809Y-61407200D02*
X87630952Y-61454819D01*
X87630952Y-61454819D02*
X87535714Y-61454819D01*
X88916666Y-61454819D02*
X88345238Y-61454819D01*
X88630952Y-61454819D02*
X88630952Y-60454819D01*
X88630952Y-60454819D02*
X88535714Y-60597676D01*
X88535714Y-60597676D02*
X88440476Y-60692914D01*
X88440476Y-60692914D02*
X88345238Y-60740533D01*
X89083333Y-70914819D02*
X88750000Y-70438628D01*
X88511905Y-70914819D02*
X88511905Y-69914819D01*
X88511905Y-69914819D02*
X88892857Y-69914819D01*
X88892857Y-69914819D02*
X88988095Y-69962438D01*
X88988095Y-69962438D02*
X89035714Y-70010057D01*
X89035714Y-70010057D02*
X89083333Y-70105295D01*
X89083333Y-70105295D02*
X89083333Y-70248152D01*
X89083333Y-70248152D02*
X89035714Y-70343390D01*
X89035714Y-70343390D02*
X88988095Y-70391009D01*
X88988095Y-70391009D02*
X88892857Y-70438628D01*
X88892857Y-70438628D02*
X88511905Y-70438628D01*
X89416667Y-69914819D02*
X90083333Y-69914819D01*
X90083333Y-69914819D02*
X89654762Y-70914819D01*
X92686666Y-69384819D02*
X92686666Y-70099104D01*
X92686666Y-70099104D02*
X92639047Y-70241961D01*
X92639047Y-70241961D02*
X92543809Y-70337200D01*
X92543809Y-70337200D02*
X92400952Y-70384819D01*
X92400952Y-70384819D02*
X92305714Y-70384819D01*
X93639047Y-69384819D02*
X93162857Y-69384819D01*
X93162857Y-69384819D02*
X93115238Y-69861009D01*
X93115238Y-69861009D02*
X93162857Y-69813390D01*
X93162857Y-69813390D02*
X93258095Y-69765771D01*
X93258095Y-69765771D02*
X93496190Y-69765771D01*
X93496190Y-69765771D02*
X93591428Y-69813390D01*
X93591428Y-69813390D02*
X93639047Y-69861009D01*
X93639047Y-69861009D02*
X93686666Y-69956247D01*
X93686666Y-69956247D02*
X93686666Y-70194342D01*
X93686666Y-70194342D02*
X93639047Y-70289580D01*
X93639047Y-70289580D02*
X93591428Y-70337200D01*
X93591428Y-70337200D02*
X93496190Y-70384819D01*
X93496190Y-70384819D02*
X93258095Y-70384819D01*
X93258095Y-70384819D02*
X93162857Y-70337200D01*
X93162857Y-70337200D02*
X93115238Y-70289580D01*
X108583333Y-69859580D02*
X108535714Y-69907200D01*
X108535714Y-69907200D02*
X108392857Y-69954819D01*
X108392857Y-69954819D02*
X108297619Y-69954819D01*
X108297619Y-69954819D02*
X108154762Y-69907200D01*
X108154762Y-69907200D02*
X108059524Y-69811961D01*
X108059524Y-69811961D02*
X108011905Y-69716723D01*
X108011905Y-69716723D02*
X107964286Y-69526247D01*
X107964286Y-69526247D02*
X107964286Y-69383390D01*
X107964286Y-69383390D02*
X108011905Y-69192914D01*
X108011905Y-69192914D02*
X108059524Y-69097676D01*
X108059524Y-69097676D02*
X108154762Y-69002438D01*
X108154762Y-69002438D02*
X108297619Y-68954819D01*
X108297619Y-68954819D02*
X108392857Y-68954819D01*
X108392857Y-68954819D02*
X108535714Y-69002438D01*
X108535714Y-69002438D02*
X108583333Y-69050057D01*
X108916667Y-68954819D02*
X109535714Y-68954819D01*
X109535714Y-68954819D02*
X109202381Y-69335771D01*
X109202381Y-69335771D02*
X109345238Y-69335771D01*
X109345238Y-69335771D02*
X109440476Y-69383390D01*
X109440476Y-69383390D02*
X109488095Y-69431009D01*
X109488095Y-69431009D02*
X109535714Y-69526247D01*
X109535714Y-69526247D02*
X109535714Y-69764342D01*
X109535714Y-69764342D02*
X109488095Y-69859580D01*
X109488095Y-69859580D02*
X109440476Y-69907200D01*
X109440476Y-69907200D02*
X109345238Y-69954819D01*
X109345238Y-69954819D02*
X109059524Y-69954819D01*
X109059524Y-69954819D02*
X108964286Y-69907200D01*
X108964286Y-69907200D02*
X108916667Y-69859580D01*
X111083333Y-69954819D02*
X110750000Y-69478628D01*
X110511905Y-69954819D02*
X110511905Y-68954819D01*
X110511905Y-68954819D02*
X110892857Y-68954819D01*
X110892857Y-68954819D02*
X110988095Y-69002438D01*
X110988095Y-69002438D02*
X111035714Y-69050057D01*
X111035714Y-69050057D02*
X111083333Y-69145295D01*
X111083333Y-69145295D02*
X111083333Y-69288152D01*
X111083333Y-69288152D02*
X111035714Y-69383390D01*
X111035714Y-69383390D02*
X110988095Y-69431009D01*
X110988095Y-69431009D02*
X110892857Y-69478628D01*
X110892857Y-69478628D02*
X110511905Y-69478628D01*
X112035714Y-69954819D02*
X111464286Y-69954819D01*
X111750000Y-69954819D02*
X111750000Y-68954819D01*
X111750000Y-68954819D02*
X111654762Y-69097676D01*
X111654762Y-69097676D02*
X111559524Y-69192914D01*
X111559524Y-69192914D02*
X111464286Y-69240533D01*
X79972819Y-72977333D02*
X80687104Y-72977333D01*
X80687104Y-72977333D02*
X80829961Y-73024952D01*
X80829961Y-73024952D02*
X80925200Y-73120190D01*
X80925200Y-73120190D02*
X80972819Y-73263047D01*
X80972819Y-73263047D02*
X80972819Y-73358285D01*
X80068057Y-72548761D02*
X80020438Y-72501142D01*
X80020438Y-72501142D02*
X79972819Y-72405904D01*
X79972819Y-72405904D02*
X79972819Y-72167809D01*
X79972819Y-72167809D02*
X80020438Y-72072571D01*
X80020438Y-72072571D02*
X80068057Y-72024952D01*
X80068057Y-72024952D02*
X80163295Y-71977333D01*
X80163295Y-71977333D02*
X80258533Y-71977333D01*
X80258533Y-71977333D02*
X80401390Y-72024952D01*
X80401390Y-72024952D02*
X80972819Y-72596380D01*
X80972819Y-72596380D02*
X80972819Y-71977333D01*
X79972819Y-57833333D02*
X80687104Y-57833333D01*
X80687104Y-57833333D02*
X80829961Y-57880952D01*
X80829961Y-57880952D02*
X80925200Y-57976190D01*
X80925200Y-57976190D02*
X80972819Y-58119047D01*
X80972819Y-58119047D02*
X80972819Y-58214285D01*
X80306152Y-56928571D02*
X80972819Y-56928571D01*
X79925200Y-57166666D02*
X80639485Y-57404761D01*
X80639485Y-57404761D02*
X80639485Y-56785714D01*
X106005333Y-68431580D02*
X105957714Y-68479200D01*
X105957714Y-68479200D02*
X105814857Y-68526819D01*
X105814857Y-68526819D02*
X105719619Y-68526819D01*
X105719619Y-68526819D02*
X105576762Y-68479200D01*
X105576762Y-68479200D02*
X105481524Y-68383961D01*
X105481524Y-68383961D02*
X105433905Y-68288723D01*
X105433905Y-68288723D02*
X105386286Y-68098247D01*
X105386286Y-68098247D02*
X105386286Y-67955390D01*
X105386286Y-67955390D02*
X105433905Y-67764914D01*
X105433905Y-67764914D02*
X105481524Y-67669676D01*
X105481524Y-67669676D02*
X105576762Y-67574438D01*
X105576762Y-67574438D02*
X105719619Y-67526819D01*
X105719619Y-67526819D02*
X105814857Y-67526819D01*
X105814857Y-67526819D02*
X105957714Y-67574438D01*
X105957714Y-67574438D02*
X106005333Y-67622057D01*
X106338667Y-67526819D02*
X107005333Y-67526819D01*
X107005333Y-67526819D02*
X106576762Y-68526819D01*
X90116819Y-66587666D02*
X89640628Y-66920999D01*
X90116819Y-67159094D02*
X89116819Y-67159094D01*
X89116819Y-67159094D02*
X89116819Y-66778142D01*
X89116819Y-66778142D02*
X89164438Y-66682904D01*
X89164438Y-66682904D02*
X89212057Y-66635285D01*
X89212057Y-66635285D02*
X89307295Y-66587666D01*
X89307295Y-66587666D02*
X89450152Y-66587666D01*
X89450152Y-66587666D02*
X89545390Y-66635285D01*
X89545390Y-66635285D02*
X89593009Y-66682904D01*
X89593009Y-66682904D02*
X89640628Y-66778142D01*
X89640628Y-66778142D02*
X89640628Y-67159094D01*
X89450152Y-65730523D02*
X90116819Y-65730523D01*
X89069200Y-65968618D02*
X89783485Y-66206713D01*
X89783485Y-66206713D02*
X89783485Y-65587666D01*
X106680095Y-61811819D02*
X106680095Y-62621342D01*
X106680095Y-62621342D02*
X106727714Y-62716580D01*
X106727714Y-62716580D02*
X106775333Y-62764200D01*
X106775333Y-62764200D02*
X106870571Y-62811819D01*
X106870571Y-62811819D02*
X107061047Y-62811819D01*
X107061047Y-62811819D02*
X107156285Y-62764200D01*
X107156285Y-62764200D02*
X107203904Y-62716580D01*
X107203904Y-62716580D02*
X107251523Y-62621342D01*
X107251523Y-62621342D02*
X107251523Y-61811819D01*
X107632476Y-61811819D02*
X108251523Y-61811819D01*
X108251523Y-61811819D02*
X107918190Y-62192771D01*
X107918190Y-62192771D02*
X108061047Y-62192771D01*
X108061047Y-62192771D02*
X108156285Y-62240390D01*
X108156285Y-62240390D02*
X108203904Y-62288009D01*
X108203904Y-62288009D02*
X108251523Y-62383247D01*
X108251523Y-62383247D02*
X108251523Y-62621342D01*
X108251523Y-62621342D02*
X108203904Y-62716580D01*
X108203904Y-62716580D02*
X108156285Y-62764200D01*
X108156285Y-62764200D02*
X108061047Y-62811819D01*
X108061047Y-62811819D02*
X107775333Y-62811819D01*
X107775333Y-62811819D02*
X107680095Y-62764200D01*
X107680095Y-62764200D02*
X107632476Y-62716580D01*
X117454819Y-68988094D02*
X116454819Y-68988094D01*
X116454819Y-68988094D02*
X116454819Y-68749999D01*
X116454819Y-68749999D02*
X116502438Y-68607142D01*
X116502438Y-68607142D02*
X116597676Y-68511904D01*
X116597676Y-68511904D02*
X116692914Y-68464285D01*
X116692914Y-68464285D02*
X116883390Y-68416666D01*
X116883390Y-68416666D02*
X117026247Y-68416666D01*
X117026247Y-68416666D02*
X117216723Y-68464285D01*
X117216723Y-68464285D02*
X117311961Y-68511904D01*
X117311961Y-68511904D02*
X117407200Y-68607142D01*
X117407200Y-68607142D02*
X117454819Y-68749999D01*
X117454819Y-68749999D02*
X117454819Y-68988094D01*
X117454819Y-67464285D02*
X117454819Y-68035713D01*
X117454819Y-67749999D02*
X116454819Y-67749999D01*
X116454819Y-67749999D02*
X116597676Y-67845237D01*
X116597676Y-67845237D02*
X116692914Y-67940475D01*
X116692914Y-67940475D02*
X116740533Y-68035713D01*
X91971905Y-62430819D02*
X91971905Y-61430819D01*
X91971905Y-61430819D02*
X92210000Y-61430819D01*
X92210000Y-61430819D02*
X92352857Y-61478438D01*
X92352857Y-61478438D02*
X92448095Y-61573676D01*
X92448095Y-61573676D02*
X92495714Y-61668914D01*
X92495714Y-61668914D02*
X92543333Y-61859390D01*
X92543333Y-61859390D02*
X92543333Y-62002247D01*
X92543333Y-62002247D02*
X92495714Y-62192723D01*
X92495714Y-62192723D02*
X92448095Y-62287961D01*
X92448095Y-62287961D02*
X92352857Y-62383200D01*
X92352857Y-62383200D02*
X92210000Y-62430819D01*
X92210000Y-62430819D02*
X91971905Y-62430819D01*
X92924286Y-61526057D02*
X92971905Y-61478438D01*
X92971905Y-61478438D02*
X93067143Y-61430819D01*
X93067143Y-61430819D02*
X93305238Y-61430819D01*
X93305238Y-61430819D02*
X93400476Y-61478438D01*
X93400476Y-61478438D02*
X93448095Y-61526057D01*
X93448095Y-61526057D02*
X93495714Y-61621295D01*
X93495714Y-61621295D02*
X93495714Y-61716533D01*
X93495714Y-61716533D02*
X93448095Y-61859390D01*
X93448095Y-61859390D02*
X92876667Y-62430819D01*
X92876667Y-62430819D02*
X93495714Y-62430819D01*
X109307333Y-61414819D02*
X108974000Y-60938628D01*
X108735905Y-61414819D02*
X108735905Y-60414819D01*
X108735905Y-60414819D02*
X109116857Y-60414819D01*
X109116857Y-60414819D02*
X109212095Y-60462438D01*
X109212095Y-60462438D02*
X109259714Y-60510057D01*
X109259714Y-60510057D02*
X109307333Y-60605295D01*
X109307333Y-60605295D02*
X109307333Y-60748152D01*
X109307333Y-60748152D02*
X109259714Y-60843390D01*
X109259714Y-60843390D02*
X109212095Y-60891009D01*
X109212095Y-60891009D02*
X109116857Y-60938628D01*
X109116857Y-60938628D02*
X108735905Y-60938628D01*
X110164476Y-60414819D02*
X109974000Y-60414819D01*
X109974000Y-60414819D02*
X109878762Y-60462438D01*
X109878762Y-60462438D02*
X109831143Y-60510057D01*
X109831143Y-60510057D02*
X109735905Y-60652914D01*
X109735905Y-60652914D02*
X109688286Y-60843390D01*
X109688286Y-60843390D02*
X109688286Y-61224342D01*
X109688286Y-61224342D02*
X109735905Y-61319580D01*
X109735905Y-61319580D02*
X109783524Y-61367200D01*
X109783524Y-61367200D02*
X109878762Y-61414819D01*
X109878762Y-61414819D02*
X110069238Y-61414819D01*
X110069238Y-61414819D02*
X110164476Y-61367200D01*
X110164476Y-61367200D02*
X110212095Y-61319580D01*
X110212095Y-61319580D02*
X110259714Y-61224342D01*
X110259714Y-61224342D02*
X110259714Y-60986247D01*
X110259714Y-60986247D02*
X110212095Y-60891009D01*
X110212095Y-60891009D02*
X110164476Y-60843390D01*
X110164476Y-60843390D02*
X110069238Y-60795771D01*
X110069238Y-60795771D02*
X109878762Y-60795771D01*
X109878762Y-60795771D02*
X109783524Y-60843390D01*
X109783524Y-60843390D02*
X109735905Y-60891009D01*
X109735905Y-60891009D02*
X109688286Y-60986247D01*
X104608333Y-63478580D02*
X104560714Y-63526200D01*
X104560714Y-63526200D02*
X104417857Y-63573819D01*
X104417857Y-63573819D02*
X104322619Y-63573819D01*
X104322619Y-63573819D02*
X104179762Y-63526200D01*
X104179762Y-63526200D02*
X104084524Y-63430961D01*
X104084524Y-63430961D02*
X104036905Y-63335723D01*
X104036905Y-63335723D02*
X103989286Y-63145247D01*
X103989286Y-63145247D02*
X103989286Y-63002390D01*
X103989286Y-63002390D02*
X104036905Y-62811914D01*
X104036905Y-62811914D02*
X104084524Y-62716676D01*
X104084524Y-62716676D02*
X104179762Y-62621438D01*
X104179762Y-62621438D02*
X104322619Y-62573819D01*
X104322619Y-62573819D02*
X104417857Y-62573819D01*
X104417857Y-62573819D02*
X104560714Y-62621438D01*
X104560714Y-62621438D02*
X104608333Y-62669057D01*
X105465476Y-62573819D02*
X105275000Y-62573819D01*
X105275000Y-62573819D02*
X105179762Y-62621438D01*
X105179762Y-62621438D02*
X105132143Y-62669057D01*
X105132143Y-62669057D02*
X105036905Y-62811914D01*
X105036905Y-62811914D02*
X104989286Y-63002390D01*
X104989286Y-63002390D02*
X104989286Y-63383342D01*
X104989286Y-63383342D02*
X105036905Y-63478580D01*
X105036905Y-63478580D02*
X105084524Y-63526200D01*
X105084524Y-63526200D02*
X105179762Y-63573819D01*
X105179762Y-63573819D02*
X105370238Y-63573819D01*
X105370238Y-63573819D02*
X105465476Y-63526200D01*
X105465476Y-63526200D02*
X105513095Y-63478580D01*
X105513095Y-63478580D02*
X105560714Y-63383342D01*
X105560714Y-63383342D02*
X105560714Y-63145247D01*
X105560714Y-63145247D02*
X105513095Y-63050009D01*
X105513095Y-63050009D02*
X105465476Y-63002390D01*
X105465476Y-63002390D02*
X105370238Y-62954771D01*
X105370238Y-62954771D02*
X105179762Y-62954771D01*
X105179762Y-62954771D02*
X105084524Y-63002390D01*
X105084524Y-63002390D02*
X105036905Y-63050009D01*
X105036905Y-63050009D02*
X104989286Y-63145247D01*
X116454819Y-61583333D02*
X117169104Y-61583333D01*
X117169104Y-61583333D02*
X117311961Y-61630952D01*
X117311961Y-61630952D02*
X117407200Y-61726190D01*
X117407200Y-61726190D02*
X117454819Y-61869047D01*
X117454819Y-61869047D02*
X117454819Y-61964285D01*
X116454819Y-61202380D02*
X116454819Y-60583333D01*
X116454819Y-60583333D02*
X116835771Y-60916666D01*
X116835771Y-60916666D02*
X116835771Y-60773809D01*
X116835771Y-60773809D02*
X116883390Y-60678571D01*
X116883390Y-60678571D02*
X116931009Y-60630952D01*
X116931009Y-60630952D02*
X117026247Y-60583333D01*
X117026247Y-60583333D02*
X117264342Y-60583333D01*
X117264342Y-60583333D02*
X117359580Y-60630952D01*
X117359580Y-60630952D02*
X117407200Y-60678571D01*
X117407200Y-60678571D02*
X117454819Y-60773809D01*
X117454819Y-60773809D02*
X117454819Y-61059523D01*
X117454819Y-61059523D02*
X117407200Y-61154761D01*
X117407200Y-61154761D02*
X117359580Y-61202380D01*
X117454819Y-65988094D02*
X116454819Y-65988094D01*
X116454819Y-65988094D02*
X116454819Y-65749999D01*
X116454819Y-65749999D02*
X116502438Y-65607142D01*
X116502438Y-65607142D02*
X116597676Y-65511904D01*
X116597676Y-65511904D02*
X116692914Y-65464285D01*
X116692914Y-65464285D02*
X116883390Y-65416666D01*
X116883390Y-65416666D02*
X117026247Y-65416666D01*
X117026247Y-65416666D02*
X117216723Y-65464285D01*
X117216723Y-65464285D02*
X117311961Y-65511904D01*
X117311961Y-65511904D02*
X117407200Y-65607142D01*
X117407200Y-65607142D02*
X117454819Y-65749999D01*
X117454819Y-65749999D02*
X117454819Y-65988094D01*
X116454819Y-65083332D02*
X116454819Y-64464285D01*
X116454819Y-64464285D02*
X116835771Y-64797618D01*
X116835771Y-64797618D02*
X116835771Y-64654761D01*
X116835771Y-64654761D02*
X116883390Y-64559523D01*
X116883390Y-64559523D02*
X116931009Y-64511904D01*
X116931009Y-64511904D02*
X117026247Y-64464285D01*
X117026247Y-64464285D02*
X117264342Y-64464285D01*
X117264342Y-64464285D02*
X117359580Y-64511904D01*
X117359580Y-64511904D02*
X117407200Y-64559523D01*
X117407200Y-64559523D02*
X117454819Y-64654761D01*
X117454819Y-64654761D02*
X117454819Y-64940475D01*
X117454819Y-64940475D02*
X117407200Y-65035713D01*
X117407200Y-65035713D02*
X117359580Y-65083332D01*
X88225333Y-69415819D02*
X87892000Y-68939628D01*
X87653905Y-69415819D02*
X87653905Y-68415819D01*
X87653905Y-68415819D02*
X88034857Y-68415819D01*
X88034857Y-68415819D02*
X88130095Y-68463438D01*
X88130095Y-68463438D02*
X88177714Y-68511057D01*
X88177714Y-68511057D02*
X88225333Y-68606295D01*
X88225333Y-68606295D02*
X88225333Y-68749152D01*
X88225333Y-68749152D02*
X88177714Y-68844390D01*
X88177714Y-68844390D02*
X88130095Y-68892009D01*
X88130095Y-68892009D02*
X88034857Y-68939628D01*
X88034857Y-68939628D02*
X87653905Y-68939628D01*
X88606286Y-68511057D02*
X88653905Y-68463438D01*
X88653905Y-68463438D02*
X88749143Y-68415819D01*
X88749143Y-68415819D02*
X88987238Y-68415819D01*
X88987238Y-68415819D02*
X89082476Y-68463438D01*
X89082476Y-68463438D02*
X89130095Y-68511057D01*
X89130095Y-68511057D02*
X89177714Y-68606295D01*
X89177714Y-68606295D02*
X89177714Y-68701533D01*
X89177714Y-68701533D02*
X89130095Y-68844390D01*
X89130095Y-68844390D02*
X88558667Y-69415819D01*
X88558667Y-69415819D02*
X89177714Y-69415819D01*
X94575333Y-66018580D02*
X94527714Y-66066200D01*
X94527714Y-66066200D02*
X94384857Y-66113819D01*
X94384857Y-66113819D02*
X94289619Y-66113819D01*
X94289619Y-66113819D02*
X94146762Y-66066200D01*
X94146762Y-66066200D02*
X94051524Y-65970961D01*
X94051524Y-65970961D02*
X94003905Y-65875723D01*
X94003905Y-65875723D02*
X93956286Y-65685247D01*
X93956286Y-65685247D02*
X93956286Y-65542390D01*
X93956286Y-65542390D02*
X94003905Y-65351914D01*
X94003905Y-65351914D02*
X94051524Y-65256676D01*
X94051524Y-65256676D02*
X94146762Y-65161438D01*
X94146762Y-65161438D02*
X94289619Y-65113819D01*
X94289619Y-65113819D02*
X94384857Y-65113819D01*
X94384857Y-65113819D02*
X94527714Y-65161438D01*
X94527714Y-65161438D02*
X94575333Y-65209057D01*
X95432476Y-65447152D02*
X95432476Y-66113819D01*
X95194381Y-65066200D02*
X94956286Y-65780485D01*
X94956286Y-65780485D02*
X95575333Y-65780485D01*
X112833333Y-68252819D02*
X112500000Y-67776628D01*
X112261905Y-68252819D02*
X112261905Y-67252819D01*
X112261905Y-67252819D02*
X112642857Y-67252819D01*
X112642857Y-67252819D02*
X112738095Y-67300438D01*
X112738095Y-67300438D02*
X112785714Y-67348057D01*
X112785714Y-67348057D02*
X112833333Y-67443295D01*
X112833333Y-67443295D02*
X112833333Y-67586152D01*
X112833333Y-67586152D02*
X112785714Y-67681390D01*
X112785714Y-67681390D02*
X112738095Y-67729009D01*
X112738095Y-67729009D02*
X112642857Y-67776628D01*
X112642857Y-67776628D02*
X112261905Y-67776628D01*
X113738095Y-67252819D02*
X113261905Y-67252819D01*
X113261905Y-67252819D02*
X113214286Y-67729009D01*
X113214286Y-67729009D02*
X113261905Y-67681390D01*
X113261905Y-67681390D02*
X113357143Y-67633771D01*
X113357143Y-67633771D02*
X113595238Y-67633771D01*
X113595238Y-67633771D02*
X113690476Y-67681390D01*
X113690476Y-67681390D02*
X113738095Y-67729009D01*
X113738095Y-67729009D02*
X113785714Y-67824247D01*
X113785714Y-67824247D02*
X113785714Y-68062342D01*
X113785714Y-68062342D02*
X113738095Y-68157580D01*
X113738095Y-68157580D02*
X113690476Y-68205200D01*
X113690476Y-68205200D02*
X113595238Y-68252819D01*
X113595238Y-68252819D02*
X113357143Y-68252819D01*
X113357143Y-68252819D02*
X113261905Y-68205200D01*
X113261905Y-68205200D02*
X113214286Y-68157580D01*
X112808333Y-61573580D02*
X112760714Y-61621200D01*
X112760714Y-61621200D02*
X112617857Y-61668819D01*
X112617857Y-61668819D02*
X112522619Y-61668819D01*
X112522619Y-61668819D02*
X112379762Y-61621200D01*
X112379762Y-61621200D02*
X112284524Y-61525961D01*
X112284524Y-61525961D02*
X112236905Y-61430723D01*
X112236905Y-61430723D02*
X112189286Y-61240247D01*
X112189286Y-61240247D02*
X112189286Y-61097390D01*
X112189286Y-61097390D02*
X112236905Y-60906914D01*
X112236905Y-60906914D02*
X112284524Y-60811676D01*
X112284524Y-60811676D02*
X112379762Y-60716438D01*
X112379762Y-60716438D02*
X112522619Y-60668819D01*
X112522619Y-60668819D02*
X112617857Y-60668819D01*
X112617857Y-60668819D02*
X112760714Y-60716438D01*
X112760714Y-60716438D02*
X112808333Y-60764057D01*
X113760714Y-61668819D02*
X113189286Y-61668819D01*
X113475000Y-61668819D02*
X113475000Y-60668819D01*
X113475000Y-60668819D02*
X113379762Y-60811676D01*
X113379762Y-60811676D02*
X113284524Y-60906914D01*
X113284524Y-60906914D02*
X113189286Y-60954533D01*
D14*
%TO.C,C2*%
X101494000Y-65639836D02*
X101494000Y-65424164D01*
X102214000Y-65639836D02*
X102214000Y-65424164D01*
%TO.C,C5*%
X102925000Y-66235252D02*
X102925000Y-65712748D01*
X104395000Y-66235252D02*
X104395000Y-65712748D01*
%TO.C,U1*%
X96188000Y-62890000D02*
X96188000Y-63115000D01*
X96188000Y-67110000D02*
X96188000Y-66885000D01*
X96413000Y-62890000D02*
X96188000Y-62890000D01*
X96413000Y-67110000D02*
X96188000Y-67110000D01*
X100183000Y-62890000D02*
X100408000Y-62890000D01*
X100408000Y-62890000D02*
X100408000Y-63115000D01*
X100668000Y-67440000D02*
X100188000Y-67440000D01*
X100428000Y-67110000D01*
X100668000Y-67440000D01*
G36*
X100668000Y-67440000D02*
G01*
X100188000Y-67440000D01*
X100428000Y-67110000D01*
X100668000Y-67440000D01*
G37*
%TO.C,R3*%
X88120000Y-63401641D02*
X88120000Y-63094359D01*
X88880000Y-63401641D02*
X88880000Y-63094359D01*
%TO.C,J1*%
X82580000Y-69580000D02*
X84500000Y-69580000D01*
X84500000Y-60420000D02*
X82580000Y-60420000D01*
%TO.C,R7*%
X90298000Y-69188359D02*
X90298000Y-69495641D01*
X91058000Y-69188359D02*
X91058000Y-69495641D01*
%TO.C,J5*%
X92396000Y-66752000D02*
X93091000Y-66752000D01*
X92396000Y-67437000D02*
X92396000Y-66752000D01*
X92396000Y-68122000D02*
X92396000Y-68997000D01*
X92396000Y-68122000D02*
X92482724Y-68122000D01*
X92396000Y-68997000D02*
X92696507Y-68997000D01*
X93485493Y-68997000D02*
X93786000Y-68997000D01*
X93699276Y-68122000D02*
X93786000Y-68122000D01*
X93786000Y-68122000D02*
X93786000Y-68997000D01*
%TO.C,C3*%
X108892748Y-67083000D02*
X109415252Y-67083000D01*
X108892748Y-68553000D02*
X109415252Y-68553000D01*
%TO.C,R1*%
X113153641Y-68962000D02*
X112846359Y-68962000D01*
X113153641Y-69722000D02*
X112846359Y-69722000D01*
%TO.C,J2*%
X81474000Y-73974000D02*
X81474000Y-72644000D01*
X82804000Y-73974000D02*
X81474000Y-73974000D01*
X84074000Y-71314000D02*
X117154000Y-71314000D01*
X84074000Y-73974000D02*
X84074000Y-71314000D01*
X84074000Y-73974000D02*
X117154000Y-73974000D01*
X117154000Y-73974000D02*
X117154000Y-71314000D01*
%TO.C,J4*%
X81474000Y-56170000D02*
X81474000Y-58830000D01*
X114554000Y-56170000D02*
X81474000Y-56170000D01*
X114554000Y-56170000D02*
X114554000Y-58830000D01*
X114554000Y-58830000D02*
X81474000Y-58830000D01*
X115824000Y-56170000D02*
X117154000Y-56170000D01*
X117154000Y-56170000D02*
X117154000Y-57500000D01*
%TO.C,C7*%
X105812000Y-66214164D02*
X105812000Y-66429836D01*
X106532000Y-66214164D02*
X106532000Y-66429836D01*
%TO.C,R4*%
X90298000Y-67156359D02*
X90298000Y-67463641D01*
X91058000Y-67156359D02*
X91058000Y-67463641D01*
%TO.C,U3*%
X109362500Y-63208000D02*
X108562500Y-63208000D01*
X109362500Y-63208000D02*
X110162500Y-63208000D01*
X109362500Y-66328000D02*
X108562500Y-66328000D01*
X109362500Y-66328000D02*
X110162500Y-66328000D01*
X110902500Y-66608000D02*
X110422500Y-66608000D01*
X110662500Y-66278000D01*
X110902500Y-66608000D01*
G36*
X110902500Y-66608000D02*
G01*
X110422500Y-66608000D01*
X110662500Y-66278000D01*
X110902500Y-66608000D01*
G37*
%TO.C,D1*%
X114765000Y-67737500D02*
X114765000Y-70022500D01*
X114765000Y-70022500D02*
X116235000Y-70022500D01*
X116235000Y-70022500D02*
X116235000Y-67737500D01*
%TO.C,D2*%
X90150000Y-63596000D02*
X90150000Y-64896000D01*
X93270000Y-64896000D02*
X93270000Y-63626000D01*
X93550000Y-63486000D02*
X93220000Y-63246000D01*
X93550000Y-63006000D01*
X93550000Y-63486000D01*
G36*
X93550000Y-63486000D02*
G01*
X93220000Y-63246000D01*
X93550000Y-63006000D01*
X93550000Y-63486000D01*
G37*
%TO.C,R6*%
X109625641Y-61850000D02*
X109318359Y-61850000D01*
X109625641Y-62610000D02*
X109318359Y-62610000D01*
%TO.C,C6*%
X105812000Y-63928164D02*
X105812000Y-64143836D01*
X106532000Y-63928164D02*
X106532000Y-64143836D01*
%TO.C,J3*%
X114875000Y-60529000D02*
X115570000Y-60529000D01*
X114875000Y-61214000D02*
X114875000Y-60529000D01*
X114875000Y-61899000D02*
X114875000Y-61774000D01*
X114875000Y-61899000D02*
X114961724Y-61899000D01*
X114875000Y-61899000D02*
X116265000Y-61899000D01*
X116178276Y-61899000D02*
X116265000Y-61899000D01*
X116265000Y-61899000D02*
X116265000Y-61774000D01*
%TO.C,D3*%
X114765000Y-64237500D02*
X114765000Y-66522500D01*
X114765000Y-66522500D02*
X116235000Y-66522500D01*
X116235000Y-66522500D02*
X116235000Y-64237500D01*
%TO.C,R2*%
X88120000Y-67154359D02*
X88120000Y-67461641D01*
X88880000Y-67154359D02*
X88880000Y-67461641D01*
%TO.C,C4*%
X94382000Y-64087836D02*
X94382000Y-63872164D01*
X95102000Y-64087836D02*
X95102000Y-63872164D01*
%TO.C,R5*%
X113143641Y-66168000D02*
X112836359Y-66168000D01*
X113143641Y-66928000D02*
X112836359Y-66928000D01*
%TO.C,C1*%
X112240000Y-63538748D02*
X112240000Y-64061252D01*
X113710000Y-63538748D02*
X113710000Y-64061252D01*
%TD*%
%LPC*%
D15*
%TO.C,C2*%
X101854000Y-66012000D03*
X101854000Y-65052000D03*
%TD*%
D16*
%TO.C,C5*%
X103660000Y-66924000D03*
X103660000Y-65024000D03*
%TD*%
D17*
%TO.C,U1*%
X100295500Y-66500000D03*
D18*
X100235500Y-66000000D03*
X100235500Y-65500000D03*
X100235500Y-65000000D03*
X100235500Y-64500000D03*
X100235500Y-64000000D03*
D19*
X100295500Y-63500000D03*
D20*
X99798000Y-63002500D03*
D21*
X99298000Y-63062500D03*
X98798000Y-63062500D03*
X98298000Y-63062500D03*
X97798000Y-63062500D03*
X97298000Y-63062500D03*
D22*
X96798000Y-63002500D03*
D23*
X96300500Y-63500000D03*
D18*
X96360500Y-64000000D03*
X96360500Y-64500000D03*
X96360500Y-65000000D03*
X96360500Y-65500000D03*
X96360500Y-66000000D03*
D24*
X96300500Y-66500000D03*
D25*
X96798000Y-66997500D03*
D21*
X97298000Y-66937500D03*
X97798000Y-66937500D03*
X98298000Y-66937500D03*
X98798000Y-66937500D03*
X99298000Y-66937500D03*
D26*
X99798000Y-66997500D03*
%TD*%
D27*
%TO.C,R3*%
X88500000Y-63758000D03*
X88500000Y-62738000D03*
%TD*%
D28*
%TO.C,J1*%
X85255000Y-62110000D03*
X85255000Y-67890000D03*
D29*
X86422500Y-61800000D03*
X86422500Y-62600000D03*
D30*
X86375000Y-63750000D03*
X86375000Y-64750000D03*
X86375000Y-65250000D03*
X86375000Y-66250000D03*
D29*
X86422500Y-67400000D03*
X86422500Y-68200000D03*
X86422500Y-68200000D03*
X86422500Y-67400000D03*
D30*
X86375000Y-66750000D03*
X86375000Y-65750000D03*
X86375000Y-64250000D03*
X86375000Y-63250000D03*
D29*
X86422500Y-62600000D03*
X86422500Y-61800000D03*
D31*
X85775000Y-60680000D03*
D32*
X81575000Y-60680000D03*
D31*
X85775000Y-69320000D03*
D32*
X81575000Y-69320000D03*
%TD*%
D33*
%TO.C,R7*%
X90678000Y-68832000D03*
X90678000Y-69852000D03*
%TD*%
D34*
%TO.C,J5*%
X93091000Y-67437000D03*
X93091000Y-68437000D03*
%TD*%
D35*
%TO.C,C3*%
X108204000Y-67818000D03*
X110104000Y-67818000D03*
%TD*%
D36*
%TO.C,R1*%
X113510000Y-69342000D03*
X112490000Y-69342000D03*
%TD*%
D37*
%TO.C,J2*%
X82804000Y-72644000D03*
D38*
X85344000Y-72644000D03*
X87884000Y-72644000D03*
X90424000Y-72644000D03*
X92964000Y-72644000D03*
X95504000Y-72644000D03*
X98044000Y-72644000D03*
X100584000Y-72644000D03*
X103124000Y-72644000D03*
X105664000Y-72644000D03*
X108204000Y-72644000D03*
X110744000Y-72644000D03*
X113284000Y-72644000D03*
X115824000Y-72644000D03*
%TD*%
D37*
%TO.C,J4*%
X115824000Y-57500000D03*
D38*
X113284000Y-57500000D03*
X110744000Y-57500000D03*
X108204000Y-57500000D03*
X105664000Y-57500000D03*
X103124000Y-57500000D03*
X100584000Y-57500000D03*
X98044000Y-57500000D03*
X95504000Y-57500000D03*
X92964000Y-57500000D03*
X90424000Y-57500000D03*
X87884000Y-57500000D03*
X85344000Y-57500000D03*
X82804000Y-57500000D03*
%TD*%
D39*
%TO.C,C7*%
X106172000Y-65842000D03*
X106172000Y-66802000D03*
%TD*%
D33*
%TO.C,R4*%
X90678000Y-66800000D03*
X90678000Y-67820000D03*
%TD*%
D40*
%TO.C,U3*%
X110500000Y-65718000D03*
X110500000Y-64768000D03*
X110500000Y-63818000D03*
X108225000Y-63818000D03*
X108225000Y-65718000D03*
%TD*%
D41*
%TO.C,D1*%
X115500000Y-69325000D03*
X115500000Y-67750000D03*
%TD*%
D42*
%TO.C,D2*%
X92460000Y-63246000D03*
D43*
X90760000Y-63246000D03*
X90760000Y-65246000D03*
X92660000Y-65246000D03*
%TD*%
D36*
%TO.C,R6*%
X109982000Y-62230000D03*
X108962000Y-62230000D03*
%TD*%
D39*
%TO.C,C6*%
X106172000Y-63556000D03*
X106172000Y-64516000D03*
%TD*%
D44*
%TO.C,J3*%
X115570000Y-61214000D03*
%TD*%
D41*
%TO.C,D3*%
X115500000Y-65825000D03*
X115500000Y-64250000D03*
%TD*%
D33*
%TO.C,R2*%
X88500000Y-66798000D03*
X88500000Y-67818000D03*
%TD*%
D15*
%TO.C,C4*%
X94742000Y-64460000D03*
X94742000Y-63500000D03*
%TD*%
D36*
%TO.C,R5*%
X113500000Y-66548000D03*
X112480000Y-66548000D03*
%TD*%
D45*
%TO.C,C1*%
X112975000Y-62850000D03*
X112975000Y-64750000D03*
%TD*%
%LPD*%
M02*
