%TF.GenerationSoftware,KiCad,Pcbnew,8.0.8*%
%TF.CreationDate,2025-02-11T08:33:32+00:00*%
%TF.ProjectId,stm32c071devboard,73746d33-3263-4303-9731-646576626f61,rev?*%
%TF.SameCoordinates,Original*%
%TF.FileFunction,Drillmap*%
%TF.FilePolarity,Positive*%
%FSLAX45Y45*%
G04 Gerber Fmt 4.5, Leading zero omitted, Abs format (unit mm)*
G04 Created by KiCad (PCBNEW 8.0.8) date 2025-02-11 08:33:32*
%MOMM*%
%LPD*%
G01*
G04 APERTURE LIST*
%ADD10C,0.050000*%
%ADD11C,0.200000*%
%ADD12C,0.100000*%
G04 APERTURE END LIST*
D10*
X7953900Y-5550000D02*
X11795000Y-5550000D01*
X11795000Y-7475000D01*
X7953900Y-7475000D01*
X7953900Y-5550000D01*
D11*
D12*
X8493000Y-6178500D02*
X8558000Y-6243500D01*
X8558000Y-6178500D02*
X8493000Y-6243500D01*
X8493000Y-6756500D02*
X8558000Y-6821500D01*
X8558000Y-6756500D02*
X8493000Y-6821500D01*
D11*
X8212177Y-7788984D02*
X8212177Y-7588984D01*
X8212177Y-7588984D02*
X8259796Y-7588984D01*
X8259796Y-7588984D02*
X8288367Y-7598508D01*
X8288367Y-7598508D02*
X8307415Y-7617555D01*
X8307415Y-7617555D02*
X8316939Y-7636603D01*
X8316939Y-7636603D02*
X8326462Y-7674698D01*
X8326462Y-7674698D02*
X8326462Y-7703269D01*
X8326462Y-7703269D02*
X8316939Y-7741365D01*
X8316939Y-7741365D02*
X8307415Y-7760412D01*
X8307415Y-7760412D02*
X8288367Y-7779460D01*
X8288367Y-7779460D02*
X8259796Y-7788984D01*
X8259796Y-7788984D02*
X8212177Y-7788984D01*
X8412177Y-7788984D02*
X8412177Y-7655650D01*
X8412177Y-7693746D02*
X8421701Y-7674698D01*
X8421701Y-7674698D02*
X8431224Y-7665174D01*
X8431224Y-7665174D02*
X8450272Y-7655650D01*
X8450272Y-7655650D02*
X8469320Y-7655650D01*
X8535986Y-7788984D02*
X8535986Y-7655650D01*
X8535986Y-7588984D02*
X8526463Y-7598508D01*
X8526463Y-7598508D02*
X8535986Y-7608031D01*
X8535986Y-7608031D02*
X8545510Y-7598508D01*
X8545510Y-7598508D02*
X8535986Y-7588984D01*
X8535986Y-7588984D02*
X8535986Y-7608031D01*
X8659796Y-7788984D02*
X8640748Y-7779460D01*
X8640748Y-7779460D02*
X8631224Y-7760412D01*
X8631224Y-7760412D02*
X8631224Y-7588984D01*
X8764558Y-7788984D02*
X8745510Y-7779460D01*
X8745510Y-7779460D02*
X8735986Y-7760412D01*
X8735986Y-7760412D02*
X8735986Y-7588984D01*
X8993129Y-7788984D02*
X8993129Y-7588984D01*
X8993129Y-7588984D02*
X9059796Y-7731841D01*
X9059796Y-7731841D02*
X9126463Y-7588984D01*
X9126463Y-7588984D02*
X9126463Y-7788984D01*
X9307415Y-7788984D02*
X9307415Y-7684222D01*
X9307415Y-7684222D02*
X9297891Y-7665174D01*
X9297891Y-7665174D02*
X9278844Y-7655650D01*
X9278844Y-7655650D02*
X9240748Y-7655650D01*
X9240748Y-7655650D02*
X9221701Y-7665174D01*
X9307415Y-7779460D02*
X9288367Y-7788984D01*
X9288367Y-7788984D02*
X9240748Y-7788984D01*
X9240748Y-7788984D02*
X9221701Y-7779460D01*
X9221701Y-7779460D02*
X9212177Y-7760412D01*
X9212177Y-7760412D02*
X9212177Y-7741365D01*
X9212177Y-7741365D02*
X9221701Y-7722317D01*
X9221701Y-7722317D02*
X9240748Y-7712793D01*
X9240748Y-7712793D02*
X9288367Y-7712793D01*
X9288367Y-7712793D02*
X9307415Y-7703269D01*
X9402653Y-7655650D02*
X9402653Y-7855650D01*
X9402653Y-7665174D02*
X9421701Y-7655650D01*
X9421701Y-7655650D02*
X9459796Y-7655650D01*
X9459796Y-7655650D02*
X9478844Y-7665174D01*
X9478844Y-7665174D02*
X9488367Y-7674698D01*
X9488367Y-7674698D02*
X9497891Y-7693746D01*
X9497891Y-7693746D02*
X9497891Y-7750888D01*
X9497891Y-7750888D02*
X9488367Y-7769936D01*
X9488367Y-7769936D02*
X9478844Y-7779460D01*
X9478844Y-7779460D02*
X9459796Y-7788984D01*
X9459796Y-7788984D02*
X9421701Y-7788984D01*
X9421701Y-7788984D02*
X9402653Y-7779460D01*
X9583605Y-7769936D02*
X9593129Y-7779460D01*
X9593129Y-7779460D02*
X9583605Y-7788984D01*
X9583605Y-7788984D02*
X9574082Y-7779460D01*
X9574082Y-7779460D02*
X9583605Y-7769936D01*
X9583605Y-7769936D02*
X9583605Y-7788984D01*
X9583605Y-7665174D02*
X9593129Y-7674698D01*
X9593129Y-7674698D02*
X9583605Y-7684222D01*
X9583605Y-7684222D02*
X9574082Y-7674698D01*
X9574082Y-7674698D02*
X9583605Y-7665174D01*
X9583605Y-7665174D02*
X9583605Y-7684222D01*
D12*
X7886400Y-8085000D02*
X7951400Y-8150000D01*
X7951400Y-8085000D02*
X7886400Y-8150000D01*
D11*
X8250272Y-8008984D02*
X8269320Y-8008984D01*
X8269320Y-8008984D02*
X8288367Y-8018508D01*
X8288367Y-8018508D02*
X8297891Y-8028031D01*
X8297891Y-8028031D02*
X8307415Y-8047079D01*
X8307415Y-8047079D02*
X8316939Y-8085174D01*
X8316939Y-8085174D02*
X8316939Y-8132793D01*
X8316939Y-8132793D02*
X8307415Y-8170888D01*
X8307415Y-8170888D02*
X8297891Y-8189936D01*
X8297891Y-8189936D02*
X8288367Y-8199460D01*
X8288367Y-8199460D02*
X8269320Y-8208984D01*
X8269320Y-8208984D02*
X8250272Y-8208984D01*
X8250272Y-8208984D02*
X8231224Y-8199460D01*
X8231224Y-8199460D02*
X8221701Y-8189936D01*
X8221701Y-8189936D02*
X8212177Y-8170888D01*
X8212177Y-8170888D02*
X8202653Y-8132793D01*
X8202653Y-8132793D02*
X8202653Y-8085174D01*
X8202653Y-8085174D02*
X8212177Y-8047079D01*
X8212177Y-8047079D02*
X8221701Y-8028031D01*
X8221701Y-8028031D02*
X8231224Y-8018508D01*
X8231224Y-8018508D02*
X8250272Y-8008984D01*
X8402653Y-8189936D02*
X8412177Y-8199460D01*
X8412177Y-8199460D02*
X8402653Y-8208984D01*
X8402653Y-8208984D02*
X8393129Y-8199460D01*
X8393129Y-8199460D02*
X8402653Y-8189936D01*
X8402653Y-8189936D02*
X8402653Y-8208984D01*
X8583605Y-8008984D02*
X8545510Y-8008984D01*
X8545510Y-8008984D02*
X8526463Y-8018508D01*
X8526463Y-8018508D02*
X8516939Y-8028031D01*
X8516939Y-8028031D02*
X8497891Y-8056603D01*
X8497891Y-8056603D02*
X8488367Y-8094698D01*
X8488367Y-8094698D02*
X8488367Y-8170888D01*
X8488367Y-8170888D02*
X8497891Y-8189936D01*
X8497891Y-8189936D02*
X8507415Y-8199460D01*
X8507415Y-8199460D02*
X8526463Y-8208984D01*
X8526463Y-8208984D02*
X8564558Y-8208984D01*
X8564558Y-8208984D02*
X8583605Y-8199460D01*
X8583605Y-8199460D02*
X8593129Y-8189936D01*
X8593129Y-8189936D02*
X8602653Y-8170888D01*
X8602653Y-8170888D02*
X8602653Y-8123269D01*
X8602653Y-8123269D02*
X8593129Y-8104222D01*
X8593129Y-8104222D02*
X8583605Y-8094698D01*
X8583605Y-8094698D02*
X8564558Y-8085174D01*
X8564558Y-8085174D02*
X8526463Y-8085174D01*
X8526463Y-8085174D02*
X8507415Y-8094698D01*
X8507415Y-8094698D02*
X8497891Y-8104222D01*
X8497891Y-8104222D02*
X8488367Y-8123269D01*
X8783605Y-8008984D02*
X8688367Y-8008984D01*
X8688367Y-8008984D02*
X8678844Y-8104222D01*
X8678844Y-8104222D02*
X8688367Y-8094698D01*
X8688367Y-8094698D02*
X8707415Y-8085174D01*
X8707415Y-8085174D02*
X8755034Y-8085174D01*
X8755034Y-8085174D02*
X8774082Y-8094698D01*
X8774082Y-8094698D02*
X8783605Y-8104222D01*
X8783605Y-8104222D02*
X8793129Y-8123269D01*
X8793129Y-8123269D02*
X8793129Y-8170888D01*
X8793129Y-8170888D02*
X8783605Y-8189936D01*
X8783605Y-8189936D02*
X8774082Y-8199460D01*
X8774082Y-8199460D02*
X8755034Y-8208984D01*
X8755034Y-8208984D02*
X8707415Y-8208984D01*
X8707415Y-8208984D02*
X8688367Y-8199460D01*
X8688367Y-8199460D02*
X8678844Y-8189936D01*
X8916939Y-8008984D02*
X8935986Y-8008984D01*
X8935986Y-8008984D02*
X8955034Y-8018508D01*
X8955034Y-8018508D02*
X8964558Y-8028031D01*
X8964558Y-8028031D02*
X8974082Y-8047079D01*
X8974082Y-8047079D02*
X8983605Y-8085174D01*
X8983605Y-8085174D02*
X8983605Y-8132793D01*
X8983605Y-8132793D02*
X8974082Y-8170888D01*
X8974082Y-8170888D02*
X8964558Y-8189936D01*
X8964558Y-8189936D02*
X8955034Y-8199460D01*
X8955034Y-8199460D02*
X8935986Y-8208984D01*
X8935986Y-8208984D02*
X8916939Y-8208984D01*
X8916939Y-8208984D02*
X8897891Y-8199460D01*
X8897891Y-8199460D02*
X8888367Y-8189936D01*
X8888367Y-8189936D02*
X8878844Y-8170888D01*
X8878844Y-8170888D02*
X8869320Y-8132793D01*
X8869320Y-8132793D02*
X8869320Y-8085174D01*
X8869320Y-8085174D02*
X8878844Y-8047079D01*
X8878844Y-8047079D02*
X8888367Y-8028031D01*
X8888367Y-8028031D02*
X8897891Y-8018508D01*
X8897891Y-8018508D02*
X8916939Y-8008984D01*
X9069320Y-8208984D02*
X9069320Y-8075650D01*
X9069320Y-8094698D02*
X9078844Y-8085174D01*
X9078844Y-8085174D02*
X9097891Y-8075650D01*
X9097891Y-8075650D02*
X9126463Y-8075650D01*
X9126463Y-8075650D02*
X9145510Y-8085174D01*
X9145510Y-8085174D02*
X9155034Y-8104222D01*
X9155034Y-8104222D02*
X9155034Y-8208984D01*
X9155034Y-8104222D02*
X9164558Y-8085174D01*
X9164558Y-8085174D02*
X9183605Y-8075650D01*
X9183605Y-8075650D02*
X9212177Y-8075650D01*
X9212177Y-8075650D02*
X9231225Y-8085174D01*
X9231225Y-8085174D02*
X9240748Y-8104222D01*
X9240748Y-8104222D02*
X9240748Y-8208984D01*
X9335986Y-8208984D02*
X9335986Y-8075650D01*
X9335986Y-8094698D02*
X9345510Y-8085174D01*
X9345510Y-8085174D02*
X9364558Y-8075650D01*
X9364558Y-8075650D02*
X9393129Y-8075650D01*
X9393129Y-8075650D02*
X9412177Y-8085174D01*
X9412177Y-8085174D02*
X9421701Y-8104222D01*
X9421701Y-8104222D02*
X9421701Y-8208984D01*
X9421701Y-8104222D02*
X9431225Y-8085174D01*
X9431225Y-8085174D02*
X9450272Y-8075650D01*
X9450272Y-8075650D02*
X9478844Y-8075650D01*
X9478844Y-8075650D02*
X9497891Y-8085174D01*
X9497891Y-8085174D02*
X9507415Y-8104222D01*
X9507415Y-8104222D02*
X9507415Y-8208984D01*
X9897891Y-7999460D02*
X9726463Y-8256603D01*
X10155034Y-8008984D02*
X10174082Y-8008984D01*
X10174082Y-8008984D02*
X10193129Y-8018508D01*
X10193129Y-8018508D02*
X10202653Y-8028031D01*
X10202653Y-8028031D02*
X10212177Y-8047079D01*
X10212177Y-8047079D02*
X10221701Y-8085174D01*
X10221701Y-8085174D02*
X10221701Y-8132793D01*
X10221701Y-8132793D02*
X10212177Y-8170888D01*
X10212177Y-8170888D02*
X10202653Y-8189936D01*
X10202653Y-8189936D02*
X10193129Y-8199460D01*
X10193129Y-8199460D02*
X10174082Y-8208984D01*
X10174082Y-8208984D02*
X10155034Y-8208984D01*
X10155034Y-8208984D02*
X10135987Y-8199460D01*
X10135987Y-8199460D02*
X10126463Y-8189936D01*
X10126463Y-8189936D02*
X10116939Y-8170888D01*
X10116939Y-8170888D02*
X10107415Y-8132793D01*
X10107415Y-8132793D02*
X10107415Y-8085174D01*
X10107415Y-8085174D02*
X10116939Y-8047079D01*
X10116939Y-8047079D02*
X10126463Y-8028031D01*
X10126463Y-8028031D02*
X10135987Y-8018508D01*
X10135987Y-8018508D02*
X10155034Y-8008984D01*
X10307415Y-8189936D02*
X10316939Y-8199460D01*
X10316939Y-8199460D02*
X10307415Y-8208984D01*
X10307415Y-8208984D02*
X10297891Y-8199460D01*
X10297891Y-8199460D02*
X10307415Y-8189936D01*
X10307415Y-8189936D02*
X10307415Y-8208984D01*
X10440748Y-8008984D02*
X10459796Y-8008984D01*
X10459796Y-8008984D02*
X10478844Y-8018508D01*
X10478844Y-8018508D02*
X10488368Y-8028031D01*
X10488368Y-8028031D02*
X10497891Y-8047079D01*
X10497891Y-8047079D02*
X10507415Y-8085174D01*
X10507415Y-8085174D02*
X10507415Y-8132793D01*
X10507415Y-8132793D02*
X10497891Y-8170888D01*
X10497891Y-8170888D02*
X10488368Y-8189936D01*
X10488368Y-8189936D02*
X10478844Y-8199460D01*
X10478844Y-8199460D02*
X10459796Y-8208984D01*
X10459796Y-8208984D02*
X10440748Y-8208984D01*
X10440748Y-8208984D02*
X10421701Y-8199460D01*
X10421701Y-8199460D02*
X10412177Y-8189936D01*
X10412177Y-8189936D02*
X10402653Y-8170888D01*
X10402653Y-8170888D02*
X10393129Y-8132793D01*
X10393129Y-8132793D02*
X10393129Y-8085174D01*
X10393129Y-8085174D02*
X10402653Y-8047079D01*
X10402653Y-8047079D02*
X10412177Y-8028031D01*
X10412177Y-8028031D02*
X10421701Y-8018508D01*
X10421701Y-8018508D02*
X10440748Y-8008984D01*
X10583606Y-8028031D02*
X10593129Y-8018508D01*
X10593129Y-8018508D02*
X10612177Y-8008984D01*
X10612177Y-8008984D02*
X10659796Y-8008984D01*
X10659796Y-8008984D02*
X10678844Y-8018508D01*
X10678844Y-8018508D02*
X10688368Y-8028031D01*
X10688368Y-8028031D02*
X10697891Y-8047079D01*
X10697891Y-8047079D02*
X10697891Y-8066127D01*
X10697891Y-8066127D02*
X10688368Y-8094698D01*
X10688368Y-8094698D02*
X10574082Y-8208984D01*
X10574082Y-8208984D02*
X10697891Y-8208984D01*
X10878844Y-8008984D02*
X10783606Y-8008984D01*
X10783606Y-8008984D02*
X10774082Y-8104222D01*
X10774082Y-8104222D02*
X10783606Y-8094698D01*
X10783606Y-8094698D02*
X10802653Y-8085174D01*
X10802653Y-8085174D02*
X10850272Y-8085174D01*
X10850272Y-8085174D02*
X10869320Y-8094698D01*
X10869320Y-8094698D02*
X10878844Y-8104222D01*
X10878844Y-8104222D02*
X10888368Y-8123269D01*
X10888368Y-8123269D02*
X10888368Y-8170888D01*
X10888368Y-8170888D02*
X10878844Y-8189936D01*
X10878844Y-8189936D02*
X10869320Y-8199460D01*
X10869320Y-8199460D02*
X10850272Y-8208984D01*
X10850272Y-8208984D02*
X10802653Y-8208984D01*
X10802653Y-8208984D02*
X10783606Y-8199460D01*
X10783606Y-8199460D02*
X10774082Y-8189936D01*
X11059796Y-8008984D02*
X11021701Y-8008984D01*
X11021701Y-8008984D02*
X11002653Y-8018508D01*
X11002653Y-8018508D02*
X10993129Y-8028031D01*
X10993129Y-8028031D02*
X10974082Y-8056603D01*
X10974082Y-8056603D02*
X10964558Y-8094698D01*
X10964558Y-8094698D02*
X10964558Y-8170888D01*
X10964558Y-8170888D02*
X10974082Y-8189936D01*
X10974082Y-8189936D02*
X10983606Y-8199460D01*
X10983606Y-8199460D02*
X11002653Y-8208984D01*
X11002653Y-8208984D02*
X11040749Y-8208984D01*
X11040749Y-8208984D02*
X11059796Y-8199460D01*
X11059796Y-8199460D02*
X11069320Y-8189936D01*
X11069320Y-8189936D02*
X11078844Y-8170888D01*
X11078844Y-8170888D02*
X11078844Y-8123269D01*
X11078844Y-8123269D02*
X11069320Y-8104222D01*
X11069320Y-8104222D02*
X11059796Y-8094698D01*
X11059796Y-8094698D02*
X11040749Y-8085174D01*
X11040749Y-8085174D02*
X11002653Y-8085174D01*
X11002653Y-8085174D02*
X10983606Y-8094698D01*
X10983606Y-8094698D02*
X10974082Y-8104222D01*
X10974082Y-8104222D02*
X10964558Y-8123269D01*
X11155034Y-8008984D02*
X11155034Y-8047079D01*
X11231225Y-8008984D02*
X11231225Y-8047079D01*
X11526463Y-8285174D02*
X11516939Y-8275650D01*
X11516939Y-8275650D02*
X11497891Y-8247079D01*
X11497891Y-8247079D02*
X11488368Y-8228031D01*
X11488368Y-8228031D02*
X11478844Y-8199460D01*
X11478844Y-8199460D02*
X11469320Y-8151841D01*
X11469320Y-8151841D02*
X11469320Y-8113746D01*
X11469320Y-8113746D02*
X11478844Y-8066127D01*
X11478844Y-8066127D02*
X11488368Y-8037555D01*
X11488368Y-8037555D02*
X11497891Y-8018508D01*
X11497891Y-8018508D02*
X11516939Y-7989936D01*
X11516939Y-7989936D02*
X11526463Y-7980412D01*
X11593129Y-8028031D02*
X11602653Y-8018508D01*
X11602653Y-8018508D02*
X11621701Y-8008984D01*
X11621701Y-8008984D02*
X11669320Y-8008984D01*
X11669320Y-8008984D02*
X11688368Y-8018508D01*
X11688368Y-8018508D02*
X11697891Y-8028031D01*
X11697891Y-8028031D02*
X11707415Y-8047079D01*
X11707415Y-8047079D02*
X11707415Y-8066127D01*
X11707415Y-8066127D02*
X11697891Y-8094698D01*
X11697891Y-8094698D02*
X11583606Y-8208984D01*
X11583606Y-8208984D02*
X11707415Y-8208984D01*
X11945510Y-8208984D02*
X11945510Y-8008984D01*
X12031225Y-8208984D02*
X12031225Y-8104222D01*
X12031225Y-8104222D02*
X12021701Y-8085174D01*
X12021701Y-8085174D02*
X12002653Y-8075650D01*
X12002653Y-8075650D02*
X11974082Y-8075650D01*
X11974082Y-8075650D02*
X11955034Y-8085174D01*
X11955034Y-8085174D02*
X11945510Y-8094698D01*
X12155034Y-8208984D02*
X12135987Y-8199460D01*
X12135987Y-8199460D02*
X12126463Y-8189936D01*
X12126463Y-8189936D02*
X12116939Y-8170888D01*
X12116939Y-8170888D02*
X12116939Y-8113746D01*
X12116939Y-8113746D02*
X12126463Y-8094698D01*
X12126463Y-8094698D02*
X12135987Y-8085174D01*
X12135987Y-8085174D02*
X12155034Y-8075650D01*
X12155034Y-8075650D02*
X12183606Y-8075650D01*
X12183606Y-8075650D02*
X12202653Y-8085174D01*
X12202653Y-8085174D02*
X12212177Y-8094698D01*
X12212177Y-8094698D02*
X12221701Y-8113746D01*
X12221701Y-8113746D02*
X12221701Y-8170888D01*
X12221701Y-8170888D02*
X12212177Y-8189936D01*
X12212177Y-8189936D02*
X12202653Y-8199460D01*
X12202653Y-8199460D02*
X12183606Y-8208984D01*
X12183606Y-8208984D02*
X12155034Y-8208984D01*
X12335987Y-8208984D02*
X12316939Y-8199460D01*
X12316939Y-8199460D02*
X12307415Y-8180412D01*
X12307415Y-8180412D02*
X12307415Y-8008984D01*
X12488368Y-8199460D02*
X12469320Y-8208984D01*
X12469320Y-8208984D02*
X12431225Y-8208984D01*
X12431225Y-8208984D02*
X12412177Y-8199460D01*
X12412177Y-8199460D02*
X12402653Y-8180412D01*
X12402653Y-8180412D02*
X12402653Y-8104222D01*
X12402653Y-8104222D02*
X12412177Y-8085174D01*
X12412177Y-8085174D02*
X12431225Y-8075650D01*
X12431225Y-8075650D02*
X12469320Y-8075650D01*
X12469320Y-8075650D02*
X12488368Y-8085174D01*
X12488368Y-8085174D02*
X12497891Y-8104222D01*
X12497891Y-8104222D02*
X12497891Y-8123269D01*
X12497891Y-8123269D02*
X12402653Y-8142317D01*
X12574082Y-8199460D02*
X12593130Y-8208984D01*
X12593130Y-8208984D02*
X12631225Y-8208984D01*
X12631225Y-8208984D02*
X12650272Y-8199460D01*
X12650272Y-8199460D02*
X12659796Y-8180412D01*
X12659796Y-8180412D02*
X12659796Y-8170888D01*
X12659796Y-8170888D02*
X12650272Y-8151841D01*
X12650272Y-8151841D02*
X12631225Y-8142317D01*
X12631225Y-8142317D02*
X12602653Y-8142317D01*
X12602653Y-8142317D02*
X12583606Y-8132793D01*
X12583606Y-8132793D02*
X12574082Y-8113746D01*
X12574082Y-8113746D02*
X12574082Y-8104222D01*
X12574082Y-8104222D02*
X12583606Y-8085174D01*
X12583606Y-8085174D02*
X12602653Y-8075650D01*
X12602653Y-8075650D02*
X12631225Y-8075650D01*
X12631225Y-8075650D02*
X12650272Y-8085174D01*
X12726463Y-8285174D02*
X12735987Y-8275650D01*
X12735987Y-8275650D02*
X12755034Y-8247079D01*
X12755034Y-8247079D02*
X12764558Y-8228031D01*
X12764558Y-8228031D02*
X12774082Y-8199460D01*
X12774082Y-8199460D02*
X12783606Y-8151841D01*
X12783606Y-8151841D02*
X12783606Y-8113746D01*
X12783606Y-8113746D02*
X12774082Y-8066127D01*
X12774082Y-8066127D02*
X12764558Y-8037555D01*
X12764558Y-8037555D02*
X12755034Y-8018508D01*
X12755034Y-8018508D02*
X12735987Y-7989936D01*
X12735987Y-7989936D02*
X12726463Y-7980412D01*
X13088368Y-8285174D02*
X13078844Y-8275650D01*
X13078844Y-8275650D02*
X13059796Y-8247079D01*
X13059796Y-8247079D02*
X13050272Y-8228031D01*
X13050272Y-8228031D02*
X13040749Y-8199460D01*
X13040749Y-8199460D02*
X13031225Y-8151841D01*
X13031225Y-8151841D02*
X13031225Y-8113746D01*
X13031225Y-8113746D02*
X13040749Y-8066127D01*
X13040749Y-8066127D02*
X13050272Y-8037555D01*
X13050272Y-8037555D02*
X13059796Y-8018508D01*
X13059796Y-8018508D02*
X13078844Y-7989936D01*
X13078844Y-7989936D02*
X13088368Y-7980412D01*
X13164558Y-8075650D02*
X13164558Y-8208984D01*
X13164558Y-8094698D02*
X13174082Y-8085174D01*
X13174082Y-8085174D02*
X13193130Y-8075650D01*
X13193130Y-8075650D02*
X13221701Y-8075650D01*
X13221701Y-8075650D02*
X13240749Y-8085174D01*
X13240749Y-8085174D02*
X13250272Y-8104222D01*
X13250272Y-8104222D02*
X13250272Y-8208984D01*
X13374082Y-8208984D02*
X13355034Y-8199460D01*
X13355034Y-8199460D02*
X13345511Y-8189936D01*
X13345511Y-8189936D02*
X13335987Y-8170888D01*
X13335987Y-8170888D02*
X13335987Y-8113746D01*
X13335987Y-8113746D02*
X13345511Y-8094698D01*
X13345511Y-8094698D02*
X13355034Y-8085174D01*
X13355034Y-8085174D02*
X13374082Y-8075650D01*
X13374082Y-8075650D02*
X13402653Y-8075650D01*
X13402653Y-8075650D02*
X13421701Y-8085174D01*
X13421701Y-8085174D02*
X13431225Y-8094698D01*
X13431225Y-8094698D02*
X13440749Y-8113746D01*
X13440749Y-8113746D02*
X13440749Y-8170888D01*
X13440749Y-8170888D02*
X13431225Y-8189936D01*
X13431225Y-8189936D02*
X13421701Y-8199460D01*
X13421701Y-8199460D02*
X13402653Y-8208984D01*
X13402653Y-8208984D02*
X13374082Y-8208984D01*
X13497892Y-8075650D02*
X13574082Y-8075650D01*
X13526463Y-8008984D02*
X13526463Y-8180412D01*
X13526463Y-8180412D02*
X13535987Y-8199460D01*
X13535987Y-8199460D02*
X13555034Y-8208984D01*
X13555034Y-8208984D02*
X13574082Y-8208984D01*
X13793130Y-8075650D02*
X13793130Y-8275650D01*
X13793130Y-8085174D02*
X13812177Y-8075650D01*
X13812177Y-8075650D02*
X13850273Y-8075650D01*
X13850273Y-8075650D02*
X13869320Y-8085174D01*
X13869320Y-8085174D02*
X13878844Y-8094698D01*
X13878844Y-8094698D02*
X13888368Y-8113746D01*
X13888368Y-8113746D02*
X13888368Y-8170888D01*
X13888368Y-8170888D02*
X13878844Y-8189936D01*
X13878844Y-8189936D02*
X13869320Y-8199460D01*
X13869320Y-8199460D02*
X13850273Y-8208984D01*
X13850273Y-8208984D02*
X13812177Y-8208984D01*
X13812177Y-8208984D02*
X13793130Y-8199460D01*
X14002653Y-8208984D02*
X13983606Y-8199460D01*
X13983606Y-8199460D02*
X13974082Y-8180412D01*
X13974082Y-8180412D02*
X13974082Y-8008984D01*
X14164558Y-8208984D02*
X14164558Y-8104222D01*
X14164558Y-8104222D02*
X14155034Y-8085174D01*
X14155034Y-8085174D02*
X14135987Y-8075650D01*
X14135987Y-8075650D02*
X14097892Y-8075650D01*
X14097892Y-8075650D02*
X14078844Y-8085174D01*
X14164558Y-8199460D02*
X14145511Y-8208984D01*
X14145511Y-8208984D02*
X14097892Y-8208984D01*
X14097892Y-8208984D02*
X14078844Y-8199460D01*
X14078844Y-8199460D02*
X14069320Y-8180412D01*
X14069320Y-8180412D02*
X14069320Y-8161365D01*
X14069320Y-8161365D02*
X14078844Y-8142317D01*
X14078844Y-8142317D02*
X14097892Y-8132793D01*
X14097892Y-8132793D02*
X14145511Y-8132793D01*
X14145511Y-8132793D02*
X14164558Y-8123269D01*
X14231225Y-8075650D02*
X14307415Y-8075650D01*
X14259796Y-8008984D02*
X14259796Y-8180412D01*
X14259796Y-8180412D02*
X14269320Y-8199460D01*
X14269320Y-8199460D02*
X14288368Y-8208984D01*
X14288368Y-8208984D02*
X14307415Y-8208984D01*
X14450273Y-8199460D02*
X14431225Y-8208984D01*
X14431225Y-8208984D02*
X14393130Y-8208984D01*
X14393130Y-8208984D02*
X14374082Y-8199460D01*
X14374082Y-8199460D02*
X14364558Y-8180412D01*
X14364558Y-8180412D02*
X14364558Y-8104222D01*
X14364558Y-8104222D02*
X14374082Y-8085174D01*
X14374082Y-8085174D02*
X14393130Y-8075650D01*
X14393130Y-8075650D02*
X14431225Y-8075650D01*
X14431225Y-8075650D02*
X14450273Y-8085174D01*
X14450273Y-8085174D02*
X14459796Y-8104222D01*
X14459796Y-8104222D02*
X14459796Y-8123269D01*
X14459796Y-8123269D02*
X14364558Y-8142317D01*
X14631225Y-8208984D02*
X14631225Y-8008984D01*
X14631225Y-8199460D02*
X14612177Y-8208984D01*
X14612177Y-8208984D02*
X14574082Y-8208984D01*
X14574082Y-8208984D02*
X14555034Y-8199460D01*
X14555034Y-8199460D02*
X14545511Y-8189936D01*
X14545511Y-8189936D02*
X14535987Y-8170888D01*
X14535987Y-8170888D02*
X14535987Y-8113746D01*
X14535987Y-8113746D02*
X14545511Y-8094698D01*
X14545511Y-8094698D02*
X14555034Y-8085174D01*
X14555034Y-8085174D02*
X14574082Y-8075650D01*
X14574082Y-8075650D02*
X14612177Y-8075650D01*
X14612177Y-8075650D02*
X14631225Y-8085174D01*
X14707415Y-8285174D02*
X14716939Y-8275650D01*
X14716939Y-8275650D02*
X14735987Y-8247079D01*
X14735987Y-8247079D02*
X14745511Y-8228031D01*
X14745511Y-8228031D02*
X14755034Y-8199460D01*
X14755034Y-8199460D02*
X14764558Y-8151841D01*
X14764558Y-8151841D02*
X14764558Y-8113746D01*
X14764558Y-8113746D02*
X14755034Y-8066127D01*
X14755034Y-8066127D02*
X14745511Y-8037555D01*
X14745511Y-8037555D02*
X14735987Y-8018508D01*
X14735987Y-8018508D02*
X14716939Y-7989936D01*
X14716939Y-7989936D02*
X14707415Y-7980412D01*
M02*
