%TF.GenerationSoftware,KiCad,Pcbnew,8.0.8*%
%TF.CreationDate,2025-02-10T14:02:50+00:00*%
%TF.ProjectId,stm32c071devboard,73746d33-3263-4303-9731-646576626f61,rev?*%
%TF.SameCoordinates,Original*%
%TF.FileFunction,Legend,Bot*%
%TF.FilePolarity,Positive*%
%FSLAX46Y46*%
G04 Gerber Fmt 4.6, Leading zero omitted, Abs format (unit mm)*
G04 Created by KiCad (PCBNEW 8.0.8) date 2025-02-10 14:02:50*
%MOMM*%
%LPD*%
G01*
G04 APERTURE LIST*
%ADD10C,0.200000*%
%ADD11C,0.300000*%
%ADD12C,0.650000*%
%ADD13O,2.100000X1.000000*%
%ADD14O,1.800000X1.000000*%
%ADD15O,0.860000X0.770000*%
%ADD16R,1.700000X1.700000*%
%ADD17O,1.700000X1.700000*%
%ADD18R,0.850000X0.850000*%
G04 APERTURE END LIST*
D10*
X112632780Y-62130326D02*
X113632780Y-62130326D01*
X113632780Y-62130326D02*
X112632780Y-61558898D01*
X112632780Y-61558898D02*
X113632780Y-61558898D01*
X112632780Y-60511279D02*
X113108971Y-60844612D01*
X112632780Y-61082707D02*
X113632780Y-61082707D01*
X113632780Y-61082707D02*
X113632780Y-60701755D01*
X113632780Y-60701755D02*
X113585161Y-60606517D01*
X113585161Y-60606517D02*
X113537542Y-60558898D01*
X113537542Y-60558898D02*
X113442304Y-60511279D01*
X113442304Y-60511279D02*
X113299447Y-60511279D01*
X113299447Y-60511279D02*
X113204209Y-60558898D01*
X113204209Y-60558898D02*
X113156590Y-60606517D01*
X113156590Y-60606517D02*
X113108971Y-60701755D01*
X113108971Y-60701755D02*
X113108971Y-61082707D01*
X112680400Y-60130326D02*
X112632780Y-59987469D01*
X112632780Y-59987469D02*
X112632780Y-59749374D01*
X112632780Y-59749374D02*
X112680400Y-59654136D01*
X112680400Y-59654136D02*
X112728019Y-59606517D01*
X112728019Y-59606517D02*
X112823257Y-59558898D01*
X112823257Y-59558898D02*
X112918495Y-59558898D01*
X112918495Y-59558898D02*
X113013733Y-59606517D01*
X113013733Y-59606517D02*
X113061352Y-59654136D01*
X113061352Y-59654136D02*
X113108971Y-59749374D01*
X113108971Y-59749374D02*
X113156590Y-59939850D01*
X113156590Y-59939850D02*
X113204209Y-60035088D01*
X113204209Y-60035088D02*
X113251828Y-60082707D01*
X113251828Y-60082707D02*
X113347066Y-60130326D01*
X113347066Y-60130326D02*
X113442304Y-60130326D01*
X113442304Y-60130326D02*
X113537542Y-60082707D01*
X113537542Y-60082707D02*
X113585161Y-60035088D01*
X113585161Y-60035088D02*
X113632780Y-59939850D01*
X113632780Y-59939850D02*
X113632780Y-59701755D01*
X113632780Y-59701755D02*
X113585161Y-59558898D01*
X113632780Y-59273183D02*
X113632780Y-58701755D01*
X112632780Y-58987469D02*
X113632780Y-58987469D01*
X105656590Y-70796993D02*
X105608971Y-70654136D01*
X105608971Y-70654136D02*
X105561352Y-70606517D01*
X105561352Y-70606517D02*
X105466114Y-70558898D01*
X105466114Y-70558898D02*
X105323257Y-70558898D01*
X105323257Y-70558898D02*
X105228019Y-70606517D01*
X105228019Y-70606517D02*
X105180400Y-70654136D01*
X105180400Y-70654136D02*
X105132780Y-70749374D01*
X105132780Y-70749374D02*
X105132780Y-71130326D01*
X105132780Y-71130326D02*
X106132780Y-71130326D01*
X106132780Y-71130326D02*
X106132780Y-70796993D01*
X106132780Y-70796993D02*
X106085161Y-70701755D01*
X106085161Y-70701755D02*
X106037542Y-70654136D01*
X106037542Y-70654136D02*
X105942304Y-70606517D01*
X105942304Y-70606517D02*
X105847066Y-70606517D01*
X105847066Y-70606517D02*
X105751828Y-70654136D01*
X105751828Y-70654136D02*
X105704209Y-70701755D01*
X105704209Y-70701755D02*
X105656590Y-70796993D01*
X105656590Y-70796993D02*
X105656590Y-71130326D01*
X105704209Y-69987469D02*
X105751828Y-70082707D01*
X105751828Y-70082707D02*
X105799447Y-70130326D01*
X105799447Y-70130326D02*
X105894685Y-70177945D01*
X105894685Y-70177945D02*
X105942304Y-70177945D01*
X105942304Y-70177945D02*
X106037542Y-70130326D01*
X106037542Y-70130326D02*
X106085161Y-70082707D01*
X106085161Y-70082707D02*
X106132780Y-69987469D01*
X106132780Y-69987469D02*
X106132780Y-69796993D01*
X106132780Y-69796993D02*
X106085161Y-69701755D01*
X106085161Y-69701755D02*
X106037542Y-69654136D01*
X106037542Y-69654136D02*
X105942304Y-69606517D01*
X105942304Y-69606517D02*
X105894685Y-69606517D01*
X105894685Y-69606517D02*
X105799447Y-69654136D01*
X105799447Y-69654136D02*
X105751828Y-69701755D01*
X105751828Y-69701755D02*
X105704209Y-69796993D01*
X105704209Y-69796993D02*
X105704209Y-69987469D01*
X105704209Y-69987469D02*
X105656590Y-70082707D01*
X105656590Y-70082707D02*
X105608971Y-70130326D01*
X105608971Y-70130326D02*
X105513733Y-70177945D01*
X105513733Y-70177945D02*
X105323257Y-70177945D01*
X105323257Y-70177945D02*
X105228019Y-70130326D01*
X105228019Y-70130326D02*
X105180400Y-70082707D01*
X105180400Y-70082707D02*
X105132780Y-69987469D01*
X105132780Y-69987469D02*
X105132780Y-69796993D01*
X105132780Y-69796993D02*
X105180400Y-69701755D01*
X105180400Y-69701755D02*
X105228019Y-69654136D01*
X105228019Y-69654136D02*
X105323257Y-69606517D01*
X105323257Y-69606517D02*
X105513733Y-69606517D01*
X105513733Y-69606517D02*
X105608971Y-69654136D01*
X105608971Y-69654136D02*
X105656590Y-69701755D01*
X105656590Y-69701755D02*
X105704209Y-69796993D01*
X110418495Y-60677945D02*
X110418495Y-60201755D01*
X110132780Y-60773183D02*
X111132780Y-60439850D01*
X111132780Y-60439850D02*
X110132780Y-60106517D01*
X111132780Y-59582707D02*
X111132780Y-59487469D01*
X111132780Y-59487469D02*
X111085161Y-59392231D01*
X111085161Y-59392231D02*
X111037542Y-59344612D01*
X111037542Y-59344612D02*
X110942304Y-59296993D01*
X110942304Y-59296993D02*
X110751828Y-59249374D01*
X110751828Y-59249374D02*
X110513733Y-59249374D01*
X110513733Y-59249374D02*
X110323257Y-59296993D01*
X110323257Y-59296993D02*
X110228019Y-59344612D01*
X110228019Y-59344612D02*
X110180400Y-59392231D01*
X110180400Y-59392231D02*
X110132780Y-59487469D01*
X110132780Y-59487469D02*
X110132780Y-59582707D01*
X110132780Y-59582707D02*
X110180400Y-59677945D01*
X110180400Y-59677945D02*
X110228019Y-59725564D01*
X110228019Y-59725564D02*
X110323257Y-59773183D01*
X110323257Y-59773183D02*
X110513733Y-59820802D01*
X110513733Y-59820802D02*
X110751828Y-59820802D01*
X110751828Y-59820802D02*
X110942304Y-59773183D01*
X110942304Y-59773183D02*
X111037542Y-59725564D01*
X111037542Y-59725564D02*
X111085161Y-59677945D01*
X111085161Y-59677945D02*
X111132780Y-59582707D01*
X107918495Y-60677945D02*
X107918495Y-60201755D01*
X107632780Y-60773183D02*
X108632780Y-60439850D01*
X108632780Y-60439850D02*
X107632780Y-60106517D01*
X107632780Y-59249374D02*
X107632780Y-59820802D01*
X107632780Y-59535088D02*
X108632780Y-59535088D01*
X108632780Y-59535088D02*
X108489923Y-59630326D01*
X108489923Y-59630326D02*
X108394685Y-59725564D01*
X108394685Y-59725564D02*
X108347066Y-59820802D01*
X102918495Y-60677945D02*
X102918495Y-60201755D01*
X102632780Y-60773183D02*
X103632780Y-60439850D01*
X103632780Y-60439850D02*
X102632780Y-60106517D01*
X103632780Y-59868421D02*
X103632780Y-59249374D01*
X103632780Y-59249374D02*
X103251828Y-59582707D01*
X103251828Y-59582707D02*
X103251828Y-59439850D01*
X103251828Y-59439850D02*
X103204209Y-59344612D01*
X103204209Y-59344612D02*
X103156590Y-59296993D01*
X103156590Y-59296993D02*
X103061352Y-59249374D01*
X103061352Y-59249374D02*
X102823257Y-59249374D01*
X102823257Y-59249374D02*
X102728019Y-59296993D01*
X102728019Y-59296993D02*
X102680400Y-59344612D01*
X102680400Y-59344612D02*
X102632780Y-59439850D01*
X102632780Y-59439850D02*
X102632780Y-59725564D01*
X102632780Y-59725564D02*
X102680400Y-59820802D01*
X102680400Y-59820802D02*
X102728019Y-59868421D01*
X103156590Y-70796993D02*
X103108971Y-70654136D01*
X103108971Y-70654136D02*
X103061352Y-70606517D01*
X103061352Y-70606517D02*
X102966114Y-70558898D01*
X102966114Y-70558898D02*
X102823257Y-70558898D01*
X102823257Y-70558898D02*
X102728019Y-70606517D01*
X102728019Y-70606517D02*
X102680400Y-70654136D01*
X102680400Y-70654136D02*
X102632780Y-70749374D01*
X102632780Y-70749374D02*
X102632780Y-71130326D01*
X102632780Y-71130326D02*
X103632780Y-71130326D01*
X103632780Y-71130326D02*
X103632780Y-70796993D01*
X103632780Y-70796993D02*
X103585161Y-70701755D01*
X103585161Y-70701755D02*
X103537542Y-70654136D01*
X103537542Y-70654136D02*
X103442304Y-70606517D01*
X103442304Y-70606517D02*
X103347066Y-70606517D01*
X103347066Y-70606517D02*
X103251828Y-70654136D01*
X103251828Y-70654136D02*
X103204209Y-70701755D01*
X103204209Y-70701755D02*
X103156590Y-70796993D01*
X103156590Y-70796993D02*
X103156590Y-71130326D01*
X103632780Y-70225564D02*
X103632780Y-69558898D01*
X103632780Y-69558898D02*
X102632780Y-69987469D01*
X97918495Y-60677945D02*
X97918495Y-60201755D01*
X97632780Y-60773183D02*
X98632780Y-60439850D01*
X98632780Y-60439850D02*
X97632780Y-60106517D01*
X98632780Y-59296993D02*
X98632780Y-59773183D01*
X98632780Y-59773183D02*
X98156590Y-59820802D01*
X98156590Y-59820802D02*
X98204209Y-59773183D01*
X98204209Y-59773183D02*
X98251828Y-59677945D01*
X98251828Y-59677945D02*
X98251828Y-59439850D01*
X98251828Y-59439850D02*
X98204209Y-59344612D01*
X98204209Y-59344612D02*
X98156590Y-59296993D01*
X98156590Y-59296993D02*
X98061352Y-59249374D01*
X98061352Y-59249374D02*
X97823257Y-59249374D01*
X97823257Y-59249374D02*
X97728019Y-59296993D01*
X97728019Y-59296993D02*
X97680400Y-59344612D01*
X97680400Y-59344612D02*
X97632780Y-59439850D01*
X97632780Y-59439850D02*
X97632780Y-59677945D01*
X97632780Y-59677945D02*
X97680400Y-59773183D01*
X97680400Y-59773183D02*
X97728019Y-59820802D01*
X116975564Y-58617219D02*
X116356517Y-58617219D01*
X116356517Y-58617219D02*
X116689850Y-58998171D01*
X116689850Y-58998171D02*
X116546993Y-58998171D01*
X116546993Y-58998171D02*
X116451755Y-59045790D01*
X116451755Y-59045790D02*
X116404136Y-59093409D01*
X116404136Y-59093409D02*
X116356517Y-59188647D01*
X116356517Y-59188647D02*
X116356517Y-59426742D01*
X116356517Y-59426742D02*
X116404136Y-59521980D01*
X116404136Y-59521980D02*
X116451755Y-59569600D01*
X116451755Y-59569600D02*
X116546993Y-59617219D01*
X116546993Y-59617219D02*
X116832707Y-59617219D01*
X116832707Y-59617219D02*
X116927945Y-59569600D01*
X116927945Y-59569600D02*
X116975564Y-59521980D01*
X116023183Y-58950552D02*
X115785088Y-59617219D01*
X115785088Y-59617219D02*
X115546993Y-58950552D01*
X115261278Y-58617219D02*
X114642231Y-58617219D01*
X114642231Y-58617219D02*
X114975564Y-58998171D01*
X114975564Y-58998171D02*
X114832707Y-58998171D01*
X114832707Y-58998171D02*
X114737469Y-59045790D01*
X114737469Y-59045790D02*
X114689850Y-59093409D01*
X114689850Y-59093409D02*
X114642231Y-59188647D01*
X114642231Y-59188647D02*
X114642231Y-59426742D01*
X114642231Y-59426742D02*
X114689850Y-59521980D01*
X114689850Y-59521980D02*
X114737469Y-59569600D01*
X114737469Y-59569600D02*
X114832707Y-59617219D01*
X114832707Y-59617219D02*
X115118421Y-59617219D01*
X115118421Y-59617219D02*
X115213659Y-59569600D01*
X115213659Y-59569600D02*
X115261278Y-59521980D01*
X86296993Y-70843409D02*
X86154136Y-70891028D01*
X86154136Y-70891028D02*
X86106517Y-70938647D01*
X86106517Y-70938647D02*
X86058898Y-71033885D01*
X86058898Y-71033885D02*
X86058898Y-71176742D01*
X86058898Y-71176742D02*
X86106517Y-71271980D01*
X86106517Y-71271980D02*
X86154136Y-71319600D01*
X86154136Y-71319600D02*
X86249374Y-71367219D01*
X86249374Y-71367219D02*
X86630326Y-71367219D01*
X86630326Y-71367219D02*
X86630326Y-70367219D01*
X86630326Y-70367219D02*
X86296993Y-70367219D01*
X86296993Y-70367219D02*
X86201755Y-70414838D01*
X86201755Y-70414838D02*
X86154136Y-70462457D01*
X86154136Y-70462457D02*
X86106517Y-70557695D01*
X86106517Y-70557695D02*
X86106517Y-70652933D01*
X86106517Y-70652933D02*
X86154136Y-70748171D01*
X86154136Y-70748171D02*
X86201755Y-70795790D01*
X86201755Y-70795790D02*
X86296993Y-70843409D01*
X86296993Y-70843409D02*
X86630326Y-70843409D01*
X85773183Y-70367219D02*
X85201755Y-70367219D01*
X85487469Y-71367219D02*
X85487469Y-70367219D01*
X84677945Y-70367219D02*
X84582707Y-70367219D01*
X84582707Y-70367219D02*
X84487469Y-70414838D01*
X84487469Y-70414838D02*
X84439850Y-70462457D01*
X84439850Y-70462457D02*
X84392231Y-70557695D01*
X84392231Y-70557695D02*
X84344612Y-70748171D01*
X84344612Y-70748171D02*
X84344612Y-70986266D01*
X84344612Y-70986266D02*
X84392231Y-71176742D01*
X84392231Y-71176742D02*
X84439850Y-71271980D01*
X84439850Y-71271980D02*
X84487469Y-71319600D01*
X84487469Y-71319600D02*
X84582707Y-71367219D01*
X84582707Y-71367219D02*
X84677945Y-71367219D01*
X84677945Y-71367219D02*
X84773183Y-71319600D01*
X84773183Y-71319600D02*
X84820802Y-71271980D01*
X84820802Y-71271980D02*
X84868421Y-71176742D01*
X84868421Y-71176742D02*
X84916040Y-70986266D01*
X84916040Y-70986266D02*
X84916040Y-70748171D01*
X84916040Y-70748171D02*
X84868421Y-70557695D01*
X84868421Y-70557695D02*
X84820802Y-70462457D01*
X84820802Y-70462457D02*
X84773183Y-70414838D01*
X84773183Y-70414838D02*
X84677945Y-70367219D01*
X100418495Y-60677945D02*
X100418495Y-60201755D01*
X100132780Y-60773183D02*
X101132780Y-60439850D01*
X101132780Y-60439850D02*
X100132780Y-60106517D01*
X100799447Y-59344612D02*
X100132780Y-59344612D01*
X101180400Y-59582707D02*
X100466114Y-59820802D01*
X100466114Y-59820802D02*
X100466114Y-59201755D01*
X105418495Y-60677945D02*
X105418495Y-60201755D01*
X105132780Y-60773183D02*
X106132780Y-60439850D01*
X106132780Y-60439850D02*
X105132780Y-60106517D01*
X106037542Y-59820802D02*
X106085161Y-59773183D01*
X106085161Y-59773183D02*
X106132780Y-59677945D01*
X106132780Y-59677945D02*
X106132780Y-59439850D01*
X106132780Y-59439850D02*
X106085161Y-59344612D01*
X106085161Y-59344612D02*
X106037542Y-59296993D01*
X106037542Y-59296993D02*
X105942304Y-59249374D01*
X105942304Y-59249374D02*
X105847066Y-59249374D01*
X105847066Y-59249374D02*
X105704209Y-59296993D01*
X105704209Y-59296993D02*
X105132780Y-59868421D01*
X105132780Y-59868421D02*
X105132780Y-59249374D01*
X95418495Y-60677945D02*
X95418495Y-60201755D01*
X95132780Y-60773183D02*
X96132780Y-60439850D01*
X96132780Y-60439850D02*
X95132780Y-60106517D01*
X96132780Y-59344612D02*
X96132780Y-59535088D01*
X96132780Y-59535088D02*
X96085161Y-59630326D01*
X96085161Y-59630326D02*
X96037542Y-59677945D01*
X96037542Y-59677945D02*
X95894685Y-59773183D01*
X95894685Y-59773183D02*
X95704209Y-59820802D01*
X95704209Y-59820802D02*
X95323257Y-59820802D01*
X95323257Y-59820802D02*
X95228019Y-59773183D01*
X95228019Y-59773183D02*
X95180400Y-59725564D01*
X95180400Y-59725564D02*
X95132780Y-59630326D01*
X95132780Y-59630326D02*
X95132780Y-59439850D01*
X95132780Y-59439850D02*
X95180400Y-59344612D01*
X95180400Y-59344612D02*
X95228019Y-59296993D01*
X95228019Y-59296993D02*
X95323257Y-59249374D01*
X95323257Y-59249374D02*
X95561352Y-59249374D01*
X95561352Y-59249374D02*
X95656590Y-59296993D01*
X95656590Y-59296993D02*
X95704209Y-59344612D01*
X95704209Y-59344612D02*
X95751828Y-59439850D01*
X95751828Y-59439850D02*
X95751828Y-59630326D01*
X95751828Y-59630326D02*
X95704209Y-59725564D01*
X95704209Y-59725564D02*
X95656590Y-59773183D01*
X95656590Y-59773183D02*
X95561352Y-59820802D01*
X93156590Y-70796993D02*
X93108971Y-70654136D01*
X93108971Y-70654136D02*
X93061352Y-70606517D01*
X93061352Y-70606517D02*
X92966114Y-70558898D01*
X92966114Y-70558898D02*
X92823257Y-70558898D01*
X92823257Y-70558898D02*
X92728019Y-70606517D01*
X92728019Y-70606517D02*
X92680400Y-70654136D01*
X92680400Y-70654136D02*
X92632780Y-70749374D01*
X92632780Y-70749374D02*
X92632780Y-71130326D01*
X92632780Y-71130326D02*
X93632780Y-71130326D01*
X93632780Y-71130326D02*
X93632780Y-70796993D01*
X93632780Y-70796993D02*
X93585161Y-70701755D01*
X93585161Y-70701755D02*
X93537542Y-70654136D01*
X93537542Y-70654136D02*
X93442304Y-70606517D01*
X93442304Y-70606517D02*
X93347066Y-70606517D01*
X93347066Y-70606517D02*
X93251828Y-70654136D01*
X93251828Y-70654136D02*
X93204209Y-70701755D01*
X93204209Y-70701755D02*
X93156590Y-70796993D01*
X93156590Y-70796993D02*
X93156590Y-71130326D01*
X93632780Y-70225564D02*
X93632780Y-69606517D01*
X93632780Y-69606517D02*
X93251828Y-69939850D01*
X93251828Y-69939850D02*
X93251828Y-69796993D01*
X93251828Y-69796993D02*
X93204209Y-69701755D01*
X93204209Y-69701755D02*
X93156590Y-69654136D01*
X93156590Y-69654136D02*
X93061352Y-69606517D01*
X93061352Y-69606517D02*
X92823257Y-69606517D01*
X92823257Y-69606517D02*
X92728019Y-69654136D01*
X92728019Y-69654136D02*
X92680400Y-69701755D01*
X92680400Y-69701755D02*
X92632780Y-69796993D01*
X92632780Y-69796993D02*
X92632780Y-70082707D01*
X92632780Y-70082707D02*
X92680400Y-70177945D01*
X92680400Y-70177945D02*
X92728019Y-70225564D01*
X83106517Y-70414838D02*
X83201755Y-70367219D01*
X83201755Y-70367219D02*
X83344612Y-70367219D01*
X83344612Y-70367219D02*
X83487469Y-70414838D01*
X83487469Y-70414838D02*
X83582707Y-70510076D01*
X83582707Y-70510076D02*
X83630326Y-70605314D01*
X83630326Y-70605314D02*
X83677945Y-70795790D01*
X83677945Y-70795790D02*
X83677945Y-70938647D01*
X83677945Y-70938647D02*
X83630326Y-71129123D01*
X83630326Y-71129123D02*
X83582707Y-71224361D01*
X83582707Y-71224361D02*
X83487469Y-71319600D01*
X83487469Y-71319600D02*
X83344612Y-71367219D01*
X83344612Y-71367219D02*
X83249374Y-71367219D01*
X83249374Y-71367219D02*
X83106517Y-71319600D01*
X83106517Y-71319600D02*
X83058898Y-71271980D01*
X83058898Y-71271980D02*
X83058898Y-70938647D01*
X83058898Y-70938647D02*
X83249374Y-70938647D01*
X82630326Y-71367219D02*
X82630326Y-70367219D01*
X82630326Y-70367219D02*
X82058898Y-71367219D01*
X82058898Y-71367219D02*
X82058898Y-70367219D01*
X81582707Y-71367219D02*
X81582707Y-70367219D01*
X81582707Y-70367219D02*
X81344612Y-70367219D01*
X81344612Y-70367219D02*
X81201755Y-70414838D01*
X81201755Y-70414838D02*
X81106517Y-70510076D01*
X81106517Y-70510076D02*
X81058898Y-70605314D01*
X81058898Y-70605314D02*
X81011279Y-70795790D01*
X81011279Y-70795790D02*
X81011279Y-70938647D01*
X81011279Y-70938647D02*
X81058898Y-71129123D01*
X81058898Y-71129123D02*
X81106517Y-71224361D01*
X81106517Y-71224361D02*
X81201755Y-71319600D01*
X81201755Y-71319600D02*
X81344612Y-71367219D01*
X81344612Y-71367219D02*
X81582707Y-71367219D01*
X90418495Y-71177945D02*
X90418495Y-70701755D01*
X90132780Y-71273183D02*
X91132780Y-70939850D01*
X91132780Y-70939850D02*
X90132780Y-70606517D01*
X90132780Y-69749374D02*
X90132780Y-70320802D01*
X90132780Y-70035088D02*
X91132780Y-70035088D01*
X91132780Y-70035088D02*
X90989923Y-70130326D01*
X90989923Y-70130326D02*
X90894685Y-70225564D01*
X90894685Y-70225564D02*
X90847066Y-70320802D01*
X91132780Y-68844612D02*
X91132780Y-69320802D01*
X91132780Y-69320802D02*
X90656590Y-69368421D01*
X90656590Y-69368421D02*
X90704209Y-69320802D01*
X90704209Y-69320802D02*
X90751828Y-69225564D01*
X90751828Y-69225564D02*
X90751828Y-68987469D01*
X90751828Y-68987469D02*
X90704209Y-68892231D01*
X90704209Y-68892231D02*
X90656590Y-68844612D01*
X90656590Y-68844612D02*
X90561352Y-68796993D01*
X90561352Y-68796993D02*
X90323257Y-68796993D01*
X90323257Y-68796993D02*
X90228019Y-68844612D01*
X90228019Y-68844612D02*
X90180400Y-68892231D01*
X90180400Y-68892231D02*
X90132780Y-68987469D01*
X90132780Y-68987469D02*
X90132780Y-69225564D01*
X90132780Y-69225564D02*
X90180400Y-69320802D01*
X90180400Y-69320802D02*
X90228019Y-69368421D01*
X95656590Y-70796993D02*
X95608971Y-70654136D01*
X95608971Y-70654136D02*
X95561352Y-70606517D01*
X95561352Y-70606517D02*
X95466114Y-70558898D01*
X95466114Y-70558898D02*
X95323257Y-70558898D01*
X95323257Y-70558898D02*
X95228019Y-70606517D01*
X95228019Y-70606517D02*
X95180400Y-70654136D01*
X95180400Y-70654136D02*
X95132780Y-70749374D01*
X95132780Y-70749374D02*
X95132780Y-71130326D01*
X95132780Y-71130326D02*
X96132780Y-71130326D01*
X96132780Y-71130326D02*
X96132780Y-70796993D01*
X96132780Y-70796993D02*
X96085161Y-70701755D01*
X96085161Y-70701755D02*
X96037542Y-70654136D01*
X96037542Y-70654136D02*
X95942304Y-70606517D01*
X95942304Y-70606517D02*
X95847066Y-70606517D01*
X95847066Y-70606517D02*
X95751828Y-70654136D01*
X95751828Y-70654136D02*
X95704209Y-70701755D01*
X95704209Y-70701755D02*
X95656590Y-70796993D01*
X95656590Y-70796993D02*
X95656590Y-71130326D01*
X95799447Y-69701755D02*
X95132780Y-69701755D01*
X96180400Y-69939850D02*
X95466114Y-70177945D01*
X95466114Y-70177945D02*
X95466114Y-69558898D01*
X116725564Y-70367219D02*
X116106517Y-70367219D01*
X116106517Y-70367219D02*
X116439850Y-70748171D01*
X116439850Y-70748171D02*
X116296993Y-70748171D01*
X116296993Y-70748171D02*
X116201755Y-70795790D01*
X116201755Y-70795790D02*
X116154136Y-70843409D01*
X116154136Y-70843409D02*
X116106517Y-70938647D01*
X116106517Y-70938647D02*
X116106517Y-71176742D01*
X116106517Y-71176742D02*
X116154136Y-71271980D01*
X116154136Y-71271980D02*
X116201755Y-71319600D01*
X116201755Y-71319600D02*
X116296993Y-71367219D01*
X116296993Y-71367219D02*
X116582707Y-71367219D01*
X116582707Y-71367219D02*
X116677945Y-71319600D01*
X116677945Y-71319600D02*
X116725564Y-71271980D01*
X115773183Y-70700552D02*
X115535088Y-71367219D01*
X115535088Y-71367219D02*
X115296993Y-70700552D01*
X115011278Y-70367219D02*
X114392231Y-70367219D01*
X114392231Y-70367219D02*
X114725564Y-70748171D01*
X114725564Y-70748171D02*
X114582707Y-70748171D01*
X114582707Y-70748171D02*
X114487469Y-70795790D01*
X114487469Y-70795790D02*
X114439850Y-70843409D01*
X114439850Y-70843409D02*
X114392231Y-70938647D01*
X114392231Y-70938647D02*
X114392231Y-71176742D01*
X114392231Y-71176742D02*
X114439850Y-71271980D01*
X114439850Y-71271980D02*
X114487469Y-71319600D01*
X114487469Y-71319600D02*
X114582707Y-71367219D01*
X114582707Y-71367219D02*
X114868421Y-71367219D01*
X114868421Y-71367219D02*
X114963659Y-71319600D01*
X114963659Y-71319600D02*
X115011278Y-71271980D01*
X98156590Y-70796993D02*
X98108971Y-70654136D01*
X98108971Y-70654136D02*
X98061352Y-70606517D01*
X98061352Y-70606517D02*
X97966114Y-70558898D01*
X97966114Y-70558898D02*
X97823257Y-70558898D01*
X97823257Y-70558898D02*
X97728019Y-70606517D01*
X97728019Y-70606517D02*
X97680400Y-70654136D01*
X97680400Y-70654136D02*
X97632780Y-70749374D01*
X97632780Y-70749374D02*
X97632780Y-71130326D01*
X97632780Y-71130326D02*
X98632780Y-71130326D01*
X98632780Y-71130326D02*
X98632780Y-70796993D01*
X98632780Y-70796993D02*
X98585161Y-70701755D01*
X98585161Y-70701755D02*
X98537542Y-70654136D01*
X98537542Y-70654136D02*
X98442304Y-70606517D01*
X98442304Y-70606517D02*
X98347066Y-70606517D01*
X98347066Y-70606517D02*
X98251828Y-70654136D01*
X98251828Y-70654136D02*
X98204209Y-70701755D01*
X98204209Y-70701755D02*
X98156590Y-70796993D01*
X98156590Y-70796993D02*
X98156590Y-71130326D01*
X98632780Y-69654136D02*
X98632780Y-70130326D01*
X98632780Y-70130326D02*
X98156590Y-70177945D01*
X98156590Y-70177945D02*
X98204209Y-70130326D01*
X98204209Y-70130326D02*
X98251828Y-70035088D01*
X98251828Y-70035088D02*
X98251828Y-69796993D01*
X98251828Y-69796993D02*
X98204209Y-69701755D01*
X98204209Y-69701755D02*
X98156590Y-69654136D01*
X98156590Y-69654136D02*
X98061352Y-69606517D01*
X98061352Y-69606517D02*
X97823257Y-69606517D01*
X97823257Y-69606517D02*
X97728019Y-69654136D01*
X97728019Y-69654136D02*
X97680400Y-69701755D01*
X97680400Y-69701755D02*
X97632780Y-69796993D01*
X97632780Y-69796993D02*
X97632780Y-70035088D01*
X97632780Y-70035088D02*
X97680400Y-70130326D01*
X97680400Y-70130326D02*
X97728019Y-70177945D01*
X110228019Y-70558898D02*
X110180400Y-70606517D01*
X110180400Y-70606517D02*
X110132780Y-70749374D01*
X110132780Y-70749374D02*
X110132780Y-70844612D01*
X110132780Y-70844612D02*
X110180400Y-70987469D01*
X110180400Y-70987469D02*
X110275638Y-71082707D01*
X110275638Y-71082707D02*
X110370876Y-71130326D01*
X110370876Y-71130326D02*
X110561352Y-71177945D01*
X110561352Y-71177945D02*
X110704209Y-71177945D01*
X110704209Y-71177945D02*
X110894685Y-71130326D01*
X110894685Y-71130326D02*
X110989923Y-71082707D01*
X110989923Y-71082707D02*
X111085161Y-70987469D01*
X111085161Y-70987469D02*
X111132780Y-70844612D01*
X111132780Y-70844612D02*
X111132780Y-70749374D01*
X111132780Y-70749374D02*
X111085161Y-70606517D01*
X111085161Y-70606517D02*
X111037542Y-70558898D01*
X110132780Y-69606517D02*
X110132780Y-70177945D01*
X110132780Y-69892231D02*
X111132780Y-69892231D01*
X111132780Y-69892231D02*
X110989923Y-69987469D01*
X110989923Y-69987469D02*
X110894685Y-70082707D01*
X110894685Y-70082707D02*
X110847066Y-70177945D01*
X111132780Y-68701755D02*
X111132780Y-69177945D01*
X111132780Y-69177945D02*
X110656590Y-69225564D01*
X110656590Y-69225564D02*
X110704209Y-69177945D01*
X110704209Y-69177945D02*
X110751828Y-69082707D01*
X110751828Y-69082707D02*
X110751828Y-68844612D01*
X110751828Y-68844612D02*
X110704209Y-68749374D01*
X110704209Y-68749374D02*
X110656590Y-68701755D01*
X110656590Y-68701755D02*
X110561352Y-68654136D01*
X110561352Y-68654136D02*
X110323257Y-68654136D01*
X110323257Y-68654136D02*
X110228019Y-68701755D01*
X110228019Y-68701755D02*
X110180400Y-68749374D01*
X110180400Y-68749374D02*
X110132780Y-68844612D01*
X110132780Y-68844612D02*
X110132780Y-69082707D01*
X110132780Y-69082707D02*
X110180400Y-69177945D01*
X110180400Y-69177945D02*
X110228019Y-69225564D01*
X86177945Y-59581504D02*
X85701755Y-59581504D01*
X86273183Y-59867219D02*
X85939850Y-58867219D01*
X85939850Y-58867219D02*
X85606517Y-59867219D01*
X85130326Y-59295790D02*
X85225564Y-59248171D01*
X85225564Y-59248171D02*
X85273183Y-59200552D01*
X85273183Y-59200552D02*
X85320802Y-59105314D01*
X85320802Y-59105314D02*
X85320802Y-59057695D01*
X85320802Y-59057695D02*
X85273183Y-58962457D01*
X85273183Y-58962457D02*
X85225564Y-58914838D01*
X85225564Y-58914838D02*
X85130326Y-58867219D01*
X85130326Y-58867219D02*
X84939850Y-58867219D01*
X84939850Y-58867219D02*
X84844612Y-58914838D01*
X84844612Y-58914838D02*
X84796993Y-58962457D01*
X84796993Y-58962457D02*
X84749374Y-59057695D01*
X84749374Y-59057695D02*
X84749374Y-59105314D01*
X84749374Y-59105314D02*
X84796993Y-59200552D01*
X84796993Y-59200552D02*
X84844612Y-59248171D01*
X84844612Y-59248171D02*
X84939850Y-59295790D01*
X84939850Y-59295790D02*
X85130326Y-59295790D01*
X85130326Y-59295790D02*
X85225564Y-59343409D01*
X85225564Y-59343409D02*
X85273183Y-59391028D01*
X85273183Y-59391028D02*
X85320802Y-59486266D01*
X85320802Y-59486266D02*
X85320802Y-59676742D01*
X85320802Y-59676742D02*
X85273183Y-59771980D01*
X85273183Y-59771980D02*
X85225564Y-59819600D01*
X85225564Y-59819600D02*
X85130326Y-59867219D01*
X85130326Y-59867219D02*
X84939850Y-59867219D01*
X84939850Y-59867219D02*
X84844612Y-59819600D01*
X84844612Y-59819600D02*
X84796993Y-59771980D01*
X84796993Y-59771980D02*
X84749374Y-59676742D01*
X84749374Y-59676742D02*
X84749374Y-59486266D01*
X84749374Y-59486266D02*
X84796993Y-59391028D01*
X84796993Y-59391028D02*
X84844612Y-59343409D01*
X84844612Y-59343409D02*
X84939850Y-59295790D01*
X112632780Y-70654136D02*
X112632780Y-71130326D01*
X112632780Y-71130326D02*
X113632780Y-71130326D01*
X113156590Y-70320802D02*
X113156590Y-69987469D01*
X112632780Y-69844612D02*
X112632780Y-70320802D01*
X112632780Y-70320802D02*
X113632780Y-70320802D01*
X113632780Y-70320802D02*
X113632780Y-69844612D01*
X112632780Y-69416040D02*
X113632780Y-69416040D01*
X113632780Y-69416040D02*
X113632780Y-69177945D01*
X113632780Y-69177945D02*
X113585161Y-69035088D01*
X113585161Y-69035088D02*
X113489923Y-68939850D01*
X113489923Y-68939850D02*
X113394685Y-68892231D01*
X113394685Y-68892231D02*
X113204209Y-68844612D01*
X113204209Y-68844612D02*
X113061352Y-68844612D01*
X113061352Y-68844612D02*
X112870876Y-68892231D01*
X112870876Y-68892231D02*
X112775638Y-68939850D01*
X112775638Y-68939850D02*
X112680400Y-69035088D01*
X112680400Y-69035088D02*
X112632780Y-69177945D01*
X112632780Y-69177945D02*
X112632780Y-69416040D01*
X92918495Y-60677945D02*
X92918495Y-60201755D01*
X92632780Y-60773183D02*
X93632780Y-60439850D01*
X93632780Y-60439850D02*
X92632780Y-60106517D01*
X93632780Y-59868421D02*
X93632780Y-59201755D01*
X93632780Y-59201755D02*
X92632780Y-59630326D01*
X83106517Y-58914838D02*
X83201755Y-58867219D01*
X83201755Y-58867219D02*
X83344612Y-58867219D01*
X83344612Y-58867219D02*
X83487469Y-58914838D01*
X83487469Y-58914838D02*
X83582707Y-59010076D01*
X83582707Y-59010076D02*
X83630326Y-59105314D01*
X83630326Y-59105314D02*
X83677945Y-59295790D01*
X83677945Y-59295790D02*
X83677945Y-59438647D01*
X83677945Y-59438647D02*
X83630326Y-59629123D01*
X83630326Y-59629123D02*
X83582707Y-59724361D01*
X83582707Y-59724361D02*
X83487469Y-59819600D01*
X83487469Y-59819600D02*
X83344612Y-59867219D01*
X83344612Y-59867219D02*
X83249374Y-59867219D01*
X83249374Y-59867219D02*
X83106517Y-59819600D01*
X83106517Y-59819600D02*
X83058898Y-59771980D01*
X83058898Y-59771980D02*
X83058898Y-59438647D01*
X83058898Y-59438647D02*
X83249374Y-59438647D01*
X82630326Y-59867219D02*
X82630326Y-58867219D01*
X82630326Y-58867219D02*
X82058898Y-59867219D01*
X82058898Y-59867219D02*
X82058898Y-58867219D01*
X81582707Y-59867219D02*
X81582707Y-58867219D01*
X81582707Y-58867219D02*
X81344612Y-58867219D01*
X81344612Y-58867219D02*
X81201755Y-58914838D01*
X81201755Y-58914838D02*
X81106517Y-59010076D01*
X81106517Y-59010076D02*
X81058898Y-59105314D01*
X81058898Y-59105314D02*
X81011279Y-59295790D01*
X81011279Y-59295790D02*
X81011279Y-59438647D01*
X81011279Y-59438647D02*
X81058898Y-59629123D01*
X81058898Y-59629123D02*
X81106517Y-59724361D01*
X81106517Y-59724361D02*
X81201755Y-59819600D01*
X81201755Y-59819600D02*
X81344612Y-59867219D01*
X81344612Y-59867219D02*
X81582707Y-59867219D01*
X107728019Y-70558898D02*
X107680400Y-70606517D01*
X107680400Y-70606517D02*
X107632780Y-70749374D01*
X107632780Y-70749374D02*
X107632780Y-70844612D01*
X107632780Y-70844612D02*
X107680400Y-70987469D01*
X107680400Y-70987469D02*
X107775638Y-71082707D01*
X107775638Y-71082707D02*
X107870876Y-71130326D01*
X107870876Y-71130326D02*
X108061352Y-71177945D01*
X108061352Y-71177945D02*
X108204209Y-71177945D01*
X108204209Y-71177945D02*
X108394685Y-71130326D01*
X108394685Y-71130326D02*
X108489923Y-71082707D01*
X108489923Y-71082707D02*
X108585161Y-70987469D01*
X108585161Y-70987469D02*
X108632780Y-70844612D01*
X108632780Y-70844612D02*
X108632780Y-70749374D01*
X108632780Y-70749374D02*
X108585161Y-70606517D01*
X108585161Y-70606517D02*
X108537542Y-70558898D01*
X107632780Y-69606517D02*
X107632780Y-70177945D01*
X107632780Y-69892231D02*
X108632780Y-69892231D01*
X108632780Y-69892231D02*
X108489923Y-69987469D01*
X108489923Y-69987469D02*
X108394685Y-70082707D01*
X108394685Y-70082707D02*
X108347066Y-70177945D01*
X108299447Y-68749374D02*
X107632780Y-68749374D01*
X108680400Y-68987469D02*
X107966114Y-69225564D01*
X107966114Y-69225564D02*
X107966114Y-68606517D01*
D11*
X110666917Y-64429400D02*
X110452632Y-64500828D01*
X110452632Y-64500828D02*
X110095489Y-64500828D01*
X110095489Y-64500828D02*
X109952632Y-64429400D01*
X109952632Y-64429400D02*
X109881203Y-64357971D01*
X109881203Y-64357971D02*
X109809774Y-64215114D01*
X109809774Y-64215114D02*
X109809774Y-64072257D01*
X109809774Y-64072257D02*
X109881203Y-63929400D01*
X109881203Y-63929400D02*
X109952632Y-63857971D01*
X109952632Y-63857971D02*
X110095489Y-63786542D01*
X110095489Y-63786542D02*
X110381203Y-63715114D01*
X110381203Y-63715114D02*
X110524060Y-63643685D01*
X110524060Y-63643685D02*
X110595489Y-63572257D01*
X110595489Y-63572257D02*
X110666917Y-63429400D01*
X110666917Y-63429400D02*
X110666917Y-63286542D01*
X110666917Y-63286542D02*
X110595489Y-63143685D01*
X110595489Y-63143685D02*
X110524060Y-63072257D01*
X110524060Y-63072257D02*
X110381203Y-63000828D01*
X110381203Y-63000828D02*
X110024060Y-63000828D01*
X110024060Y-63000828D02*
X109809774Y-63072257D01*
X109381203Y-63000828D02*
X108524061Y-63000828D01*
X108952632Y-64500828D02*
X108952632Y-63000828D01*
X108024061Y-64500828D02*
X108024061Y-63000828D01*
X108024061Y-63000828D02*
X107524061Y-64072257D01*
X107524061Y-64072257D02*
X107024061Y-63000828D01*
X107024061Y-63000828D02*
X107024061Y-64500828D01*
X106452632Y-63000828D02*
X105524060Y-63000828D01*
X105524060Y-63000828D02*
X106024060Y-63572257D01*
X106024060Y-63572257D02*
X105809775Y-63572257D01*
X105809775Y-63572257D02*
X105666918Y-63643685D01*
X105666918Y-63643685D02*
X105595489Y-63715114D01*
X105595489Y-63715114D02*
X105524060Y-63857971D01*
X105524060Y-63857971D02*
X105524060Y-64215114D01*
X105524060Y-64215114D02*
X105595489Y-64357971D01*
X105595489Y-64357971D02*
X105666918Y-64429400D01*
X105666918Y-64429400D02*
X105809775Y-64500828D01*
X105809775Y-64500828D02*
X106238346Y-64500828D01*
X106238346Y-64500828D02*
X106381203Y-64429400D01*
X106381203Y-64429400D02*
X106452632Y-64357971D01*
X104952632Y-63143685D02*
X104881204Y-63072257D01*
X104881204Y-63072257D02*
X104738347Y-63000828D01*
X104738347Y-63000828D02*
X104381204Y-63000828D01*
X104381204Y-63000828D02*
X104238347Y-63072257D01*
X104238347Y-63072257D02*
X104166918Y-63143685D01*
X104166918Y-63143685D02*
X104095489Y-63286542D01*
X104095489Y-63286542D02*
X104095489Y-63429400D01*
X104095489Y-63429400D02*
X104166918Y-63643685D01*
X104166918Y-63643685D02*
X105024061Y-64500828D01*
X105024061Y-64500828D02*
X104095489Y-64500828D01*
X102595490Y-64357971D02*
X102666918Y-64429400D01*
X102666918Y-64429400D02*
X102881204Y-64500828D01*
X102881204Y-64500828D02*
X103024061Y-64500828D01*
X103024061Y-64500828D02*
X103238347Y-64429400D01*
X103238347Y-64429400D02*
X103381204Y-64286542D01*
X103381204Y-64286542D02*
X103452633Y-64143685D01*
X103452633Y-64143685D02*
X103524061Y-63857971D01*
X103524061Y-63857971D02*
X103524061Y-63643685D01*
X103524061Y-63643685D02*
X103452633Y-63357971D01*
X103452633Y-63357971D02*
X103381204Y-63215114D01*
X103381204Y-63215114D02*
X103238347Y-63072257D01*
X103238347Y-63072257D02*
X103024061Y-63000828D01*
X103024061Y-63000828D02*
X102881204Y-63000828D01*
X102881204Y-63000828D02*
X102666918Y-63072257D01*
X102666918Y-63072257D02*
X102595490Y-63143685D01*
X101666918Y-63000828D02*
X101524061Y-63000828D01*
X101524061Y-63000828D02*
X101381204Y-63072257D01*
X101381204Y-63072257D02*
X101309776Y-63143685D01*
X101309776Y-63143685D02*
X101238347Y-63286542D01*
X101238347Y-63286542D02*
X101166918Y-63572257D01*
X101166918Y-63572257D02*
X101166918Y-63929400D01*
X101166918Y-63929400D02*
X101238347Y-64215114D01*
X101238347Y-64215114D02*
X101309776Y-64357971D01*
X101309776Y-64357971D02*
X101381204Y-64429400D01*
X101381204Y-64429400D02*
X101524061Y-64500828D01*
X101524061Y-64500828D02*
X101666918Y-64500828D01*
X101666918Y-64500828D02*
X101809776Y-64429400D01*
X101809776Y-64429400D02*
X101881204Y-64357971D01*
X101881204Y-64357971D02*
X101952633Y-64215114D01*
X101952633Y-64215114D02*
X102024061Y-63929400D01*
X102024061Y-63929400D02*
X102024061Y-63572257D01*
X102024061Y-63572257D02*
X101952633Y-63286542D01*
X101952633Y-63286542D02*
X101881204Y-63143685D01*
X101881204Y-63143685D02*
X101809776Y-63072257D01*
X101809776Y-63072257D02*
X101666918Y-63000828D01*
X100666919Y-63000828D02*
X99666919Y-63000828D01*
X99666919Y-63000828D02*
X100309776Y-64500828D01*
X98309776Y-64500828D02*
X99166919Y-64500828D01*
X98738348Y-64500828D02*
X98738348Y-63000828D01*
X98738348Y-63000828D02*
X98881205Y-63215114D01*
X98881205Y-63215114D02*
X99024062Y-63357971D01*
X99024062Y-63357971D02*
X99166919Y-63429400D01*
X96524063Y-64500828D02*
X96524063Y-63000828D01*
X96524063Y-63000828D02*
X96166920Y-63000828D01*
X96166920Y-63000828D02*
X95952634Y-63072257D01*
X95952634Y-63072257D02*
X95809777Y-63215114D01*
X95809777Y-63215114D02*
X95738348Y-63357971D01*
X95738348Y-63357971D02*
X95666920Y-63643685D01*
X95666920Y-63643685D02*
X95666920Y-63857971D01*
X95666920Y-63857971D02*
X95738348Y-64143685D01*
X95738348Y-64143685D02*
X95809777Y-64286542D01*
X95809777Y-64286542D02*
X95952634Y-64429400D01*
X95952634Y-64429400D02*
X96166920Y-64500828D01*
X96166920Y-64500828D02*
X96524063Y-64500828D01*
X94452634Y-64429400D02*
X94595491Y-64500828D01*
X94595491Y-64500828D02*
X94881206Y-64500828D01*
X94881206Y-64500828D02*
X95024063Y-64429400D01*
X95024063Y-64429400D02*
X95095491Y-64286542D01*
X95095491Y-64286542D02*
X95095491Y-63715114D01*
X95095491Y-63715114D02*
X95024063Y-63572257D01*
X95024063Y-63572257D02*
X94881206Y-63500828D01*
X94881206Y-63500828D02*
X94595491Y-63500828D01*
X94595491Y-63500828D02*
X94452634Y-63572257D01*
X94452634Y-63572257D02*
X94381206Y-63715114D01*
X94381206Y-63715114D02*
X94381206Y-63857971D01*
X94381206Y-63857971D02*
X95095491Y-64000828D01*
X93881206Y-63500828D02*
X93524063Y-64500828D01*
X93524063Y-64500828D02*
X93166920Y-63500828D01*
X90952635Y-63715114D02*
X90738349Y-63786542D01*
X90738349Y-63786542D02*
X90666920Y-63857971D01*
X90666920Y-63857971D02*
X90595492Y-64000828D01*
X90595492Y-64000828D02*
X90595492Y-64215114D01*
X90595492Y-64215114D02*
X90666920Y-64357971D01*
X90666920Y-64357971D02*
X90738349Y-64429400D01*
X90738349Y-64429400D02*
X90881206Y-64500828D01*
X90881206Y-64500828D02*
X91452635Y-64500828D01*
X91452635Y-64500828D02*
X91452635Y-63000828D01*
X91452635Y-63000828D02*
X90952635Y-63000828D01*
X90952635Y-63000828D02*
X90809778Y-63072257D01*
X90809778Y-63072257D02*
X90738349Y-63143685D01*
X90738349Y-63143685D02*
X90666920Y-63286542D01*
X90666920Y-63286542D02*
X90666920Y-63429400D01*
X90666920Y-63429400D02*
X90738349Y-63572257D01*
X90738349Y-63572257D02*
X90809778Y-63643685D01*
X90809778Y-63643685D02*
X90952635Y-63715114D01*
X90952635Y-63715114D02*
X91452635Y-63715114D01*
X89738349Y-64500828D02*
X89881206Y-64429400D01*
X89881206Y-64429400D02*
X89952635Y-64357971D01*
X89952635Y-64357971D02*
X90024063Y-64215114D01*
X90024063Y-64215114D02*
X90024063Y-63786542D01*
X90024063Y-63786542D02*
X89952635Y-63643685D01*
X89952635Y-63643685D02*
X89881206Y-63572257D01*
X89881206Y-63572257D02*
X89738349Y-63500828D01*
X89738349Y-63500828D02*
X89524063Y-63500828D01*
X89524063Y-63500828D02*
X89381206Y-63572257D01*
X89381206Y-63572257D02*
X89309778Y-63643685D01*
X89309778Y-63643685D02*
X89238349Y-63786542D01*
X89238349Y-63786542D02*
X89238349Y-64215114D01*
X89238349Y-64215114D02*
X89309778Y-64357971D01*
X89309778Y-64357971D02*
X89381206Y-64429400D01*
X89381206Y-64429400D02*
X89524063Y-64500828D01*
X89524063Y-64500828D02*
X89738349Y-64500828D01*
X87952635Y-64500828D02*
X87952635Y-63715114D01*
X87952635Y-63715114D02*
X88024063Y-63572257D01*
X88024063Y-63572257D02*
X88166920Y-63500828D01*
X88166920Y-63500828D02*
X88452635Y-63500828D01*
X88452635Y-63500828D02*
X88595492Y-63572257D01*
X87952635Y-64429400D02*
X88095492Y-64500828D01*
X88095492Y-64500828D02*
X88452635Y-64500828D01*
X88452635Y-64500828D02*
X88595492Y-64429400D01*
X88595492Y-64429400D02*
X88666920Y-64286542D01*
X88666920Y-64286542D02*
X88666920Y-64143685D01*
X88666920Y-64143685D02*
X88595492Y-64000828D01*
X88595492Y-64000828D02*
X88452635Y-63929400D01*
X88452635Y-63929400D02*
X88095492Y-63929400D01*
X88095492Y-63929400D02*
X87952635Y-63857971D01*
X87238349Y-64500828D02*
X87238349Y-63500828D01*
X87238349Y-63786542D02*
X87166920Y-63643685D01*
X87166920Y-63643685D02*
X87095492Y-63572257D01*
X87095492Y-63572257D02*
X86952634Y-63500828D01*
X86952634Y-63500828D02*
X86809777Y-63500828D01*
X85666921Y-64500828D02*
X85666921Y-63000828D01*
X85666921Y-64429400D02*
X85809778Y-64500828D01*
X85809778Y-64500828D02*
X86095492Y-64500828D01*
X86095492Y-64500828D02*
X86238349Y-64429400D01*
X86238349Y-64429400D02*
X86309778Y-64357971D01*
X86309778Y-64357971D02*
X86381206Y-64215114D01*
X86381206Y-64215114D02*
X86381206Y-63786542D01*
X86381206Y-63786542D02*
X86309778Y-63643685D01*
X86309778Y-63643685D02*
X86238349Y-63572257D01*
X86238349Y-63572257D02*
X86095492Y-63500828D01*
X86095492Y-63500828D02*
X85809778Y-63500828D01*
X85809778Y-63500828D02*
X85666921Y-63572257D01*
D10*
X100656590Y-70796993D02*
X100608971Y-70654136D01*
X100608971Y-70654136D02*
X100561352Y-70606517D01*
X100561352Y-70606517D02*
X100466114Y-70558898D01*
X100466114Y-70558898D02*
X100323257Y-70558898D01*
X100323257Y-70558898D02*
X100228019Y-70606517D01*
X100228019Y-70606517D02*
X100180400Y-70654136D01*
X100180400Y-70654136D02*
X100132780Y-70749374D01*
X100132780Y-70749374D02*
X100132780Y-71130326D01*
X100132780Y-71130326D02*
X101132780Y-71130326D01*
X101132780Y-71130326D02*
X101132780Y-70796993D01*
X101132780Y-70796993D02*
X101085161Y-70701755D01*
X101085161Y-70701755D02*
X101037542Y-70654136D01*
X101037542Y-70654136D02*
X100942304Y-70606517D01*
X100942304Y-70606517D02*
X100847066Y-70606517D01*
X100847066Y-70606517D02*
X100751828Y-70654136D01*
X100751828Y-70654136D02*
X100704209Y-70701755D01*
X100704209Y-70701755D02*
X100656590Y-70796993D01*
X100656590Y-70796993D02*
X100656590Y-71130326D01*
X101132780Y-69701755D02*
X101132780Y-69892231D01*
X101132780Y-69892231D02*
X101085161Y-69987469D01*
X101085161Y-69987469D02*
X101037542Y-70035088D01*
X101037542Y-70035088D02*
X100894685Y-70130326D01*
X100894685Y-70130326D02*
X100704209Y-70177945D01*
X100704209Y-70177945D02*
X100323257Y-70177945D01*
X100323257Y-70177945D02*
X100228019Y-70130326D01*
X100228019Y-70130326D02*
X100180400Y-70082707D01*
X100180400Y-70082707D02*
X100132780Y-69987469D01*
X100132780Y-69987469D02*
X100132780Y-69796993D01*
X100132780Y-69796993D02*
X100180400Y-69701755D01*
X100180400Y-69701755D02*
X100228019Y-69654136D01*
X100228019Y-69654136D02*
X100323257Y-69606517D01*
X100323257Y-69606517D02*
X100561352Y-69606517D01*
X100561352Y-69606517D02*
X100656590Y-69654136D01*
X100656590Y-69654136D02*
X100704209Y-69701755D01*
X100704209Y-69701755D02*
X100751828Y-69796993D01*
X100751828Y-69796993D02*
X100751828Y-69987469D01*
X100751828Y-69987469D02*
X100704209Y-70082707D01*
X100704209Y-70082707D02*
X100656590Y-70130326D01*
X100656590Y-70130326D02*
X100561352Y-70177945D01*
X106880326Y-66367219D02*
X106880326Y-65700552D01*
X106880326Y-65891028D02*
X106832707Y-65795790D01*
X106832707Y-65795790D02*
X106785088Y-65748171D01*
X106785088Y-65748171D02*
X106689850Y-65700552D01*
X106689850Y-65700552D02*
X106594612Y-65700552D01*
X105880326Y-66319600D02*
X105975564Y-66367219D01*
X105975564Y-66367219D02*
X106166040Y-66367219D01*
X106166040Y-66367219D02*
X106261278Y-66319600D01*
X106261278Y-66319600D02*
X106308897Y-66224361D01*
X106308897Y-66224361D02*
X106308897Y-65843409D01*
X106308897Y-65843409D02*
X106261278Y-65748171D01*
X106261278Y-65748171D02*
X106166040Y-65700552D01*
X106166040Y-65700552D02*
X105975564Y-65700552D01*
X105975564Y-65700552D02*
X105880326Y-65748171D01*
X105880326Y-65748171D02*
X105832707Y-65843409D01*
X105832707Y-65843409D02*
X105832707Y-65938647D01*
X105832707Y-65938647D02*
X106308897Y-66033885D01*
X105546992Y-65700552D02*
X105166040Y-65700552D01*
X105404135Y-66367219D02*
X105404135Y-65510076D01*
X105404135Y-65510076D02*
X105356516Y-65414838D01*
X105356516Y-65414838D02*
X105261278Y-65367219D01*
X105261278Y-65367219D02*
X105166040Y-65367219D01*
X103880325Y-65367219D02*
X103785087Y-65367219D01*
X103785087Y-65367219D02*
X103689849Y-65414838D01*
X103689849Y-65414838D02*
X103642230Y-65462457D01*
X103642230Y-65462457D02*
X103594611Y-65557695D01*
X103594611Y-65557695D02*
X103546992Y-65748171D01*
X103546992Y-65748171D02*
X103546992Y-65986266D01*
X103546992Y-65986266D02*
X103594611Y-66176742D01*
X103594611Y-66176742D02*
X103642230Y-66271980D01*
X103642230Y-66271980D02*
X103689849Y-66319600D01*
X103689849Y-66319600D02*
X103785087Y-66367219D01*
X103785087Y-66367219D02*
X103880325Y-66367219D01*
X103880325Y-66367219D02*
X103975563Y-66319600D01*
X103975563Y-66319600D02*
X104023182Y-66271980D01*
X104023182Y-66271980D02*
X104070801Y-66176742D01*
X104070801Y-66176742D02*
X104118420Y-65986266D01*
X104118420Y-65986266D02*
X104118420Y-65748171D01*
X104118420Y-65748171D02*
X104070801Y-65557695D01*
X104070801Y-65557695D02*
X104023182Y-65462457D01*
X104023182Y-65462457D02*
X103975563Y-65414838D01*
X103975563Y-65414838D02*
X103880325Y-65367219D01*
X103118420Y-66271980D02*
X103070801Y-66319600D01*
X103070801Y-66319600D02*
X103118420Y-66367219D01*
X103118420Y-66367219D02*
X103166039Y-66319600D01*
X103166039Y-66319600D02*
X103118420Y-66271980D01*
X103118420Y-66271980D02*
X103118420Y-66367219D01*
X102118421Y-66367219D02*
X102689849Y-66367219D01*
X102404135Y-66367219D02*
X102404135Y-65367219D01*
X102404135Y-65367219D02*
X102499373Y-65510076D01*
X102499373Y-65510076D02*
X102594611Y-65605314D01*
X102594611Y-65605314D02*
X102689849Y-65652933D01*
X100927944Y-66367219D02*
X100927944Y-65367219D01*
X100927944Y-65843409D02*
X100356516Y-65843409D01*
X100356516Y-66367219D02*
X100356516Y-65367219D01*
X100023182Y-65367219D02*
X99451754Y-65367219D01*
X99737468Y-66367219D02*
X99737468Y-65367219D01*
X99118420Y-65986266D02*
X98356516Y-65986266D01*
X97404135Y-66367219D02*
X97880325Y-66367219D01*
X97880325Y-66367219D02*
X97880325Y-65367219D01*
X97118420Y-66081504D02*
X96642230Y-66081504D01*
X97213658Y-66367219D02*
X96880325Y-65367219D01*
X96880325Y-65367219D02*
X96546992Y-66367219D01*
X95880325Y-65843409D02*
X95737468Y-65891028D01*
X95737468Y-65891028D02*
X95689849Y-65938647D01*
X95689849Y-65938647D02*
X95642230Y-66033885D01*
X95642230Y-66033885D02*
X95642230Y-66176742D01*
X95642230Y-66176742D02*
X95689849Y-66271980D01*
X95689849Y-66271980D02*
X95737468Y-66319600D01*
X95737468Y-66319600D02*
X95832706Y-66367219D01*
X95832706Y-66367219D02*
X96213658Y-66367219D01*
X96213658Y-66367219D02*
X96213658Y-65367219D01*
X96213658Y-65367219D02*
X95880325Y-65367219D01*
X95880325Y-65367219D02*
X95785087Y-65414838D01*
X95785087Y-65414838D02*
X95737468Y-65462457D01*
X95737468Y-65462457D02*
X95689849Y-65557695D01*
X95689849Y-65557695D02*
X95689849Y-65652933D01*
X95689849Y-65652933D02*
X95737468Y-65748171D01*
X95737468Y-65748171D02*
X95785087Y-65795790D01*
X95785087Y-65795790D02*
X95880325Y-65843409D01*
X95880325Y-65843409D02*
X96213658Y-65843409D01*
X94499372Y-65462457D02*
X94451753Y-65414838D01*
X94451753Y-65414838D02*
X94356515Y-65367219D01*
X94356515Y-65367219D02*
X94118420Y-65367219D01*
X94118420Y-65367219D02*
X94023182Y-65414838D01*
X94023182Y-65414838D02*
X93975563Y-65462457D01*
X93975563Y-65462457D02*
X93927944Y-65557695D01*
X93927944Y-65557695D02*
X93927944Y-65652933D01*
X93927944Y-65652933D02*
X93975563Y-65795790D01*
X93975563Y-65795790D02*
X94546991Y-66367219D01*
X94546991Y-66367219D02*
X93927944Y-66367219D01*
X93308896Y-65367219D02*
X93213658Y-65367219D01*
X93213658Y-65367219D02*
X93118420Y-65414838D01*
X93118420Y-65414838D02*
X93070801Y-65462457D01*
X93070801Y-65462457D02*
X93023182Y-65557695D01*
X93023182Y-65557695D02*
X92975563Y-65748171D01*
X92975563Y-65748171D02*
X92975563Y-65986266D01*
X92975563Y-65986266D02*
X93023182Y-66176742D01*
X93023182Y-66176742D02*
X93070801Y-66271980D01*
X93070801Y-66271980D02*
X93118420Y-66319600D01*
X93118420Y-66319600D02*
X93213658Y-66367219D01*
X93213658Y-66367219D02*
X93308896Y-66367219D01*
X93308896Y-66367219D02*
X93404134Y-66319600D01*
X93404134Y-66319600D02*
X93451753Y-66271980D01*
X93451753Y-66271980D02*
X93499372Y-66176742D01*
X93499372Y-66176742D02*
X93546991Y-65986266D01*
X93546991Y-65986266D02*
X93546991Y-65748171D01*
X93546991Y-65748171D02*
X93499372Y-65557695D01*
X93499372Y-65557695D02*
X93451753Y-65462457D01*
X93451753Y-65462457D02*
X93404134Y-65414838D01*
X93404134Y-65414838D02*
X93308896Y-65367219D01*
X92594610Y-65462457D02*
X92546991Y-65414838D01*
X92546991Y-65414838D02*
X92451753Y-65367219D01*
X92451753Y-65367219D02*
X92213658Y-65367219D01*
X92213658Y-65367219D02*
X92118420Y-65414838D01*
X92118420Y-65414838D02*
X92070801Y-65462457D01*
X92070801Y-65462457D02*
X92023182Y-65557695D01*
X92023182Y-65557695D02*
X92023182Y-65652933D01*
X92023182Y-65652933D02*
X92070801Y-65795790D01*
X92070801Y-65795790D02*
X92642229Y-66367219D01*
X92642229Y-66367219D02*
X92023182Y-66367219D01*
X91118420Y-65367219D02*
X91594610Y-65367219D01*
X91594610Y-65367219D02*
X91642229Y-65843409D01*
X91642229Y-65843409D02*
X91594610Y-65795790D01*
X91594610Y-65795790D02*
X91499372Y-65748171D01*
X91499372Y-65748171D02*
X91261277Y-65748171D01*
X91261277Y-65748171D02*
X91166039Y-65795790D01*
X91166039Y-65795790D02*
X91118420Y-65843409D01*
X91118420Y-65843409D02*
X91070801Y-65938647D01*
X91070801Y-65938647D02*
X91070801Y-66176742D01*
X91070801Y-66176742D02*
X91118420Y-66271980D01*
X91118420Y-66271980D02*
X91166039Y-66319600D01*
X91166039Y-66319600D02*
X91261277Y-66367219D01*
X91261277Y-66367219D02*
X91499372Y-66367219D01*
X91499372Y-66367219D02*
X91594610Y-66319600D01*
X91594610Y-66319600D02*
X91642229Y-66271980D01*
X90656590Y-60296993D02*
X90608971Y-60154136D01*
X90608971Y-60154136D02*
X90561352Y-60106517D01*
X90561352Y-60106517D02*
X90466114Y-60058898D01*
X90466114Y-60058898D02*
X90323257Y-60058898D01*
X90323257Y-60058898D02*
X90228019Y-60106517D01*
X90228019Y-60106517D02*
X90180400Y-60154136D01*
X90180400Y-60154136D02*
X90132780Y-60249374D01*
X90132780Y-60249374D02*
X90132780Y-60630326D01*
X90132780Y-60630326D02*
X91132780Y-60630326D01*
X91132780Y-60630326D02*
X91132780Y-60296993D01*
X91132780Y-60296993D02*
X91085161Y-60201755D01*
X91085161Y-60201755D02*
X91037542Y-60154136D01*
X91037542Y-60154136D02*
X90942304Y-60106517D01*
X90942304Y-60106517D02*
X90847066Y-60106517D01*
X90847066Y-60106517D02*
X90751828Y-60154136D01*
X90751828Y-60154136D02*
X90704209Y-60201755D01*
X90704209Y-60201755D02*
X90656590Y-60296993D01*
X90656590Y-60296993D02*
X90656590Y-60630326D01*
X91132780Y-59439850D02*
X91132780Y-59344612D01*
X91132780Y-59344612D02*
X91085161Y-59249374D01*
X91085161Y-59249374D02*
X91037542Y-59201755D01*
X91037542Y-59201755D02*
X90942304Y-59154136D01*
X90942304Y-59154136D02*
X90751828Y-59106517D01*
X90751828Y-59106517D02*
X90513733Y-59106517D01*
X90513733Y-59106517D02*
X90323257Y-59154136D01*
X90323257Y-59154136D02*
X90228019Y-59201755D01*
X90228019Y-59201755D02*
X90180400Y-59249374D01*
X90180400Y-59249374D02*
X90132780Y-59344612D01*
X90132780Y-59344612D02*
X90132780Y-59439850D01*
X90132780Y-59439850D02*
X90180400Y-59535088D01*
X90180400Y-59535088D02*
X90228019Y-59582707D01*
X90228019Y-59582707D02*
X90323257Y-59630326D01*
X90323257Y-59630326D02*
X90513733Y-59677945D01*
X90513733Y-59677945D02*
X90751828Y-59677945D01*
X90751828Y-59677945D02*
X90942304Y-59630326D01*
X90942304Y-59630326D02*
X91037542Y-59582707D01*
X91037542Y-59582707D02*
X91085161Y-59535088D01*
X91085161Y-59535088D02*
X91132780Y-59439850D01*
X88156590Y-60296993D02*
X88108971Y-60154136D01*
X88108971Y-60154136D02*
X88061352Y-60106517D01*
X88061352Y-60106517D02*
X87966114Y-60058898D01*
X87966114Y-60058898D02*
X87823257Y-60058898D01*
X87823257Y-60058898D02*
X87728019Y-60106517D01*
X87728019Y-60106517D02*
X87680400Y-60154136D01*
X87680400Y-60154136D02*
X87632780Y-60249374D01*
X87632780Y-60249374D02*
X87632780Y-60630326D01*
X87632780Y-60630326D02*
X88632780Y-60630326D01*
X88632780Y-60630326D02*
X88632780Y-60296993D01*
X88632780Y-60296993D02*
X88585161Y-60201755D01*
X88585161Y-60201755D02*
X88537542Y-60154136D01*
X88537542Y-60154136D02*
X88442304Y-60106517D01*
X88442304Y-60106517D02*
X88347066Y-60106517D01*
X88347066Y-60106517D02*
X88251828Y-60154136D01*
X88251828Y-60154136D02*
X88204209Y-60201755D01*
X88204209Y-60201755D02*
X88156590Y-60296993D01*
X88156590Y-60296993D02*
X88156590Y-60630326D01*
X87632780Y-59106517D02*
X87632780Y-59677945D01*
X87632780Y-59392231D02*
X88632780Y-59392231D01*
X88632780Y-59392231D02*
X88489923Y-59487469D01*
X88489923Y-59487469D02*
X88394685Y-59582707D01*
X88394685Y-59582707D02*
X88347066Y-59677945D01*
X87918495Y-71177945D02*
X87918495Y-70701755D01*
X87632780Y-71273183D02*
X88632780Y-70939850D01*
X88632780Y-70939850D02*
X87632780Y-70606517D01*
X87632780Y-69749374D02*
X87632780Y-70320802D01*
X87632780Y-70035088D02*
X88632780Y-70035088D01*
X88632780Y-70035088D02*
X88489923Y-70130326D01*
X88489923Y-70130326D02*
X88394685Y-70225564D01*
X88394685Y-70225564D02*
X88347066Y-70320802D01*
X88632780Y-69416040D02*
X88632780Y-68796993D01*
X88632780Y-68796993D02*
X88251828Y-69130326D01*
X88251828Y-69130326D02*
X88251828Y-68987469D01*
X88251828Y-68987469D02*
X88204209Y-68892231D01*
X88204209Y-68892231D02*
X88156590Y-68844612D01*
X88156590Y-68844612D02*
X88061352Y-68796993D01*
X88061352Y-68796993D02*
X87823257Y-68796993D01*
X87823257Y-68796993D02*
X87728019Y-68844612D01*
X87728019Y-68844612D02*
X87680400Y-68892231D01*
X87680400Y-68892231D02*
X87632780Y-68987469D01*
X87632780Y-68987469D02*
X87632780Y-69273183D01*
X87632780Y-69273183D02*
X87680400Y-69368421D01*
X87680400Y-69368421D02*
X87728019Y-69416040D01*
%LPC*%
D12*
%TO.C,J1*%
X85255000Y-62110000D03*
X85255000Y-67890000D03*
D13*
X85775000Y-60680000D03*
D14*
X81575000Y-60680000D03*
D13*
X85775000Y-69320000D03*
D14*
X81575000Y-69320000D03*
%TD*%
D15*
%TO.C,J5*%
X93091000Y-67437000D03*
X93091000Y-68437000D03*
%TD*%
D16*
%TO.C,J2*%
X82804000Y-72644000D03*
D17*
X85344000Y-72644000D03*
X87884000Y-72644000D03*
X90424000Y-72644000D03*
X92964000Y-72644000D03*
X95504000Y-72644000D03*
X98044000Y-72644000D03*
X100584000Y-72644000D03*
X103124000Y-72644000D03*
X105664000Y-72644000D03*
X108204000Y-72644000D03*
X110744000Y-72644000D03*
X113284000Y-72644000D03*
X115824000Y-72644000D03*
%TD*%
D16*
%TO.C,J4*%
X115824000Y-57500000D03*
D17*
X113284000Y-57500000D03*
X110744000Y-57500000D03*
X108204000Y-57500000D03*
X105664000Y-57500000D03*
X103124000Y-57500000D03*
X100584000Y-57500000D03*
X98044000Y-57500000D03*
X95504000Y-57500000D03*
X92964000Y-57500000D03*
X90424000Y-57500000D03*
X87884000Y-57500000D03*
X85344000Y-57500000D03*
X82804000Y-57500000D03*
%TD*%
D18*
%TO.C,J3*%
X115570000Y-61214000D03*
%TD*%
%LPD*%
M02*
